<svg width="109" height="191" viewBox="0 0 109 191" fill="none" xmlns="http://www.w3.org/2000/svg">
<path d="M72.8295 66.5598C75.3735 67.7438 89.1796 70.531 95.7393 70.5733C95.7393 70.5839 102.38 74.1816 103.171 73.7834C103.984 73.3746 102.04 72.8426 101.419 72.4197C100.799 71.9969 99.5903 71.1512 100.827 71.6269C102.064 72.1026 106.462 72.9342 106.914 72.5818C107.709 71.9581 102.373 71.4119 100.918 70.5099C100.918 70.5099 105.113 71.0666 106.798 71.4507C106.798 71.4507 108.151 71.8101 108.207 71.1441C108.263 70.4782 106.546 70.605 105.607 70.2914C104.668 69.9813 101.959 69.6113 101.588 69.5585C101.22 69.5091 102.134 69.3259 103.522 69.5162C104.906 69.7065 107.124 70.0095 106.984 69.407C106.847 68.8079 103.434 68.6776 101.892 68.4661C100.354 68.2547 99.8776 68.2054 100.26 67.9059C100.642 67.6064 101.227 67.4548 102.068 67.4196C102.912 67.3808 102.842 66.3308 101.595 66.3449C100.347 66.359 98.1676 67.261 97.2671 67.5359C97.1234 67.5817 95.4239 67.994 95.2873 68.0045C95.1331 68.0045 94.9404 67.9869 94.7091 67.9623C91.4152 67.6134 80.6892 65.1327 77.136 60.7704C73.1098 55.8337 64.3986 36.4993 60.7754 36.4993C58.5118 36.4993 53.6831 37.1124 53.7707 37.0948C53.7707 37.0948 58.694 40.0758 60.2953 44.7376C62.5625 51.334 69.7879 65.1433 72.8295 66.5598Z" fill="#FFC8C7"/>
<path d="M55.2459 20.1917C55.2459 20.1917 55.3405 26.4673 54.1946 28.5956C53.0488 30.7239 49.755 36.3442 49.755 36.3442C49.755 36.3442 53.8933 47.4015 55.9432 52.0951C57.9931 56.7886 55.6383 67.5006 53.3887 70.0729C51.1391 72.6417 43.6403 77.8215 41.5378 86.7717C39.4354 95.7218 32.3711 130.215 32.3711 130.215C32.3711 130.215 30.556 130.324 28.5517 132.618C26.5473 134.909 14.8016 173.225 14.8016 173.225L12.2226 173.881C12.2226 173.881 12.7972 175.738 12.7972 177.7C12.7972 179.663 10.9821 182.831 11.5568 184.36C12.1314 185.889 14.0412 188.18 14.0412 188.18C14.0412 188.18 13.7083 182.669 14.8051 181.411C15.9019 180.156 16.6202 173.771 16.6202 173.771C16.6202 173.771 38.5348 135.948 38.8712 135.568C39.2041 135.187 57.7058 97.9594 61.7179 80.0591C65.7301 62.1587 66.3258 56.697 66.3258 56.697C66.3258 56.697 68.9189 53.0782 68.9189 50.3509C68.9189 47.6235 62.3592 41.4782 59.8783 36.6754C57.3939 31.8727 61.9808 22.3763 61.9808 22.3763L55.2494 20.1917H55.2459Z" fill="#FFCECE"/>
<path d="M55.5094 26.0446C56.4906 28.342 57.8467 30.1321 59.2413 31.4217C59.7459 26.996 61.978 22.3729 61.978 22.3729L55.2466 20.1882C55.2466 20.1882 55.2816 22.5491 55.0469 24.8642C55.1905 25.2659 55.3447 25.657 55.5094 26.0411V26.0446Z" fill="#FFC8C7"/>
<path d="M63.7928 80.334C64.5882 76.7786 65.2189 73.7201 65.72 71.0879C62.3876 68.7023 59.0307 66.3908 55.5687 64.2202C55.0571 66.8418 54.2721 69.0723 53.3961 70.0731C53.3085 70.1752 53.2104 70.281 53.1053 70.3902C50.8136 72.7933 45.2806 76.9161 42.5544 83.6216C40.9566 87.547 35.1608 117.107 32.3785 130.219C32.1578 130.356 29.4106 130.638 28.037 133.531C25.5315 138.813 18.0328 162.838 16.2877 168.44C15.3766 171.365 14.8055 173.229 14.8055 173.229L12.2265 173.884C12.2265 173.884 12.8011 175.741 12.8011 177.704C12.8011 179.667 10.986 182.834 11.5607 184.364C12.1354 185.893 14.0451 188.183 14.0451 188.183C14.0451 188.183 13.7122 182.672 14.809 181.414C15.9058 180.16 16.6241 173.775 16.6241 173.775C16.6942 173.652 38.4126 136.223 38.8927 135.543C43.5566 128.214 60.5129 95.0067 63.7998 80.3376L63.7928 80.334Z" fill="#FFC8C7"/>
<path d="M81.4607 182.176C78.4086 169.036 71.9856 141.389 69.0597 128.979C65.3173 113.104 61.8412 93.3365 58.5894 82.7055C57.6153 79.5236 56.2942 72.1732 52.1384 71.3346C50.5055 71.0033 42.9751 80.549 41.6436 85.0311C39.5657 92.0151 49.1178 111.483 52.1033 118.073C57.2228 129.38 72.8196 163.743 76.8493 174.85C77.5851 176.876 77.9496 178.159 77.8304 178.462C76.8773 180.861 76.8773 182.172 78.4997 182.172C80.1221 182.172 80.2202 185.227 80.886 186.866C81.5553 188.504 85.2801 188.176 85.2801 188.176C83.2758 187.084 81.4607 182.172 81.4607 182.172V182.176Z" fill="#FFCECE"/>
<path d="M76.7301 179.832C76.7301 179.832 76.0433 179.956 76.0188 181.538C75.9943 183.12 77.9811 190.375 77.9811 190.375L78.5207 190.308C78.5207 190.308 77.7253 183.603 79.0814 184.297C80.4374 184.991 81.4116 188.934 81.4116 188.934C81.4116 188.934 83.486 190.287 86.8605 190.35C90.2349 190.414 85.21 187.694 85.21 187.694L81.8776 186.975C81.8776 186.975 80.1536 182.426 78.9272 180.974C77.7007 179.522 76.7266 179.832 76.7266 179.832H76.7301Z" fill="#C0B4FE"/>
<path d="M54.6222 47.4122C55.5227 44.5509 55.8031 41.6545 54.2052 39.2337C53.4308 38.0039 52.4461 37.2428 51.1496 37.5599C49.9057 37.8383 48.8334 38.9095 47.9434 39.7305C50.1579 36.9362 52.5512 35.8932 54.5311 38.9659C55.6068 40.615 55.9923 42.7961 55.351 45.3825C55.1583 46.0873 54.9165 46.7673 54.6222 47.4157V47.4122Z" fill="#F9CA62"/>
<path d="M12.675 173.765C12.675 173.765 12.1074 173.307 11.1262 174.424C10.1486 175.544 7.16309 182.338 7.16309 182.338L7.59409 182.718C7.59409 182.718 11.1017 177.264 11.6518 178.842C12.2055 180.421 10.506 184.026 10.506 184.026C10.506 184.026 11.1753 186.644 13.5616 189.375C15.9479 192.102 13.9926 186.154 13.9926 186.154L12.0338 182.99C12.0338 182.99 13.5616 178.349 13.5616 176.33C13.5616 174.311 12.675 173.761 12.675 173.761V173.765Z" fill="#C0B4FE"/>
<path d="M63.3868 6.67864C63.3868 6.67864 67.1047 6.34037 67.6864 9.28617C68.2646 12.232 66.0605 14.9241 66.6106 16.0481C67.1608 17.1687 68.3872 17.7888 68.7166 17.9333C69.046 18.0813 68.4257 19.0468 67.8896 19.2582C67.8896 19.2582 67.6513 19.7938 67.8055 19.9524C67.9597 20.1109 68.3416 20.3928 68.219 20.7734C68.0964 21.1539 67.4551 21.3407 67.4551 21.3407C67.4551 21.3407 68.0858 22.0031 67.7635 22.3309C67.4446 22.655 66.7718 22.8347 66.7718 22.8347C66.7718 22.8347 66.9365 24.3288 66.2357 24.7692C65.5349 25.2097 63.4114 24.6283 61.5927 23.8425C59.7741 23.0567 55.0436 21.1504 55.0436 21.1504C55.0436 21.1504 50.6284 3.70113 63.3833 6.67512L63.3868 6.67864Z" fill="#FFCECE"/>
<path d="M61.5573 7.81316C61.7885 8.04925 62.6821 8.78217 62.6821 10.5898C62.6821 12.3975 62.4754 12.6089 62.4754 12.6089H64.7075C64.7075 12.6089 65.163 10.3361 64.9562 9.70538C64.9562 9.70538 65.2471 11.513 65.2471 12.6089H70.6714C70.6714 12.6089 71.7752 5.706 66.5261 1.83699C61.2769 -2.03554 55.1623 1.41767 55.1623 1.41767C55.1623 1.41767 51.031 0.998356 49.4191 4.23662C47.8072 7.47841 46.8576 7.85545 44.5834 8.9936C42.3093 10.1282 41.3947 15.375 41.6505 15.6322C41.9028 15.8894 36.5275 16.8197 35.1224 21.8269L34.793 24.9242C34.793 24.9242 41.8187 24.9841 43.9667 25.9496C46.1147 26.9186 47.7686 26.4112 47.7686 26.4112C47.7686 26.4112 48.7393 22.8558 50.0008 21.5731C51.2622 20.2905 52.5202 19.8888 52.5202 19.8888C52.5202 19.8888 49.6293 24.4344 49.6293 26.3689L54.917 26.5415C54.917 26.5415 59.588 23.7578 60.1241 20.0122C60.6602 16.2665 60.1241 12.4362 60.1241 12.4362C60.1241 12.4362 61.1158 13.363 61.1158 15.2975C61.1158 15.2975 61.4872 12.6899 61.1578 10.4594C60.8284 8.22896 61.5608 7.80964 61.5608 7.80964L61.5573 7.81316Z" fill="#2846A6"/>
<path d="M66.0532 20.5548C65.6993 20.9318 66.8837 21.2419 67.4549 21.3441C67.0099 21.3053 65.9621 21.1855 65.8535 20.7415C65.8185 20.5794 65.9236 20.3257 66.0462 20.4174C66.0848 20.4455 66.0918 20.5019 66.0638 20.5407C66.0638 20.5407 66.0603 20.5442 66.0568 20.5477L66.0532 20.5548Z" fill="#2846A6"/>
<path d="M66.2567 15.6145C66.2567 15.6145 66.4143 16.1748 65.8467 16.432L66.2567 15.6145Z" fill="#2846A6"/>
<path d="M64.6406 15.3046C65.4361 15.4315 66.8833 15.5231 67.4579 14.9487C67.1075 15.731 65.5061 15.8261 64.6406 15.3046Z" fill="#0F1D5B"/>
<path d="M63.4732 81.6696C63.5889 81.215 63.6975 80.7675 63.7956 80.3341C67.8078 62.4338 67.6151 56.9756 67.6151 56.9756C67.6151 56.9756 70.2887 52.5005 70.2887 49.7732C70.2887 47.2608 63.5714 42.3417 60.5683 37.8279C57.3446 37.021 54.4782 34.7412 51.3736 33.5713C50.4835 35.1076 49.7582 36.348 49.7582 36.348C49.7582 36.348 53.1992 47.4828 55.2526 52.1763C57.3025 56.8699 53.4235 65.9187 51.1739 68.4875C51.0862 68.5897 3.95963 128.077 0 149.92C0 149.92 19.9348 165.681 31.6105 160.702C43.2861 155.727 42.0842 163.179 46.0789 164.846C50.0771 166.509 74.378 164.712 79.6762 159.321L63.4767 81.6731L63.4732 81.6696Z" fill="#FCEE21"/>
<path d="M50.786 37.2499C51.0944 36.7883 50.9752 36.161 50.5162 35.8474C50.3971 35.7664 50.2709 35.717 50.1378 35.6924C50.0782 35.7981 50.0221 35.8897 49.9766 35.9708C50.1062 35.9708 50.2359 36.013 50.3515 36.0906C50.6774 36.3126 50.7615 36.753 50.5442 37.0807C50.4321 37.2463 50.2639 37.352 50.0817 37.3838C50.1097 37.4718 50.1413 37.567 50.1693 37.6656C50.4111 37.6128 50.6353 37.4683 50.786 37.2463V37.2499Z" fill="white"/>
<path d="M55.6286 40.5162C55.9369 40.0546 55.8178 39.4274 55.3588 39.1138C54.8997 38.8037 54.276 38.9235 53.9641 39.3851C53.6558 39.8467 53.7749 40.4739 54.234 40.7875C54.693 41.0976 55.3167 40.9778 55.6286 40.5162ZM54.3987 40.5444C54.0728 40.3224 53.9887 39.8819 54.2059 39.5542C54.4267 39.2265 54.8647 39.142 55.1906 39.3604C55.5165 39.5824 55.6006 40.0229 55.3833 40.3506C55.1625 40.6783 54.7245 40.7629 54.3987 40.5444Z" fill="white"/>
<path d="M59.0728 44.0575C59.5319 44.3676 60.1556 44.2478 60.4675 43.7862C60.7758 43.3246 60.6567 42.6974 60.1976 42.3838C59.7386 42.0737 59.1149 42.1935 58.803 42.6551C58.4946 43.1167 58.6138 43.7439 59.0728 44.0575ZM59.0483 42.8207C59.2655 42.493 59.7071 42.4085 60.0329 42.6269C60.3588 42.8489 60.4429 43.2894 60.2257 43.6171C60.0084 43.9448 59.5669 44.0294 59.241 43.8109C58.9151 43.5889 58.831 43.1484 59.0483 42.8207Z" fill="white"/>
<path d="M63.9152 47.3276C64.3742 47.6377 64.998 47.5179 65.3098 47.0563C65.6182 46.5946 65.499 45.9674 65.04 45.6538C64.581 45.3437 63.9572 45.4635 63.6454 45.9251C63.3335 46.3867 63.4561 47.014 63.9152 47.3276ZM63.8872 46.0908C64.1079 45.7631 64.5459 45.6785 64.8718 45.897C65.1977 46.1189 65.2818 46.5594 65.061 46.8871C64.8438 47.2148 64.4022 47.2994 64.0764 47.0809C63.7505 46.8624 63.6664 46.4185 63.8836 46.0908H63.8872Z" fill="white"/>
<path d="M69.8793 48.9202C69.4202 48.6101 68.7965 48.7299 68.4847 49.1915C68.1763 49.6531 68.2954 50.2803 68.7545 50.5939C69.2135 50.904 69.8372 50.7842 70.1491 50.3226C70.2087 50.2345 70.2507 50.1394 70.2787 50.0442C70.2858 49.9526 70.2858 49.861 70.2858 49.7729C70.2858 49.6355 70.2647 49.491 70.2262 49.336C70.1526 49.1739 70.0335 49.0294 69.8758 48.9202H69.8793ZM69.9038 50.157C69.6866 50.4847 69.245 50.5693 68.9192 50.3508C68.5933 50.1288 68.5092 49.6883 68.7264 49.3606C68.9472 49.0329 69.3852 48.9484 69.7111 49.1668C70.037 49.3888 70.1211 49.8293 69.9038 50.157Z" fill="white"/>
<path d="M56.7038 49.3924C57.0121 48.9308 56.893 48.3036 56.434 47.99C55.9749 47.6799 55.3512 47.7997 55.0393 48.2613C54.731 48.7229 54.8501 49.3501 55.3092 49.6638C55.7682 49.9738 56.3919 49.854 56.7038 49.3924ZM55.2846 48.4305C55.5019 48.1028 55.9434 48.0182 56.2693 48.2367C56.5952 48.4587 56.6793 48.8991 56.4585 49.2268C56.2412 49.5545 55.7997 49.6391 55.4738 49.4206C55.148 49.1986 55.0639 48.7582 55.2811 48.4305H55.2846Z" fill="white"/>
<path d="M59.8821 51.5348C59.5738 51.9964 59.6929 52.6236 60.1519 52.9372C60.611 53.2473 61.2347 53.1275 61.5466 52.6659C61.8549 52.2043 61.7358 51.577 61.2767 51.2634C60.8177 50.9534 60.194 51.0732 59.8821 51.5348ZM61.1085 51.5066C61.4344 51.7286 61.5185 52.169 61.3013 52.4967C61.0805 52.8244 60.6425 52.909 60.3166 52.6905C59.9907 52.4721 59.9066 52.0281 60.1239 51.7004C60.3447 51.3727 60.7862 51.2881 61.1085 51.5066Z" fill="white"/>
<path d="M64.722 54.8014C64.4136 55.263 64.5327 55.8902 64.9918 56.2038C65.4508 56.5139 66.0745 56.3941 66.3864 55.9325C66.6948 55.4709 66.5756 54.8436 66.1166 54.53C65.6575 54.22 65.0338 54.3398 64.722 54.8014ZM65.9519 54.7732C66.2778 54.9916 66.3619 55.4356 66.1446 55.7633C65.9239 56.091 65.4823 56.1756 65.16 55.9571C64.8341 55.7387 64.75 55.2947 64.9672 54.967C65.188 54.6393 65.626 54.5547 65.9519 54.7732Z" fill="white"/>
<path d="M56.1194 57.141C55.8111 57.6026 55.9302 58.2298 56.3892 58.5434C56.8483 58.8535 57.472 58.7337 57.7839 58.2721C58.0922 57.8105 57.9731 57.1832 57.5141 56.8696C57.055 56.5596 56.4313 56.6794 56.1194 57.141ZM57.3458 57.1128C57.6717 57.3348 57.7558 57.7752 57.5386 58.1029C57.3213 58.4306 56.8798 58.5152 56.5539 58.2967C56.228 58.0747 56.1439 57.6343 56.3612 57.3066C56.582 56.9789 57.02 56.8943 57.3458 57.1128Z" fill="white"/>
<path d="M60.9583 60.411C60.6499 60.8726 60.7691 61.4998 61.2281 61.8134C61.6871 62.1235 62.3109 62.0037 62.6227 61.5421C62.9311 61.0805 62.812 60.4533 62.3529 60.1397C61.8939 59.8296 61.2701 59.9494 60.9583 60.411ZM62.1882 60.3828C62.5141 60.6013 62.5982 61.0452 62.3809 61.3729C62.1602 61.7007 61.7222 61.7852 61.3963 61.5668C61.0704 61.3448 60.9863 60.9043 61.2036 60.5766C61.4208 60.2489 61.8623 60.1643 62.1882 60.3828Z" fill="white"/>
<path d="M65.7971 63.6776C65.4888 64.1392 65.6079 64.7664 66.067 65.08C66.2702 65.2175 66.5085 65.2703 66.7363 65.2456C66.7538 65.1435 66.7678 65.0377 66.7853 64.9391C66.5996 64.9814 66.3999 64.9497 66.2317 64.8334C65.9058 64.6114 65.8217 64.1709 66.0389 63.8432C66.2492 63.5331 66.6592 63.438 66.978 63.6212C66.992 63.5155 67.0061 63.4133 67.0201 63.3147C66.5856 63.1279 66.067 63.2689 65.7937 63.6776H65.7971Z" fill="white"/>
<path d="M54.0199 63.8784C54.1916 63.6212 54.2302 63.3111 54.1531 63.0327C53.9954 63.4344 53.8342 63.8255 53.666 64.2026C53.8027 64.1286 53.9253 64.0193 54.0199 63.8784Z" fill="white"/>
<path d="M57.1946 66.0172C56.8863 66.4788 57.0054 67.106 57.4644 67.4196C57.9235 67.7297 58.5472 67.6099 58.8591 67.1483C59.1674 66.6867 59.0483 66.0595 58.5892 65.7459C58.1302 65.4358 57.5065 65.5556 57.1946 66.0172ZM58.4245 65.9925C58.7504 66.2145 58.8345 66.655 58.6173 66.9827C58.3965 67.3104 57.9585 67.3949 57.6326 67.1765C57.3067 66.9545 57.2226 66.514 57.4399 66.1863C57.6572 65.8586 58.0987 65.774 58.4245 65.9925Z" fill="white"/>
<path d="M62.0335 69.2872C61.7251 69.7488 61.8443 70.376 62.3033 70.6896C62.7623 70.9997 63.3861 70.8799 63.6979 70.4183C64.0063 69.9567 63.8872 69.3295 63.4281 69.0159C62.9691 68.7058 62.3453 68.8256 62.0335 69.2872ZM63.2634 69.259C63.5893 69.481 63.6734 69.925 63.4561 70.2492C63.2354 70.5769 62.7974 70.6614 62.4715 70.443C62.1456 70.221 62.0615 69.7805 62.2788 69.4528C62.4995 69.1251 62.9375 69.0405 63.2634 69.259Z" fill="white"/>
<path d="M53.7008 73.0258C54.1598 73.3359 54.7835 73.2161 55.0954 72.7545C55.4037 72.2929 55.2846 71.6657 54.8256 71.3521C54.3665 71.042 53.7428 71.1618 53.4309 71.6234C53.1226 72.085 53.2417 72.7122 53.7008 73.0258ZM53.6762 71.7925C53.8935 71.4648 54.335 71.3803 54.6609 71.5987C54.9868 71.8172 55.0709 72.2612 54.8536 72.5889C54.6328 72.9166 54.1948 73.0011 53.869 72.7827C53.5431 72.5642 53.459 72.1202 53.6762 71.7925Z" fill="white"/>
<path d="M59.6654 74.6221C59.2064 74.312 58.5826 74.4318 58.2708 74.8934C57.9624 75.355 58.0816 75.9822 58.5406 76.2958C58.9996 76.6059 59.6234 76.4861 59.9352 76.0245C60.2436 75.5629 60.1245 74.9357 59.6654 74.6221ZM59.6935 75.8589C59.4727 76.1866 59.0347 76.2712 58.7088 76.0527C58.3829 75.8307 58.2988 75.3902 58.5161 75.0625C58.7368 74.7348 59.1748 74.6503 59.5007 74.8687C59.8266 75.0907 59.9107 75.5312 59.6935 75.8589Z" fill="white"/>
<path d="M63.1136 78.1635C62.8052 78.6251 62.9243 79.2523 63.3834 79.5659C63.5516 79.6787 63.7408 79.735 63.9265 79.7386C63.9475 79.6399 63.9721 79.5412 63.9931 79.4426C63.8389 79.4531 63.6847 79.4144 63.5481 79.3228C63.2222 79.1008 63.1381 78.6603 63.3553 78.3326C63.5621 78.0225 63.9686 77.9309 64.2874 78.1071C64.3085 78.0084 64.3295 77.9098 64.3505 77.8111C63.9125 77.6173 63.3869 77.7582 63.1101 78.1705L63.1136 78.1635Z" fill="white"/>
<path d="M46.4896 75.0942C46.6508 74.8546 46.6928 74.5762 46.6368 74.3154C46.5422 74.4388 46.444 74.5656 46.3459 74.6925C46.3284 74.7735 46.2934 74.8546 46.2443 74.9285C46.1777 75.0272 46.0901 75.1047 45.9885 75.1611C45.8939 75.2844 45.7958 75.4113 45.7012 75.5381C46.0095 75.5241 46.3039 75.369 46.4896 75.0942Z" fill="white"/>
<path d="M49.9381 78.6354C50.3971 78.9455 51.0208 78.8257 51.3327 78.3641C51.6411 77.9025 51.5219 77.2753 51.0629 76.9617C50.6038 76.6516 49.9801 76.7714 49.6682 77.233C49.3599 77.6946 49.479 78.3218 49.9381 78.6354ZM49.9135 77.3986C50.1343 77.0709 50.5723 76.9863 50.8982 77.2048C51.2241 77.4233 51.3082 77.8673 51.0909 78.195C50.8702 78.5227 50.4321 78.6072 50.1063 78.3888C49.7804 78.1668 49.6963 77.7263 49.9135 77.3986Z" fill="white"/>
<path d="M54.5067 80.503C54.1948 80.9646 54.3175 81.5918 54.7765 81.9055C55.2355 82.2155 55.8593 82.0957 56.1711 81.6341C56.4795 81.1725 56.3604 80.5453 55.9013 80.2317C55.4423 79.9216 54.8186 80.0414 54.5067 80.503ZM55.7366 80.4748C56.0625 80.6933 56.1466 81.1373 55.9294 81.465C55.7086 81.7927 55.2706 81.8773 54.9447 81.6588C54.6188 81.4368 54.5347 80.9963 54.752 80.6686C54.9692 80.3409 55.4108 80.2564 55.7366 80.4748Z" fill="white"/>
<path d="M60.7406 83.4983C60.2816 83.1882 59.6578 83.308 59.346 83.7696C59.0376 84.2312 59.1568 84.8584 59.6158 85.1721C60.0748 85.4821 60.6986 85.3623 61.0104 84.9007C61.3188 84.4391 61.1996 83.8119 60.7406 83.4983ZM60.7686 84.7351C60.5479 85.0628 60.1099 85.1474 59.784 84.9289C59.4581 84.7069 59.374 84.2629 59.5913 83.9388C59.812 83.6111 60.25 83.5265 60.5759 83.745C60.9018 83.967 60.9859 84.4074 60.7686 84.7351Z" fill="white"/>
<path d="M64.1887 87.0396C63.8804 87.5012 63.9995 88.1284 64.4586 88.442C64.6022 88.5371 64.7599 88.5935 64.9176 88.6111L64.8545 88.3011C64.7739 88.2834 64.6969 88.2482 64.6233 88.1989C64.2974 87.9769 64.2133 87.5364 64.4305 87.2087C64.4761 87.1418 64.5286 87.0854 64.5917 87.0396L64.5286 86.7295C64.3955 86.8035 64.2799 86.9092 64.1887 87.0431V87.0396Z" fill="white"/>
<path d="M42.7261 80.7038C42.9749 80.3303 42.9468 79.8511 42.684 79.5164C42.621 79.5974 42.5614 79.682 42.4983 79.763C42.642 79.9956 42.6455 80.2986 42.4843 80.5382C42.3091 80.8025 41.9867 80.9082 41.6994 80.8236C41.6363 80.9047 41.5767 80.9893 41.5137 81.0703C41.9447 81.25 42.4563 81.1055 42.7261 80.7003V80.7038Z" fill="white"/>
<path d="M46.1744 84.2453C46.6334 84.5554 47.2572 84.4356 47.569 83.974C47.8809 83.5124 47.7582 82.8852 47.2992 82.5715C46.8402 82.2615 46.2164 82.3813 45.9046 82.8429C45.5962 83.3045 45.7154 83.9317 46.1744 84.2453ZM46.1499 83.0085C46.3706 82.6808 46.8086 82.5962 47.1345 82.8147C47.4604 83.0367 47.5445 83.4771 47.3272 83.8048C47.11 84.1325 46.6685 84.2171 46.3426 83.9986C46.0167 83.7766 45.9326 83.3362 46.1499 83.0085Z" fill="white"/>
<path d="M50.7434 86.1129C50.4351 86.5745 50.5542 87.2017 51.0133 87.5153C51.4723 87.8254 52.096 87.7056 52.4079 87.244C52.7162 86.7824 52.5971 86.1552 52.1381 85.8416C51.679 85.5315 51.0553 85.6513 50.7434 86.1129ZM51.9734 86.0847C52.2993 86.3067 52.3834 86.7472 52.1661 87.0749C51.9453 87.4026 51.5073 87.4871 51.1815 87.2687C50.8556 87.0467 50.7715 86.6062 50.9887 86.2785C51.206 85.9508 51.6475 85.8662 51.9734 86.0847Z" fill="white"/>
<path d="M56.9779 89.1079C56.5189 88.7978 55.8951 88.9176 55.5833 89.3792C55.2749 89.8408 55.3941 90.4681 55.8531 90.7817C56.3121 91.0918 56.9359 90.972 57.2477 90.5104C57.5561 90.0488 57.437 89.4215 56.9779 89.1079ZM57.0059 90.3447C56.7852 90.6724 56.3472 90.757 56.0213 90.5385C55.6954 90.3165 55.6113 89.8761 55.8286 89.5484C56.0493 89.2207 56.4873 89.1361 56.8132 89.3546C57.1391 89.5766 57.2232 90.017 57.0059 90.3447Z" fill="white"/>
<path d="M60.4251 92.6493C60.1167 93.1109 60.2359 93.7381 60.6949 94.0517C61.1539 94.3618 61.7777 94.242 62.0895 93.7804C62.3979 93.3188 62.2788 92.6916 61.8197 92.3779C61.3607 92.0679 60.7369 92.1877 60.4251 92.6493ZM61.655 92.6211C61.9809 92.8431 62.065 93.2835 61.8477 93.6112C61.627 93.9389 61.189 94.0235 60.8631 93.805C60.5372 93.583 60.4531 93.1426 60.6704 92.8149C60.8876 92.4872 61.3291 92.4026 61.655 92.6211Z" fill="white"/>
<path d="M65.2679 95.9158C64.9595 96.3774 65.0786 97.0046 65.5377 97.3182C65.9126 97.5719 66.3927 97.5367 66.7291 97.2689L66.6555 96.9235C66.4277 97.216 66.0107 97.283 65.7024 97.0715C65.3765 96.8496 65.2924 96.4056 65.5096 96.0814C65.7129 95.7748 66.1158 95.6797 66.4312 95.8488L66.3576 95.5035C65.9547 95.3943 65.5096 95.5458 65.2643 95.9123L65.2679 95.9158Z" fill="white"/>
<path d="M38.9629 86.3136C39.2712 85.852 39.1521 85.2248 38.6931 84.9112C38.6825 84.9041 38.6755 84.9006 38.665 84.8936C38.6055 84.9711 38.5494 85.0521 38.4898 85.1296C38.5038 85.1367 38.5179 85.1473 38.5284 85.1543C38.8542 85.3763 38.9383 85.8168 38.7211 86.1445C38.5038 86.4722 38.0623 86.5567 37.7364 86.3383C37.7049 86.3171 37.6769 86.296 37.6488 86.2678C37.5893 86.3453 37.5332 86.4264 37.4736 86.5074C37.5052 86.5356 37.5367 86.5603 37.5717 86.5814C38.0308 86.8915 38.6545 86.7717 38.9664 86.3101L38.9629 86.3136Z" fill="white"/>
<path d="M42.4107 89.8515C42.8698 90.1616 43.4935 90.0418 43.8053 89.5802C44.1137 89.1186 43.9946 88.4914 43.5355 88.1777C43.0765 87.8677 42.4528 87.9875 42.1409 88.4491C41.8325 88.9107 41.9517 89.5379 42.4107 89.8515ZM42.3827 88.6182C42.6034 88.2905 43.0415 88.2059 43.3673 88.4244C43.6932 88.6429 43.7773 89.0869 43.5566 89.4146C43.3393 89.7423 42.8978 89.8268 42.5719 89.6084C42.246 89.3899 42.1619 88.9459 42.3792 88.6182H42.3827Z" fill="white"/>
<path d="M46.9807 91.7191C46.6724 92.1807 46.7915 92.8079 47.2506 93.1215C47.7096 93.4316 48.3333 93.3118 48.6452 92.8502C48.9571 92.3886 48.8344 91.7614 48.3754 91.4478C47.9163 91.1377 47.2926 91.2575 46.9807 91.7191ZM48.2107 91.6909C48.5366 91.9129 48.6207 92.3534 48.4034 92.6811C48.1862 93.0088 47.7446 93.0933 47.4188 92.8749C47.0929 92.6529 47.0088 92.2124 47.226 91.8847C47.4433 91.557 47.8848 91.4724 48.2107 91.6909Z" fill="white"/>
<path d="M51.8225 94.9889C51.5142 95.4505 51.6333 96.0778 52.0924 96.3914C52.5514 96.705 53.1751 96.5816 53.487 96.12C53.7953 95.6584 53.6762 95.0312 53.2172 94.7176C52.7581 94.404 52.1344 94.5273 51.8225 94.9889ZM53.0525 94.9608C53.3784 95.1827 53.4625 95.6232 53.2452 95.9509C53.0244 96.2786 52.5864 96.3632 52.2606 96.1447C51.9347 95.9227 51.8506 95.4823 52.0678 95.1546C52.2886 94.8269 52.7266 94.7423 53.0525 94.9608Z" fill="white"/>
<path d="M56.6624 98.2555C56.354 98.7171 56.4732 99.3443 56.9322 99.6579C57.3912 99.968 58.015 99.8482 58.3268 99.3866C58.6352 98.925 58.5161 98.2978 58.057 97.9841C57.598 97.6741 56.9742 97.7939 56.6624 98.2555ZM58.0815 99.221C57.8608 99.5487 57.4228 99.6332 57.0969 99.4148C56.771 99.1928 56.6869 98.7523 56.9042 98.4246C57.1249 98.0969 57.5629 98.0123 57.8888 98.2308C58.2147 98.4528 58.2988 98.8933 58.0815 99.221Z" fill="white"/>
<path d="M61.5052 101.525C61.1968 101.987 61.3159 102.614 61.775 102.928C62.234 103.238 62.8577 103.118 63.1696 102.657C63.478 102.195 63.3588 101.568 62.8998 101.254C62.4408 100.944 61.817 101.064 61.5052 101.525ZM62.9243 102.487C62.7071 102.815 62.2656 102.9 61.9397 102.681C61.6138 102.463 61.5297 102.019 61.7469 101.691C61.9677 101.363 62.4057 101.279 62.7316 101.497C63.0575 101.719 63.1416 102.16 62.9243 102.487Z" fill="white"/>
<path d="M66.6138 106.194C67.0729 106.504 67.6966 106.385 68.0085 105.923C68.3168 105.461 68.1977 104.834 67.7387 104.521C67.2796 104.21 66.6559 104.33 66.344 104.792C66.0357 105.253 66.1548 105.881 66.6138 106.194ZM66.5893 104.957C66.8066 104.63 67.2481 104.545 67.574 104.764C67.8998 104.986 67.9839 105.426 67.7667 105.754C67.5459 106.082 67.1079 106.166 66.782 105.948C66.4562 105.726 66.3721 105.285 66.5893 104.957Z" fill="white"/>
<path d="M33.8081 92.1911C34.2671 92.5011 34.8908 92.3813 35.2027 91.9197C35.5111 91.4581 35.3919 90.8309 34.9329 90.5173C34.8418 90.4539 34.7402 90.4081 34.6385 90.3799C34.5755 90.468 34.5124 90.5561 34.4458 90.6442C34.558 90.6547 34.6666 90.6935 34.7647 90.7604C35.0906 90.9789 35.1747 91.4229 34.9574 91.7506C34.7402 92.0783 34.2986 92.1629 33.9728 91.9444C33.8571 91.8669 33.773 91.7612 33.7205 91.6414C33.6574 91.7295 33.5943 91.8176 33.5312 91.9056C33.6013 92.0149 33.6959 92.11 33.8081 92.1875V92.1911Z" fill="white"/>
<path d="M38.648 95.4612C39.1071 95.7713 39.7308 95.6515 40.0427 95.1899C40.351 94.7283 40.2319 94.1011 39.7728 93.7874C39.3138 93.4738 38.6901 93.5972 38.3782 94.0588C38.0698 94.5204 38.189 95.1476 38.648 95.4612ZM38.6235 94.2244C38.8407 93.8967 39.2823 93.8121 39.6081 94.0306C39.934 94.2491 40.0181 94.693 39.8009 95.0207C39.5801 95.3484 39.1421 95.433 38.8162 95.2145C38.4903 94.9925 38.4062 94.5521 38.6235 94.2244Z" fill="white"/>
<path d="M43.2171 97.3287C42.9087 97.7903 43.0279 98.4175 43.4869 98.7311C43.9459 99.0412 44.5697 98.9214 44.8815 98.4598C45.1899 97.9982 45.0707 97.371 44.6117 97.0574C44.1527 96.7473 43.5289 96.8671 43.2171 97.3287ZM44.447 97.3005C44.7729 97.519 44.857 97.963 44.6397 98.2907C44.4225 98.6184 43.981 98.7029 43.6551 98.4845C43.3292 98.2625 43.2451 97.822 43.4624 97.4943C43.6796 97.1666 44.1211 97.0821 44.447 97.304V97.3005Z" fill="white"/>
<path d="M48.0598 100.595C47.7515 101.057 47.8706 101.684 48.3297 101.997C48.7887 102.308 49.4124 102.188 49.7243 101.726C50.0327 101.265 49.9135 100.637 49.4545 100.324C48.9954 100.014 48.3717 100.133 48.0598 100.595ZM49.2898 100.57C49.6157 100.789 49.6998 101.233 49.4825 101.561C49.2618 101.888 48.8237 101.973 48.4979 101.754C48.172 101.532 48.0879 101.088 48.3051 100.764C48.5259 100.436 48.9639 100.352 49.2898 100.57Z" fill="white"/>
<path d="M54.5632 104.993C54.8715 104.531 54.7524 103.904 54.2933 103.59C53.8343 103.28 53.2106 103.4 52.8987 103.862C52.5904 104.323 52.7095 104.95 53.1685 105.264C53.6276 105.574 54.2513 105.454 54.5632 104.993ZM53.144 104.031C53.3648 103.703 53.8028 103.619 54.1287 103.837C54.4545 104.059 54.5386 104.499 54.3214 104.827C54.1006 105.155 53.6591 105.239 53.3367 105.021C53.0108 104.799 52.9267 104.359 53.144 104.031Z" fill="white"/>
<path d="M59.402 108.263C59.7104 107.801 59.5912 107.174 59.1322 106.86C58.6732 106.55 58.0494 106.67 57.7376 107.132C57.4292 107.593 57.5484 108.221 58.0074 108.534C58.4664 108.844 59.0902 108.724 59.402 108.263ZM57.9829 107.297C58.2036 106.97 58.6416 106.885 58.9675 107.103C59.2934 107.325 59.3775 107.766 59.1602 108.094C58.943 108.421 58.5015 108.506 58.1756 108.287C57.8497 108.069 57.7656 107.625 57.9829 107.297Z" fill="white"/>
<path d="M62.5804 110.401C62.272 110.863 62.3911 111.49 62.8502 111.804C63.3092 112.114 63.9329 111.994 64.2448 111.533C64.5532 111.071 64.434 110.444 63.975 110.13C63.516 109.82 62.8922 109.94 62.5804 110.401ZM63.8103 110.373C64.1362 110.592 64.2203 111.036 64.003 111.363C63.7823 111.691 63.3442 111.776 63.0184 111.557C62.6925 111.339 62.6084 110.895 62.8256 110.567C63.0464 110.239 63.4844 110.155 63.8103 110.373Z" fill="white"/>
<path d="M67.4202 113.668C67.1118 114.13 67.231 114.757 67.69 115.07C68.1491 115.381 68.7728 115.261 69.0846 114.799C69.393 114.338 69.2739 113.71 68.8148 113.397C68.3558 113.087 67.7321 113.206 67.4202 113.668ZM68.6501 113.643C68.976 113.865 69.0601 114.306 68.8429 114.634C68.6221 114.961 68.1841 115.046 67.8582 114.827C67.5323 114.605 67.4482 114.165 67.6655 113.837C67.8827 113.509 68.3243 113.425 68.6501 113.643Z" fill="white"/>
<path d="M30.0454 97.8008C30.5045 98.1108 31.1282 97.991 31.4401 97.5294C31.7484 97.0678 31.6293 96.4406 31.1702 96.127C31.0056 96.0143 30.8163 95.9579 30.6306 95.9543C30.5535 96.0636 30.4764 96.1728 30.3958 96.282C30.5956 96.2186 30.8198 96.2433 31.0056 96.3701C31.3314 96.5921 31.4155 97.0326 31.1983 97.3603C30.9775 97.688 30.5395 97.7726 30.2136 97.5541C30.0174 97.4202 29.9053 97.2053 29.9018 96.9797C29.8247 97.089 29.7476 97.1982 29.667 97.3074C29.7371 97.5012 29.8667 97.6739 30.0489 97.7972L30.0454 97.8008Z" fill="white"/>
<path d="M34.8843 101.067C35.3434 101.377 35.9671 101.258 36.279 100.796C36.5873 100.334 36.4682 99.7073 36.0092 99.3937C35.5501 99.08 34.9264 99.2034 34.6145 99.665C34.3062 100.127 34.4253 100.754 34.8843 101.067ZM34.8598 99.8341C35.0806 99.5064 35.5186 99.4218 35.8445 99.6403C36.1704 99.8623 36.2544 100.303 36.0372 100.63C35.8164 100.958 35.3784 101.043 35.0525 100.824C34.7267 100.606 34.6426 100.162 34.8598 99.8341Z" fill="white"/>
<path d="M39.4534 102.935C39.145 103.397 39.2642 104.024 39.7232 104.337C40.1823 104.647 40.806 104.528 41.1178 104.066C41.4262 103.604 41.3071 102.977 40.848 102.664C40.389 102.354 39.7653 102.473 39.4534 102.935ZM40.6833 102.91C41.0092 103.132 41.0933 103.573 40.8726 103.9C40.6553 104.228 40.2138 104.313 39.8879 104.094C39.562 103.872 39.4779 103.432 39.6952 103.104C39.9159 102.776 40.354 102.692 40.6798 102.91H40.6833Z" fill="white"/>
<path d="M44.2962 106.205C43.9878 106.667 44.1069 107.294 44.566 107.607C45.025 107.917 45.6488 107.798 45.9606 107.336C46.269 106.874 46.1498 106.247 45.6908 105.934C45.2318 105.624 44.608 105.743 44.2962 106.205ZM45.5226 106.177C45.8485 106.399 45.9326 106.839 45.7153 107.167C45.4946 107.495 45.0566 107.579 44.7307 107.361C44.4048 107.139 44.3207 106.698 44.538 106.371C44.7587 106.043 45.2002 105.958 45.5226 106.177Z" fill="white"/>
<path d="M50.7995 110.602C51.1078 110.141 50.9887 109.514 50.5297 109.2C50.0706 108.89 49.4469 109.01 49.135 109.471C48.8267 109.933 48.9458 110.56 49.4049 110.874C49.8639 111.184 50.4876 111.064 50.7995 110.602ZM49.5695 110.627C49.2437 110.405 49.1596 109.965 49.3768 109.637C49.5976 109.309 50.0356 109.225 50.3615 109.443C50.6874 109.665 50.7715 110.106 50.5542 110.433C50.3334 110.761 49.8919 110.846 49.5695 110.627Z" fill="white"/>
<path d="M54.2482 114.14C54.7072 114.45 55.331 114.33 55.6428 113.869C55.9512 113.407 55.832 112.78 55.373 112.466C54.914 112.156 54.2902 112.276 53.9784 112.738C53.6665 113.199 53.7892 113.826 54.2482 114.14ZM54.2202 112.907C54.4409 112.579 54.8789 112.495 55.2048 112.713C55.5307 112.931 55.6148 113.375 55.3975 113.703C55.1768 114.031 54.7388 114.115 54.4129 113.897C54.087 113.675 54.0029 113.231 54.2202 112.907Z" fill="white"/>
<path d="M59.0865 117.41C59.5455 117.72 60.1693 117.6 60.4811 117.139C60.7895 116.677 60.6703 116.05 60.2113 115.736C59.7523 115.423 59.1285 115.546 58.8167 116.008C58.5083 116.469 58.6275 117.097 59.0865 117.41ZM59.0585 116.173C59.2792 115.846 59.7172 115.761 60.0431 115.98C60.369 116.198 60.4531 116.642 60.2358 116.97C60.0151 117.297 59.5736 117.382 59.2512 117.164C58.9253 116.942 58.8412 116.501 59.0585 116.173Z" fill="white"/>
<path d="M63.6565 119.278C63.3482 119.739 63.4673 120.367 63.9263 120.68C64.3854 120.99 65.0091 120.87 65.321 120.409C65.6293 119.947 65.5102 119.32 65.0512 119.006C64.5921 118.696 63.9684 118.816 63.6565 119.278ZM64.8865 119.249C65.2123 119.468 65.2964 119.912 65.0792 120.24C64.8584 120.567 64.4204 120.652 64.0945 120.433C63.7687 120.211 63.6846 119.771 63.9018 119.443C64.1191 119.116 64.5606 119.031 64.8865 119.249Z" fill="white"/>
<path d="M68.4993 122.544C68.1909 123.006 68.3101 123.633 68.7691 123.947C69.2281 124.257 69.8519 124.137 70.1637 123.675C70.4721 123.214 70.353 122.587 69.8939 122.273C69.4349 121.963 68.8112 122.083 68.4993 122.544ZM69.7257 122.52C70.0516 122.742 70.1357 123.182 69.9185 123.51C69.7012 123.837 69.2597 123.922 68.9338 123.704C68.6079 123.482 68.5238 123.038 68.7411 122.713C68.9618 122.386 69.3999 122.301 69.7257 122.52Z" fill="white"/>
<path d="M26.2814 103.411C26.7405 103.721 27.3642 103.601 27.676 103.139C27.9844 102.678 27.8653 102.051 27.4062 101.737C27.182 101.585 26.9157 101.536 26.6704 101.582C26.4006 101.969 26.1307 102.361 25.8574 102.752C25.903 103.012 26.0501 103.252 26.2849 103.411H26.2814ZM26.2534 102.174C26.4706 101.846 26.9122 101.762 27.238 101.98C27.5639 102.202 27.648 102.643 27.4308 102.97C27.21 103.298 26.772 103.382 26.4461 103.164C26.1202 102.946 26.0361 102.502 26.2569 102.174H26.2534Z" fill="white"/>
<path d="M31.1207 106.677C31.5797 106.987 32.2034 106.867 32.5153 106.406C32.8237 105.944 32.7045 105.317 32.2455 105.003C31.7865 104.693 31.1627 104.813 30.8509 105.275C30.5425 105.736 30.6616 106.363 31.1207 106.677ZM31.0962 105.44C31.3169 105.112 31.7549 105.028 32.0808 105.25C32.4067 105.468 32.4908 105.912 32.2735 106.24C32.0528 106.568 31.6148 106.652 31.2889 106.434C30.963 106.215 30.8789 105.771 31.0962 105.444V105.44Z" fill="white"/>
<path d="M35.6897 108.545C35.3814 109.006 35.5005 109.633 35.9595 109.947C36.4186 110.257 37.0423 110.137 37.3542 109.676C37.6625 109.214 37.5434 108.587 37.0844 108.273C36.6253 107.963 36.0016 108.083 35.6897 108.545ZM36.9197 108.516C37.2455 108.738 37.3296 109.179 37.1124 109.506C36.8916 109.834 36.4536 109.919 36.1277 109.7C35.8019 109.482 35.7178 109.038 35.935 108.71C36.1558 108.382 36.5938 108.298 36.9197 108.516Z" fill="white"/>
<path d="M40.5325 111.811C40.2241 112.273 40.3433 112.9 40.8023 113.214C41.2614 113.524 41.8851 113.404 42.1969 112.942C42.5053 112.481 42.3862 111.853 41.9271 111.54C41.4681 111.23 40.8444 111.35 40.5325 111.811ZM41.7589 111.786C42.0848 112.008 42.1689 112.449 41.9517 112.777C41.7344 113.104 41.2929 113.189 40.967 112.97C40.6411 112.748 40.557 112.308 40.7743 111.98C40.9915 111.653 41.4331 111.568 41.7589 111.786Z" fill="white"/>
<path d="M47.0368 116.209C47.3452 115.747 47.226 115.12 46.767 114.806C46.3079 114.496 45.6842 114.616 45.3723 115.077C45.064 115.539 45.1831 116.166 45.6422 116.48C46.1012 116.79 46.7249 116.67 47.0368 116.209ZM45.8069 116.237C45.481 116.015 45.3969 115.574 45.6176 115.247C45.8349 114.919 46.2764 114.834 46.6023 115.053C46.9282 115.275 47.0123 115.715 46.795 116.043C46.5743 116.371 46.1362 116.455 45.8104 116.237H45.8069Z" fill="white"/>
<path d="M50.484 119.75C50.943 120.06 51.5667 119.94 51.8786 119.479C52.187 119.017 52.0678 118.39 51.6088 118.076C51.1497 117.766 50.526 117.886 50.2141 118.348C49.9058 118.809 50.0249 119.436 50.484 119.75ZM50.4559 118.513C50.6732 118.185 51.1147 118.101 51.4406 118.319C51.7665 118.541 51.8506 118.982 51.6333 119.309C51.4125 119.637 50.9745 119.722 50.6486 119.503C50.3228 119.285 50.2387 118.841 50.4559 118.513Z" fill="white"/>
<path d="M55.3238 123.02C55.7828 123.33 56.4066 123.21 56.7184 122.748C57.0268 122.287 56.9077 121.66 56.4486 121.346C55.9896 121.032 55.3659 121.156 55.054 121.617C54.7456 122.079 54.8648 122.706 55.3238 123.02ZM55.2958 121.783C55.5165 121.455 55.9545 121.371 56.2804 121.589C56.6063 121.811 56.6904 122.252 56.4731 122.579C56.2524 122.907 55.8109 122.992 55.4885 122.773C55.1626 122.551 55.0785 122.111 55.2958 121.783Z" fill="white"/>
<path d="M60.1666 126.286C60.6256 126.596 61.2493 126.477 61.5612 126.015C61.8696 125.553 61.7504 124.926 61.2914 124.613C60.8324 124.302 60.2086 124.422 59.8968 124.884C59.5884 125.345 59.7075 125.973 60.1666 126.286ZM60.1385 125.049C60.3558 124.722 60.7973 124.637 61.1232 124.856C61.4491 125.078 61.5332 125.518 61.3159 125.846C61.0987 126.174 60.6572 126.258 60.3313 126.036C60.0054 125.818 59.9213 125.374 60.1385 125.046V125.049Z" fill="white"/>
<path d="M64.7356 128.154C64.4273 128.616 64.5464 129.243 65.0054 129.556C65.4645 129.866 66.0882 129.747 66.4001 129.285C66.7084 128.823 66.5893 128.196 66.1303 127.883C65.6712 127.569 65.0475 127.692 64.7356 128.154ZM65.9621 128.126C66.2879 128.348 66.372 128.788 66.1548 129.116C65.9375 129.444 65.496 129.528 65.1701 129.31C64.8443 129.088 64.7602 128.647 64.9774 128.32C65.1982 127.992 65.6362 127.907 65.9621 128.126Z" fill="white"/>
<path d="M71.2389 132.551C71.5473 132.09 71.4282 131.463 70.9691 131.149C70.5101 130.839 69.8864 130.959 69.5745 131.42C69.2661 131.882 69.3853 132.509 69.8443 132.823C70.3034 133.133 70.9271 133.013 71.2389 132.551ZM70.009 132.58C69.6831 132.358 69.599 131.917 69.8163 131.589C70.037 131.262 70.475 131.177 70.8009 131.396C71.1268 131.618 71.2109 132.058 70.9937 132.386C70.7729 132.713 70.3349 132.798 70.009 132.58Z" fill="white"/>
<path d="M74.6871 136.093C74.7396 136.128 74.7922 136.156 74.8448 136.181L74.7607 135.776C74.5434 135.571 74.4803 135.251 74.596 134.979L74.5119 134.574C74.4768 134.609 74.4453 134.651 74.4173 134.694C74.1089 135.155 74.228 135.783 74.6871 136.096V136.093Z" fill="white"/>
<path d="M22.5181 109.017C22.9771 109.327 23.6009 109.207 23.9127 108.745C24.2211 108.284 24.1019 107.657 23.6429 107.343C23.3871 107.167 23.0752 107.128 22.7984 107.213C22.5601 107.565 22.3184 107.921 22.0801 108.273C22.1081 108.566 22.2588 108.841 22.5181 109.017ZM22.4901 107.78C22.7073 107.452 23.1488 107.368 23.4747 107.586C23.8006 107.808 23.8847 108.249 23.6674 108.576C23.4467 108.904 23.0087 108.989 22.6828 108.767C22.3569 108.548 22.2728 108.104 22.4901 107.776V107.78Z" fill="white"/>
<path d="M27.357 112.287C27.816 112.597 28.4398 112.477 28.7516 112.015C29.06 111.554 28.9409 110.926 28.4818 110.613C28.0228 110.299 27.3991 110.423 27.0872 110.884C26.7788 111.346 26.898 111.973 27.357 112.287ZM27.329 111.05C27.5497 110.722 27.9877 110.638 28.3136 110.856C28.6395 111.074 28.7236 111.518 28.5064 111.846C28.2856 112.174 27.8476 112.258 27.5217 112.04C27.1958 111.818 27.1117 111.378 27.329 111.05Z" fill="white"/>
<path d="M31.927 114.154C31.6187 114.616 31.7378 115.243 32.1968 115.557C32.6559 115.867 33.2796 115.747 33.5915 115.285C33.8998 114.824 33.7807 114.197 33.3217 113.883C32.8626 113.573 32.2389 113.693 31.927 114.154ZM33.157 114.126C33.4829 114.345 33.5669 114.789 33.3497 115.116C33.1289 115.444 32.6909 115.529 32.365 115.31C32.0392 115.088 31.9551 114.648 32.1723 114.32C32.3931 113.992 32.8311 113.908 33.157 114.126Z" fill="white"/>
<path d="M36.7698 117.421C36.4614 117.882 36.5806 118.51 37.0396 118.823C37.4987 119.133 38.1224 119.014 38.4343 118.552C38.7426 118.09 38.6235 117.463 38.1644 117.15C37.7054 116.836 37.0817 116.959 36.7698 117.421ZM37.9962 117.393C38.3221 117.611 38.4062 118.055 38.189 118.383C37.9717 118.71 37.5302 118.795 37.2043 118.577C36.8784 118.355 36.7943 117.911 37.0116 117.586C37.2323 117.259 37.6704 117.174 37.9962 117.393Z" fill="white"/>
<path d="M43.0033 120.416C42.5443 120.102 41.9205 120.226 41.6087 120.687C41.3003 121.149 41.4194 121.776 41.8785 122.09C42.3375 122.4 42.9613 122.28 43.2731 121.818C43.5815 121.357 43.4623 120.729 43.0033 120.416ZM43.0278 121.653C42.8071 121.98 42.3691 122.065 42.0432 121.846C41.7173 121.624 41.6332 121.184 41.8505 120.856C42.0677 120.529 42.5092 120.444 42.8351 120.663C43.161 120.885 43.2451 121.325 43.0278 121.653Z" fill="white"/>
<path d="M46.7213 125.36C47.1803 125.67 47.804 125.55 48.1159 125.088C48.4243 124.627 48.3051 123.999 47.8461 123.686C47.387 123.376 46.7633 123.496 46.4514 123.957C46.1431 124.419 46.2622 125.046 46.7213 125.36ZM46.6932 124.123C46.914 123.795 47.352 123.71 47.6779 123.929C48.0038 124.151 48.0879 124.591 47.8706 124.919C47.6498 125.247 47.2118 125.331 46.886 125.113C46.5601 124.894 46.476 124.45 46.6932 124.123Z" fill="white"/>
<path d="M51.5601 128.626C52.0192 128.936 52.6429 128.816 52.9548 128.355C53.2666 127.893 53.144 127.266 52.6849 126.952C52.2259 126.642 51.6022 126.762 51.2903 127.224C50.982 127.685 51.1011 128.313 51.5601 128.626ZM51.5356 127.389C51.7529 127.062 52.1944 126.977 52.5203 127.199C52.8461 127.418 52.9302 127.862 52.713 128.189C52.4922 128.517 52.0542 128.601 51.7283 128.383C51.4024 128.165 51.3183 127.721 51.5391 127.393L51.5356 127.389Z" fill="white"/>
<path d="M56.4029 131.896C56.8619 132.206 57.4857 132.086 57.7975 131.625C58.1059 131.163 57.9868 130.536 57.5277 130.222C57.0687 129.912 56.445 130.032 56.1331 130.494C55.8247 130.955 55.9439 131.582 56.4029 131.896ZM56.3749 130.659C56.5921 130.331 57.0336 130.247 57.3595 130.465C57.6854 130.687 57.7695 131.128 57.5523 131.455C57.335 131.783 56.8935 131.868 56.5676 131.649C56.2417 131.431 56.1576 130.987 56.3749 130.659Z" fill="white"/>
<path d="M62.6364 134.891C62.9448 134.43 62.8256 133.802 62.3666 133.489C61.9076 133.175 61.2838 133.299 60.972 133.76C60.6636 134.222 60.7827 134.849 61.2418 135.163C61.7008 135.473 62.3245 135.353 62.6364 134.891ZM61.4065 134.919C61.0806 134.697 60.9965 134.257 61.2137 133.929C61.4345 133.602 61.876 133.517 62.1984 133.736C62.5243 133.954 62.6084 134.398 62.3911 134.726C62.1704 135.053 61.7323 135.138 61.4065 134.919Z" fill="white"/>
<path d="M67.4762 138.158C67.7881 137.696 67.6655 137.069 67.2064 136.755C66.7474 136.445 66.1237 136.565 65.8118 137.026C65.5034 137.488 65.6226 138.115 66.0816 138.429C66.5406 138.739 67.1644 138.619 67.4762 138.158ZM66.2463 138.186C65.9204 137.964 65.8363 137.523 66.0536 137.196C66.2743 136.868 66.7124 136.783 67.0382 137.002C67.3641 137.224 67.4482 137.664 67.231 137.992C67.0102 138.32 66.5687 138.404 66.2463 138.186Z" fill="white"/>
<path d="M72.3151 141.428C72.6235 140.966 72.5043 140.339 72.0453 140.025C71.5863 139.715 70.9625 139.835 70.6507 140.296C70.3423 140.758 70.4614 141.385 70.9205 141.699C71.3795 142.009 72.0032 141.889 72.3151 141.428ZM71.0887 141.456C70.7628 141.237 70.6787 140.793 70.896 140.466C71.1167 140.138 71.5547 140.053 71.8806 140.272C72.2065 140.494 72.2906 140.934 72.0733 141.262C71.8561 141.59 71.4146 141.674 71.0887 141.456Z" fill="white"/>
<path d="M75.4934 143.567C75.1851 144.028 75.3042 144.655 75.7633 144.969C76.0506 145.163 76.401 145.187 76.6989 145.068L76.6358 144.772C76.415 144.881 76.1452 144.87 75.9244 144.722C75.5986 144.5 75.5145 144.06 75.7317 143.732C75.8754 143.517 76.1137 143.408 76.3519 143.419L76.2889 143.123C75.977 143.133 75.6757 143.288 75.4864 143.567H75.4934Z" fill="white"/>
<path d="M18.7552 114.626C19.2143 114.937 19.838 114.817 20.1499 114.355C20.4582 113.894 20.3391 113.266 19.88 112.953C19.6312 112.784 19.3334 112.741 19.0601 112.815C18.8148 113.189 18.5695 113.566 18.3242 113.939C18.3628 114.211 18.5134 114.461 18.7552 114.626ZM18.7272 113.39C18.9444 113.062 19.386 112.977 19.7118 113.196C20.0377 113.418 20.1218 113.858 19.9046 114.186C19.6873 114.514 19.2458 114.598 18.9199 114.38C18.594 114.161 18.5099 113.717 18.7272 113.39Z" fill="white"/>
<path d="M23.5943 117.893C24.0533 118.203 24.6771 118.083 24.9889 117.622C25.2973 117.16 25.1782 116.533 24.7191 116.219C24.2601 115.909 23.6364 116.029 23.3245 116.491C23.0161 116.952 23.1353 117.579 23.5943 117.893ZM23.5663 116.66C23.787 116.332 24.225 116.247 24.5509 116.466C24.8768 116.684 24.9609 117.128 24.7402 117.456C24.5229 117.784 24.0814 117.868 23.7555 117.65C23.4296 117.428 23.3455 116.987 23.5628 116.66H23.5663Z" fill="white"/>
<path d="M28.1634 119.76C27.855 120.222 27.9741 120.849 28.4332 121.163C28.8922 121.473 29.5159 121.353 29.8278 120.891C30.1397 120.43 30.017 119.803 29.558 119.489C29.099 119.179 28.4752 119.299 28.1634 119.76ZM29.3933 119.732C29.7192 119.954 29.8033 120.395 29.586 120.722C29.3653 121.05 28.9273 121.135 28.6014 120.916C28.2755 120.694 28.1914 120.254 28.4086 119.926C28.6294 119.598 29.0674 119.514 29.3933 119.732Z" fill="white"/>
<path d="M33.0061 123.03C32.6978 123.492 32.8169 124.119 33.2759 124.433C33.735 124.743 34.3587 124.623 34.6706 124.161C34.9789 123.7 34.8598 123.073 34.4008 122.759C33.9417 122.449 33.318 122.569 33.0061 123.03ZM34.2326 123.002C34.5585 123.224 34.6426 123.665 34.4253 123.992C34.208 124.32 33.7665 124.405 33.4406 124.186C33.1148 123.964 33.0307 123.524 33.2479 123.196C33.4687 122.868 33.9067 122.784 34.2326 123.002Z" fill="white"/>
<path d="M39.5094 127.428C39.8178 126.966 39.6987 126.339 39.2396 126.026C38.7806 125.716 38.1569 125.835 37.845 126.297C37.5366 126.759 37.6558 127.386 38.1148 127.699C38.5739 128.009 39.1976 127.89 39.5094 127.428ZM38.2795 127.453C37.9536 127.231 37.8695 126.79 38.0868 126.463C38.304 126.135 38.7456 126.05 39.0714 126.269C39.3973 126.491 39.4814 126.931 39.2642 127.259C39.0434 127.587 38.6054 127.671 38.2795 127.453Z" fill="white"/>
<path d="M44.3483 130.694C44.6567 130.233 44.5375 129.606 44.0785 129.292C43.6195 128.982 42.9957 129.102 42.6839 129.563C42.3755 130.025 42.4946 130.652 42.9537 130.966C43.4127 131.276 44.0365 131.156 44.3483 130.694ZM43.1219 130.723C42.796 130.501 42.7119 130.057 42.9292 129.732C43.1499 129.405 43.5879 129.32 43.9138 129.539C44.2397 129.761 44.3238 130.201 44.1065 130.529C43.8858 130.857 43.4478 130.941 43.1219 130.723Z" fill="white"/>
<path d="M49.1911 133.965C49.4995 133.503 49.3803 132.876 48.9213 132.562C48.4622 132.249 47.8385 132.372 47.5266 132.833C47.2183 133.295 47.3374 133.922 47.7965 134.236C48.2555 134.546 48.8792 134.426 49.1911 133.965ZM47.9611 133.989C47.6353 133.767 47.5512 133.327 47.7684 132.999C47.9892 132.671 48.4272 132.587 48.7531 132.805C49.079 133.024 49.1631 133.468 48.9458 133.795C48.725 134.123 48.287 134.208 47.9611 133.989Z" fill="white"/>
<path d="M54.0309 137.231C54.3393 136.769 54.2202 136.142 53.7611 135.828C53.3021 135.518 52.6784 135.638 52.3665 136.1C52.0581 136.561 52.1773 137.189 52.6363 137.502C53.0953 137.812 53.7191 137.692 54.0309 137.231ZM52.8045 137.259C52.4786 137.037 52.3945 136.597 52.6118 136.269C52.8325 135.941 53.2705 135.857 53.5964 136.075C53.9223 136.294 54.0064 136.737 53.7892 137.065C53.5684 137.393 53.1304 137.477 52.8045 137.259Z" fill="white"/>
<path d="M58.8737 140.501C59.1821 140.039 59.0629 139.412 58.6039 139.098C58.1449 138.788 57.5211 138.908 57.2093 139.37C56.9009 139.831 57.02 140.459 57.4791 140.772C57.9381 141.082 58.5618 140.962 58.8737 140.501ZM57.6438 140.526C57.3179 140.304 57.2338 139.86 57.4545 139.535C57.6718 139.208 58.1133 139.123 58.4392 139.342C58.7651 139.564 58.8492 140.004 58.6319 140.332C58.4112 140.659 57.9732 140.744 57.6473 140.526H57.6438Z" fill="white"/>
<path d="M63.7126 143.767C64.0209 143.306 63.9018 142.678 63.4428 142.365C62.9837 142.051 62.36 142.175 62.0481 142.636C61.7398 143.098 61.8589 143.725 62.3179 144.039C62.777 144.349 63.4007 144.229 63.7126 143.767ZM62.4826 143.795C62.1568 143.573 62.0727 143.133 62.2899 142.805C62.5107 142.478 62.9487 142.393 63.2746 142.612C63.6004 142.833 63.6845 143.274 63.4673 143.602C63.2465 143.929 62.8085 144.014 62.4826 143.795Z" fill="white"/>
<path d="M68.552 147.037C68.8604 146.576 68.7412 145.948 68.2822 145.635C67.8231 145.325 67.1994 145.444 66.8876 145.906C66.5757 146.368 66.6983 146.995 67.1574 147.309C67.6164 147.619 68.2401 147.499 68.552 147.037ZM67.3256 147.062C66.9997 146.843 66.9156 146.399 67.1328 146.072C67.3536 145.744 67.7951 145.659 68.1175 145.878C68.4434 146.1 68.5275 146.54 68.3102 146.868C68.0895 147.196 67.6515 147.28 67.3256 147.062Z" fill="white"/>
<path d="M73.3942 150.304C73.7026 149.842 73.5834 149.215 73.1244 148.901C72.6654 148.591 72.0416 148.711 71.7298 149.173C71.4214 149.634 71.5405 150.262 71.9996 150.575C72.4586 150.885 73.0824 150.765 73.3942 150.304ZM72.1643 150.332C71.8384 150.114 71.7543 149.67 71.9715 149.342C72.1923 149.014 72.6303 148.93 72.9562 149.148C73.2821 149.366 73.3662 149.81 73.1454 150.138C72.9282 150.466 72.4866 150.55 72.1608 150.332H72.1643Z" fill="white"/>
<path d="M77.9633 152.171C77.5042 151.858 76.8805 151.981 76.5686 152.443C76.2603 152.904 76.3794 153.531 76.8384 153.845C77.2975 154.155 77.9212 154.035 78.2331 153.574C78.3172 153.45 78.3662 153.316 78.3908 153.179L78.2401 152.453C78.17 152.344 78.0754 152.249 77.9633 152.171ZM77.9913 153.408C77.7705 153.736 77.3325 153.82 77.0066 153.602C76.6808 153.383 76.5967 152.939 76.8139 152.612C77.0312 152.284 77.4727 152.199 77.7986 152.418C78.1244 152.64 78.2086 153.08 77.9913 153.408Z" fill="white"/>
<path d="M14.9911 120.233C15.4502 120.543 16.0739 120.423 16.3858 119.961C16.6941 119.5 16.575 118.873 16.116 118.559C15.9162 118.425 15.6885 118.369 15.4642 118.39C15.3871 118.513 15.31 118.636 15.2329 118.76C15.4537 118.647 15.7305 118.654 15.9513 118.806C16.2772 119.024 16.3613 119.468 16.144 119.796C15.9267 120.123 15.4852 120.208 15.1593 119.99C14.9526 119.849 14.8405 119.616 14.8475 119.38C14.7704 119.503 14.6933 119.627 14.6162 119.75C14.6863 119.94 14.8159 120.113 14.9947 120.236L14.9911 120.233Z" fill="white"/>
<path d="M19.8306 123.503C20.2897 123.813 20.9134 123.693 21.2253 123.231C21.5371 122.77 21.4145 122.142 20.9555 121.829C20.4964 121.519 19.8727 121.639 19.5608 122.1C19.2525 122.562 19.3716 123.189 19.8306 123.503ZM19.8061 122.266C20.0234 121.938 20.4649 121.854 20.7908 122.072C21.1166 122.29 21.2007 122.734 20.9835 123.062C20.7627 123.39 20.3247 123.474 19.9988 123.256C19.673 123.037 19.5889 122.594 19.8096 122.266H19.8061Z" fill="white"/>
<path d="M24.3997 125.37C24.0913 125.832 24.2105 126.459 24.6695 126.773C25.1285 127.083 25.7523 126.963 26.0641 126.501C26.3725 126.04 26.2534 125.412 25.7943 125.099C25.3353 124.789 24.7116 124.909 24.3997 125.37ZM25.6296 125.342C25.9555 125.564 26.0396 126.004 25.8224 126.332C25.6016 126.66 25.1601 126.744 24.8377 126.526C24.5118 126.304 24.4277 125.864 24.645 125.536C24.8657 125.208 25.3037 125.124 25.6296 125.342Z" fill="white"/>
<path d="M30.9075 129.768C31.2158 129.306 31.0967 128.679 30.6377 128.365C30.1786 128.052 29.5549 128.175 29.243 128.637C28.9312 129.098 29.0538 129.725 29.5128 130.039C29.9719 130.349 30.5956 130.229 30.9075 129.768ZM29.6775 129.792C29.3517 129.57 29.2676 129.13 29.4848 128.802C29.7056 128.475 30.1436 128.39 30.4695 128.608C30.7953 128.83 30.8794 129.271 30.6622 129.599C30.4414 129.926 30.0034 130.011 29.6775 129.792Z" fill="white"/>
<path d="M35.7458 133.034C36.0541 132.573 35.935 131.945 35.476 131.632C35.0169 131.322 34.3932 131.442 34.0813 131.903C33.773 132.365 33.8921 132.992 34.3511 133.306C34.8102 133.616 35.4339 133.496 35.7458 133.034ZM34.5158 133.062C34.19 132.844 34.1059 132.4 34.3231 132.072C34.5439 131.745 34.9819 131.66 35.3078 131.879C35.6336 132.1 35.7177 132.541 35.5005 132.869C35.2797 133.196 34.8417 133.281 34.5158 133.059V133.062Z" fill="white"/>
<path d="M40.5856 136.304C40.894 135.842 40.7748 135.215 40.3158 134.902C39.8568 134.592 39.233 134.711 38.9212 135.173C38.6128 135.635 38.732 136.262 39.191 136.575C39.65 136.885 40.2738 136.766 40.5856 136.304ZM39.3592 136.329C39.0333 136.11 38.9492 135.666 39.1665 135.339C39.3837 135.011 39.8252 134.926 40.1511 135.145C40.477 135.367 40.5611 135.807 40.3438 136.135C40.1231 136.463 39.6851 136.547 39.3592 136.329Z" fill="white"/>
<path d="M45.428 139.571C45.7398 139.109 45.6172 138.482 45.1582 138.168C44.6991 137.858 44.0754 137.978 43.7635 138.44C43.4517 138.901 43.5743 139.528 44.0334 139.842C44.4924 140.152 45.1161 140.032 45.428 139.571ZM44.198 139.599C43.8722 139.377 43.7881 138.936 44.0053 138.609C44.2261 138.281 44.6641 138.196 44.99 138.415C45.3158 138.637 45.3999 139.077 45.1827 139.405C44.9619 139.733 44.5239 139.817 44.198 139.599Z" fill="white"/>
<path d="M50.2673 142.841C50.5791 142.379 50.4565 141.752 49.9974 141.438C49.5384 141.128 48.9147 141.248 48.6028 141.71C48.2945 142.171 48.4136 142.798 48.8726 143.112C49.3317 143.422 49.9554 143.302 50.2673 142.841ZM49.0408 142.865C48.7149 142.643 48.6308 142.203 48.8481 141.875C49.0689 141.547 49.5069 141.463 49.8328 141.681C50.1586 141.903 50.2427 142.344 50.0255 142.672C49.8047 142.999 49.3667 143.084 49.0408 142.865Z" fill="white"/>
<path d="M55.1096 146.107C55.4215 145.645 55.2988 145.018 54.8398 144.705C54.3808 144.395 53.757 144.514 53.4452 144.976C53.1333 145.438 53.256 146.065 53.715 146.378C54.174 146.688 54.7978 146.569 55.1096 146.107ZM53.8797 146.135C53.5538 145.913 53.4697 145.473 53.687 145.145C53.9077 144.817 54.3457 144.733 54.6716 144.951C54.9975 145.173 55.0816 145.614 54.8643 145.941C54.6471 146.269 54.2056 146.354 53.8797 146.135Z" fill="white"/>
<path d="M59.9489 149.377C60.2573 148.915 60.1381 148.288 59.6791 147.975C59.22 147.665 58.5963 147.784 58.2845 148.246C57.9761 148.708 58.0952 149.335 58.5543 149.648C59.0133 149.958 59.637 149.839 59.9489 149.377ZM58.719 149.402C58.3931 149.18 58.309 148.739 58.5297 148.412C58.747 148.084 59.1885 147.999 59.5144 148.218C59.8403 148.44 59.9244 148.88 59.7071 149.208C59.4864 149.536 59.0483 149.62 58.7225 149.402H58.719Z" fill="white"/>
<path d="M64.7878 152.643C65.0961 152.182 64.977 151.555 64.518 151.241C64.0589 150.931 63.4352 151.051 63.1233 151.512C62.815 151.974 62.9341 152.601 63.3931 152.915C63.8522 153.225 64.4759 153.105 64.7878 152.643ZM63.5613 152.672C63.2355 152.45 63.1514 152.006 63.3686 151.681C63.5894 151.354 64.0309 151.269 64.3533 151.488C64.6791 151.706 64.7632 152.15 64.546 152.478C64.3252 152.805 63.8872 152.89 63.5613 152.672Z" fill="white"/>
<path d="M69.3607 154.511C68.9017 154.197 68.278 154.321 67.9661 154.782C67.6577 155.244 67.7769 155.871 68.2359 156.185C68.695 156.495 69.3187 156.375 69.6305 155.914C69.9389 155.452 69.8198 154.825 69.3607 154.511ZM69.3853 155.748C69.1645 156.076 68.7265 156.16 68.4006 155.942C68.0747 155.72 67.9906 155.279 68.2079 154.952C68.4286 154.624 68.8666 154.539 69.1925 154.758C69.5184 154.976 69.6025 155.42 69.3853 155.748Z" fill="white"/>
<path d="M74.2006 157.781C73.7415 157.471 73.1178 157.591 72.8059 158.052C72.4976 158.514 72.6167 159.141 73.0758 159.455C73.5348 159.765 74.1585 159.645 74.4704 159.183C74.7822 158.722 74.6596 158.095 74.2006 157.781ZM74.2286 159.014C74.0113 159.342 73.5698 159.427 73.2439 159.208C72.9181 158.986 72.834 158.546 73.0512 158.218C73.2685 157.89 73.71 157.806 74.0359 158.024C74.3618 158.243 74.4459 158.687 74.2286 159.014Z" fill="white"/>
<path d="M11.2282 125.842C11.6873 126.152 12.311 126.033 12.6229 125.571C12.9312 125.109 12.8121 124.482 12.353 124.169C12.2409 124.091 12.1183 124.042 11.9956 124.017C11.9396 124.109 11.8835 124.2 11.8309 124.292C11.9536 124.299 12.0797 124.338 12.1919 124.412C12.5177 124.63 12.6018 125.074 12.3811 125.402C12.1638 125.73 11.7223 125.814 11.3964 125.596C11.3088 125.536 11.2387 125.458 11.1862 125.374C11.1301 125.465 11.0775 125.557 11.0215 125.652C11.0811 125.723 11.1511 125.79 11.2317 125.842H11.2282Z" fill="white"/>
<path d="M17.4616 128.838C17.77 128.376 17.6508 127.749 17.1918 127.435C16.7327 127.122 16.109 127.245 15.7972 127.706C15.4888 128.168 15.6079 128.795 16.067 129.109C16.526 129.419 17.1497 129.299 17.4616 128.838ZM16.2317 128.866C15.9058 128.644 15.8217 128.203 16.0424 127.876C16.2632 127.548 16.7012 127.463 17.0271 127.682C17.353 127.9 17.4371 128.344 17.2198 128.672C17.0026 129 16.561 129.084 16.2352 128.866H16.2317Z" fill="white"/>
<path d="M22.3005 132.108C22.6088 131.646 22.4897 131.019 22.0306 130.705C21.5716 130.395 20.9479 130.515 20.636 130.976C20.3277 131.438 20.4468 132.065 20.9058 132.379C21.3649 132.689 21.9886 132.569 22.3005 132.108ZM21.0705 132.136C20.7446 131.914 20.6605 131.473 20.8778 131.146C21.0986 130.818 21.5366 130.733 21.8625 130.952C22.1883 131.17 22.2724 131.614 22.0552 131.942C21.8344 132.27 21.3964 132.354 21.0705 132.136Z" fill="white"/>
<path d="M27.1438 135.374C27.4522 134.912 27.333 134.285 26.874 133.971C26.415 133.661 25.7912 133.781 25.4794 134.243C25.1675 134.704 25.2901 135.332 25.7492 135.645C26.2082 135.955 26.8319 135.835 27.1438 135.374ZM25.9139 135.402C25.588 135.184 25.5039 134.74 25.7211 134.412C25.9419 134.084 26.3799 134 26.7058 134.218C27.0317 134.437 27.1158 134.881 26.8985 135.208C26.6778 135.536 26.2397 135.621 25.9139 135.402Z" fill="white"/>
<path d="M31.9831 138.644C32.2914 138.182 32.1723 137.555 31.7133 137.242C31.2542 136.928 30.6305 137.051 30.3186 137.513C30.0103 137.974 30.1294 138.602 30.5884 138.915C31.0475 139.229 31.6712 139.106 31.9831 138.644ZM30.7531 138.669C30.4273 138.45 30.3432 138.006 30.5604 137.678C30.7812 137.351 31.2192 137.266 31.5451 137.485C31.871 137.707 31.955 138.147 31.7378 138.475C31.517 138.803 31.0755 138.887 30.7531 138.665V138.669Z" fill="white"/>
<path d="M36.8219 141.91C37.1303 141.449 37.0112 140.821 36.5521 140.508C36.0931 140.198 35.4694 140.318 35.1575 140.779C34.8491 141.241 34.9683 141.868 35.4273 142.182C35.8864 142.492 36.5101 142.372 36.8219 141.91ZM35.5955 141.938C35.2696 141.72 35.1855 141.276 35.4028 140.948C35.62 140.621 36.0616 140.536 36.3874 140.754C36.7133 140.976 36.7974 141.417 36.5802 141.745C36.3594 142.072 35.9214 142.157 35.5955 141.938Z" fill="white"/>
<path d="M41.6647 145.18C41.9731 144.719 41.8539 144.091 41.3949 143.778C40.9359 143.468 40.3121 143.588 40.0003 144.049C39.6919 144.511 39.8111 145.138 40.2701 145.452C40.7291 145.762 41.3529 145.642 41.6647 145.18ZM40.4348 145.205C40.1089 144.986 40.0248 144.542 40.2421 144.215C40.4628 143.887 40.9008 143.803 41.2267 144.025C41.5526 144.243 41.6367 144.687 41.4194 145.015C41.1987 145.342 40.7607 145.427 40.4348 145.208V145.205Z" fill="white"/>
<path d="M46.5036 148.447C46.8119 147.985 46.6928 147.358 46.2338 147.044C45.7747 146.731 45.151 146.854 44.8391 147.316C44.5308 147.777 44.6499 148.404 45.109 148.718C45.568 149.028 46.1917 148.908 46.5036 148.447ZM45.2737 148.475C44.9478 148.256 44.8637 147.812 45.0809 147.485C45.3017 147.157 45.7397 147.072 46.0656 147.291C46.3915 147.513 46.4756 147.953 46.2583 148.281C46.0375 148.609 45.5995 148.693 45.2737 148.475Z" fill="white"/>
<path d="M51.3464 151.717C51.6547 151.255 51.5356 150.628 51.0765 150.314C50.6175 150.004 49.9938 150.124 49.6819 150.586C49.3736 151.047 49.4927 151.674 49.9517 151.988C50.4108 152.298 51.0345 152.178 51.3464 151.717ZM50.1164 151.741C49.7905 151.519 49.7064 151.079 49.9237 150.751C50.1445 150.423 50.5825 150.339 50.9083 150.557C51.2342 150.776 51.3183 151.22 51.1011 151.548C50.8838 151.875 50.4423 151.96 50.1164 151.741Z" fill="white"/>
<path d="M56.1852 154.983C56.4936 154.522 56.3744 153.894 55.9154 153.581C55.4564 153.271 54.8326 153.391 54.5208 153.852C54.2124 154.314 54.3316 154.941 54.7906 155.255C55.2496 155.568 55.8734 155.445 56.1852 154.983ZM54.9553 155.011C54.6294 154.793 54.5453 154.349 54.7626 154.021C54.9798 153.694 55.4213 153.609 55.7472 153.827C56.0731 154.049 56.1572 154.49 55.9399 154.818C55.7192 155.145 55.2812 155.23 54.9553 155.008V155.011Z" fill="white"/>
<path d="M60.7553 156.851C60.2962 156.541 59.6725 156.661 59.3606 157.122C59.0523 157.584 59.1714 158.211 59.6304 158.525C60.0895 158.835 60.7132 158.715 61.0251 158.253C61.3334 157.792 61.2143 157.164 60.7553 156.851ZM60.7833 158.088C60.5625 158.415 60.1245 158.5 59.7986 158.281C59.4728 158.063 59.3887 157.619 59.6059 157.291C59.8267 156.964 60.2647 156.879 60.5906 157.098C60.9164 157.319 61.0005 157.76 60.7833 158.088Z" fill="white"/>
<path d="M65.598 160.121C65.139 159.811 64.5153 159.931 64.2034 160.392C63.895 160.854 64.0142 161.481 64.4732 161.795C64.9323 162.105 65.556 161.985 65.8678 161.523C66.1762 161.062 66.0571 160.434 65.598 160.121ZM65.6226 161.354C65.4018 161.682 64.9638 161.766 64.6379 161.548C64.312 161.326 64.2279 160.885 64.4487 160.558C64.6659 160.23 65.1075 160.146 65.4333 160.368C65.7592 160.59 65.8433 161.03 65.6261 161.358L65.6226 161.354Z" fill="white"/>
<path d="M69.0811 163.606C69.5015 163.514 69.9185 163.422 70.3285 163.324C69.901 163.105 69.3754 163.222 69.0811 163.606Z" fill="white"/>
<path d="M8.8558 131.177C9.15715 130.726 9.05203 130.12 8.62102 129.803C8.57197 129.891 8.52291 129.976 8.47385 130.064C8.75418 130.296 8.81725 130.705 8.61051 131.015C8.4283 131.286 8.0884 131.392 7.79406 131.294C7.745 131.382 7.69945 131.47 7.65039 131.554C8.07789 131.727 8.58598 131.582 8.8558 131.181V131.177Z" fill="white"/>
<path d="M13.6979 134.447C14.0098 133.986 13.8871 133.358 13.4281 133.045C12.9691 132.735 12.3453 132.854 12.0335 133.316C11.7251 133.778 11.8443 134.405 12.3033 134.718C12.7623 135.029 13.3861 134.909 13.6979 134.447ZM12.468 134.475C12.1421 134.253 12.058 133.813 12.2753 133.485C12.496 133.157 12.934 133.073 13.2599 133.291C13.5858 133.51 13.6699 133.954 13.4526 134.282C13.2354 134.609 12.7939 134.694 12.468 134.475Z" fill="white"/>
<path d="M18.5378 137.714C18.8461 137.252 18.727 136.625 18.268 136.311C17.8089 136.001 17.1852 136.121 16.8733 136.583C16.565 137.044 16.6841 137.671 17.1431 137.985C17.6022 138.299 18.2259 138.175 18.5378 137.714ZM17.3113 137.742C16.9855 137.52 16.9014 137.079 17.1186 136.752C17.3359 136.424 17.7774 136.339 18.1033 136.558C18.4291 136.78 18.5132 137.22 18.296 137.548C18.0752 137.876 17.6372 137.96 17.3113 137.742Z" fill="white"/>
<path d="M23.3805 140.984C23.6889 140.522 23.5698 139.895 23.1107 139.581C22.6517 139.268 22.028 139.391 21.7161 139.852C21.4077 140.314 21.5269 140.941 21.9859 141.255C22.4449 141.565 23.0687 141.445 23.3805 140.984ZM22.1506 141.012C21.8247 140.79 21.7406 140.349 21.9579 140.022C22.1751 139.694 22.6166 139.609 22.9425 139.828C23.2684 140.05 23.3525 140.49 23.1353 140.818C22.918 141.146 22.4765 141.23 22.1506 141.012Z" fill="white"/>
<path d="M28.2194 144.25C28.5278 143.788 28.4086 143.161 27.9496 142.848C27.4906 142.538 26.8668 142.657 26.555 143.119C26.2466 143.581 26.3657 144.208 26.8248 144.521C27.2838 144.835 27.9075 144.712 28.2194 144.25ZM26.9895 144.278C26.6636 144.056 26.5795 143.616 26.7967 143.288C27.0175 142.96 27.4555 142.876 27.7814 143.098C28.1073 143.32 28.1914 143.76 27.9741 144.088C27.7534 144.416 27.3154 144.5 26.9895 144.282V144.278Z" fill="white"/>
<path d="M33.0583 147.52C33.3666 147.059 33.2475 146.431 32.7885 146.118C32.3294 145.808 31.7057 145.927 31.3938 146.389C31.0855 146.851 31.2046 147.478 31.6636 147.791C32.1227 148.102 32.7464 147.982 33.0583 147.52ZM31.8318 147.548C31.506 147.33 31.4219 146.886 31.6391 146.558C31.8564 146.23 32.2979 146.146 32.6238 146.364C32.9497 146.583 33.0337 147.027 32.8165 147.354C32.5992 147.682 32.1577 147.767 31.8318 147.545V147.548Z" fill="white"/>
<path d="M37.6312 149.388C37.1722 149.078 36.5485 149.197 36.2366 149.659C35.9282 150.121 36.0474 150.748 36.5064 151.061C36.9655 151.372 37.5892 151.252 37.9011 150.79C38.2094 150.329 38.0903 149.701 37.6312 149.388ZM37.6558 150.621C37.4385 150.949 36.997 151.033 36.6711 150.815C36.3452 150.593 36.2611 150.152 36.4784 149.825C36.6991 149.497 37.1372 149.412 37.463 149.631C37.7889 149.849 37.873 150.293 37.6523 150.621H37.6558Z" fill="white"/>
<path d="M42.4701 152.654C42.0111 152.344 41.3873 152.464 41.0755 152.925C40.7671 153.387 40.8863 154.014 41.3453 154.328C41.8043 154.638 42.4281 154.518 42.7399 154.056C43.0483 153.595 42.9291 152.968 42.4701 152.654ZM42.4981 153.891C42.2774 154.219 41.8394 154.303 41.5135 154.085C41.1876 153.863 41.1035 153.422 41.3208 153.095C41.5415 152.767 41.9795 152.682 42.3054 152.901C42.6313 153.119 42.7154 153.563 42.4981 153.891Z" fill="white"/>
<path d="M47.3099 155.924C46.8509 155.614 46.2272 155.734 45.9153 156.195C45.607 156.657 45.7261 157.284 46.1851 157.598C46.6442 157.908 47.2679 157.788 47.5798 157.327C47.8881 156.865 47.769 156.238 47.3099 155.924ZM47.338 157.157C47.1207 157.485 46.6792 157.57 46.3533 157.351C46.0274 157.129 45.9433 156.685 46.1606 156.361C46.3814 156.033 46.8194 155.949 47.1453 156.167C47.4711 156.386 47.5552 156.83 47.338 157.157Z" fill="white"/>
<path d="M52.1523 159.191C51.6933 158.877 51.0695 159 50.7577 159.462C50.4458 159.923 50.5685 160.551 51.0275 160.864C51.4865 161.178 52.1103 161.055 52.4221 160.593C52.7305 160.131 52.6113 159.504 52.1523 159.191ZM52.1768 160.427C51.9561 160.755 51.5181 160.84 51.1922 160.621C50.8663 160.399 50.7822 159.959 50.9995 159.631C51.2202 159.303 51.6582 159.219 51.9841 159.437C52.31 159.659 52.3941 160.1 52.1768 160.427Z" fill="white"/>
<path d="M56.9912 162.46C56.5321 162.15 55.9084 162.27 55.5965 162.732C55.2847 163.193 55.4073 163.821 55.8664 164.134C56.3254 164.444 56.9491 164.324 57.261 163.863C57.5729 163.401 57.4502 162.774 56.9912 162.46ZM57.0192 163.694C56.7984 164.021 56.3604 164.106 56.0346 163.888C55.7087 163.669 55.6246 163.225 55.8418 162.897C56.0626 162.57 56.5006 162.485 56.8265 162.704C57.1524 162.926 57.2365 163.366 57.0192 163.694Z" fill="white"/>
<path d="M5.09248 136.787C5.23265 136.579 5.28521 136.336 5.25718 136.107C5.09248 136.438 4.92779 136.769 4.7666 137.094C4.89275 137.02 5.00488 136.917 5.09248 136.787Z" fill="white"/>
<path d="M9.93523 140.053C10.2436 139.592 10.1245 138.964 9.66542 138.651C9.20638 138.341 8.58265 138.461 8.27078 138.922C7.96242 139.384 8.08156 140.011 8.5406 140.325C8.99963 140.635 9.62337 140.515 9.93523 140.053ZM8.70529 140.082C8.37941 139.863 8.29531 139.419 8.51257 139.091C8.73333 138.764 9.17134 138.679 9.49722 138.901C9.8231 139.12 9.9072 139.564 9.68994 139.891C9.47269 140.219 9.03117 140.304 8.70529 140.085V140.082Z" fill="white"/>
<path d="M14.7737 143.323C15.082 142.862 14.9629 142.235 14.5039 141.921C14.0448 141.607 13.4211 141.731 13.1092 142.192C12.7974 142.654 12.92 143.281 13.3791 143.595C13.8381 143.908 14.4618 143.785 14.7737 143.323ZM13.5472 143.352C13.2214 143.133 13.1373 142.689 13.3545 142.361C13.5718 142.034 14.0133 141.949 14.3392 142.168C14.6651 142.39 14.7492 142.83 14.5319 143.158C14.3111 143.486 13.8731 143.57 13.5472 143.352Z" fill="white"/>
<path d="M19.6169 146.59C19.9252 146.128 19.8061 145.501 19.3471 145.187C18.888 144.874 18.2643 144.997 17.9524 145.459C17.6441 145.92 17.7632 146.547 18.2222 146.861C18.6813 147.171 19.305 147.051 19.6169 146.59ZM18.3869 146.618C18.0611 146.396 17.977 145.956 18.1942 145.628C18.4115 145.3 18.853 145.216 19.1789 145.434C19.5047 145.652 19.5888 146.096 19.3716 146.424C19.1508 146.752 18.7128 146.836 18.3869 146.618Z" fill="white"/>
<path d="M24.4557 149.86C24.7641 149.398 24.645 148.771 24.1859 148.457C23.7269 148.144 23.1032 148.267 22.7913 148.729C22.4829 149.19 22.6021 149.818 23.0611 150.131C23.5201 150.441 24.1439 150.321 24.4557 149.86ZM23.2258 149.888C22.8999 149.67 22.8158 149.226 23.0331 148.898C23.2503 148.57 23.6918 148.486 24.0177 148.704C24.3436 148.926 24.4277 149.366 24.2105 149.694C23.9897 150.022 23.5517 150.106 23.2258 149.884V149.888Z" fill="white"/>
<path d="M29.0258 151.727C28.5667 151.417 27.943 151.537 27.6311 151.999C27.3228 152.46 27.4419 153.087 27.9009 153.401C28.36 153.711 28.9837 153.591 29.2956 153.13C29.6039 152.668 29.4848 152.041 29.0258 151.727ZM29.0538 152.964C28.8365 153.292 28.395 153.376 28.0691 153.158C27.7433 152.939 27.6592 152.495 27.8764 152.168C28.0972 151.84 28.5352 151.755 28.8611 151.974C29.187 152.196 29.2711 152.636 29.0538 152.964Z" fill="white"/>
<path d="M33.8676 154.994C33.4085 154.684 32.7848 154.804 32.4729 155.265C32.1646 155.727 32.2837 156.354 32.7427 156.668C33.2018 156.978 33.8255 156.858 34.1374 156.396C34.4457 155.935 34.3266 155.308 33.8676 154.994ZM33.8921 156.231C33.6713 156.558 33.2333 156.643 32.9074 156.425C32.5816 156.203 32.4975 155.762 32.7147 155.434C32.9355 155.107 33.377 155.022 33.6994 155.241C34.0252 155.459 34.1093 155.903 33.8921 156.231Z" fill="white"/>
<path d="M38.707 158.264C38.2479 157.954 37.6242 158.073 37.3123 158.535C37.2037 158.697 37.1476 158.884 37.1406 159.067C37.2422 159.057 37.3404 159.046 37.435 159.039C37.4455 158.923 37.484 158.806 37.5541 158.701C37.7749 158.373 38.2129 158.288 38.5388 158.507C38.728 158.634 38.8366 158.838 38.8506 159.049C38.9522 159.06 39.0504 159.074 39.145 159.088C39.1415 158.768 38.9873 158.454 38.7035 158.264H38.707Z" fill="white"/>
<path d="M43.5466 161.53C43.3013 161.365 43.0105 161.322 42.7441 161.386C42.8142 161.474 42.8808 161.562 42.9474 161.654C43.0946 161.647 43.2487 161.685 43.3819 161.773C43.6622 161.964 43.7638 162.316 43.6482 162.619C43.7148 162.707 43.7778 162.799 43.8444 162.887C44.1213 162.429 43.9916 161.83 43.5466 161.527V161.53Z" fill="white"/>
<path d="M48.3887 164.8C47.9297 164.49 47.3059 164.61 46.9941 165.072C46.9871 165.079 46.9836 165.089 46.9766 165.1C47.0782 165.121 47.1868 165.139 47.2989 165.16C47.5337 164.899 47.9262 164.846 48.2205 165.047C48.3221 165.114 48.3992 165.206 48.4518 165.308C48.5604 165.318 48.669 165.329 48.7812 165.336C48.7146 165.124 48.5814 164.934 48.3852 164.804L48.3887 164.8Z" fill="white"/>
<path d="M5.90133 144.261C5.44229 143.951 4.81856 144.07 4.5067 144.532C4.19483 144.994 4.31748 145.621 4.77651 145.935C5.23555 146.245 5.85928 146.125 6.17115 145.663C6.47951 145.202 6.36036 144.574 5.90133 144.261ZM5.92586 145.498C5.7086 145.825 5.26709 145.91 4.94121 145.691C4.61532 145.469 4.53123 145.029 4.74848 144.701C4.96924 144.374 5.40725 144.289 5.73313 144.507C6.05901 144.726 6.14311 145.17 5.92586 145.498Z" fill="white"/>
<path d="M10.7406 147.531C10.2816 147.22 9.65784 147.34 9.34598 147.802C9.03762 148.263 9.15676 148.891 9.6158 149.204C10.0748 149.518 10.6986 149.395 11.0104 148.933C11.3223 148.471 11.1996 147.844 10.7406 147.531ZM10.7686 148.767C10.5479 149.095 10.1099 149.18 9.78399 148.961C9.45811 148.739 9.37401 148.299 9.59126 147.971C9.81202 147.643 10.25 147.559 10.5759 147.781C10.9018 147.999 10.9859 148.443 10.7686 148.771V148.767Z" fill="white"/>
<path d="M15.5805 150.797C15.1214 150.487 14.4977 150.607 14.1858 151.068C13.8775 151.53 13.9966 152.157 14.4556 152.471C14.9147 152.781 15.5384 152.661 15.8503 152.2C16.1621 151.738 16.0395 151.111 15.5805 150.797ZM15.6085 152.034C15.3877 152.362 14.9497 152.446 14.6238 152.228C14.298 152.009 14.2139 151.565 14.4311 151.238C14.6519 150.91 15.0899 150.825 15.4158 151.044C15.7416 151.266 15.8257 151.706 15.6085 152.034Z" fill="white"/>
<path d="M20.4228 154.067C19.9638 153.757 19.34 153.877 19.0282 154.338C18.7163 154.8 18.839 155.427 19.298 155.741C19.757 156.051 20.3808 155.931 20.6926 155.47C21.0045 155.008 20.8819 154.381 20.4228 154.067ZM20.4473 155.304C20.2266 155.632 19.7886 155.716 19.4627 155.498C19.1368 155.279 19.0527 154.835 19.27 154.508C19.4907 154.18 19.9287 154.095 20.2546 154.314C20.5805 154.536 20.6646 154.976 20.4473 155.304Z" fill="white"/>
<path d="M25.2621 157.334C24.8031 157.023 24.1793 157.143 23.8675 157.605C23.5591 158.066 23.6782 158.694 24.1373 159.007C24.5963 159.317 25.22 159.198 25.5319 158.736C25.8403 158.274 25.7211 157.647 25.2621 157.334ZM25.2901 158.57C25.0694 158.898 24.6314 158.983 24.3055 158.764C23.9796 158.546 23.8955 158.102 24.1127 157.774C24.3335 157.446 24.7715 157.362 25.0974 157.58C25.4233 157.799 25.5074 158.243 25.2901 158.57Z" fill="white"/>
<path d="M30.1042 160.604C29.6452 160.293 29.0215 160.413 28.7096 160.875C28.5764 161.076 28.5204 161.308 28.5414 161.53C28.6395 161.516 28.7376 161.502 28.8323 161.488C28.8217 161.336 28.8603 161.178 28.9514 161.04C29.1686 160.713 29.6102 160.628 29.936 160.85C30.0622 160.935 30.1533 161.058 30.2024 161.192C30.297 161.164 30.3916 161.139 30.4862 161.111C30.4161 160.914 30.2864 160.734 30.1007 160.607L30.1042 160.604Z" fill="white"/>
<path d="M2.40818 151.273C2.71654 150.811 2.59741 150.184 2.13837 149.87C1.67933 149.557 1.0556 149.68 0.743737 150.142C0.691175 150.223 0.649127 150.304 0.621094 150.392C0.698184 150.452 0.785788 150.515 0.876894 150.582C0.894415 150.487 0.929455 150.392 0.989025 150.307C1.20978 149.98 1.6513 149.895 1.97368 150.117C2.29956 150.336 2.38366 150.78 2.1664 151.107C2.09982 151.206 2.01222 151.283 1.91411 151.336C1.99821 151.396 2.08581 151.456 2.17341 151.52C2.26452 151.453 2.34511 151.372 2.41169 151.269L2.40818 151.273Z" fill="white"/>
<path d="M7.24699 154.539C7.55535 154.078 7.43621 153.45 6.97718 153.137C6.51814 152.827 5.89441 152.946 5.58255 153.408C5.51597 153.507 5.47042 153.609 5.44238 153.718C5.52999 153.775 5.61759 153.831 5.7087 153.887C5.72271 153.778 5.76125 153.672 5.82433 153.574C6.04509 153.246 6.4831 153.161 6.80898 153.38C7.13486 153.602 7.21896 154.042 7.00171 154.37C6.94914 154.451 6.87906 154.518 6.80548 154.567C6.89308 154.62 6.98419 154.677 7.07529 154.729C7.13837 154.673 7.19794 154.61 7.24699 154.536V154.539Z" fill="white"/>
<path d="M11.8166 156.407C11.3645 156.1 10.7548 156.213 10.4395 156.657C10.5271 156.703 10.6147 156.752 10.7023 156.798C10.93 156.509 11.3435 156.442 11.6519 156.653C11.9112 156.83 12.0198 157.15 11.9392 157.439C12.0268 157.485 12.1179 157.527 12.2055 157.573C12.3492 157.15 12.202 156.671 11.8166 156.41V156.407Z" fill="white"/>
<path d="M26.5272 70.1929L53.3511 87.0009L46.5811 110.225L16.8594 90.9685L26.5272 70.1929Z" fill="#7EBD8E"/>
<path d="M28.2539 74.9392L34.3055 91.7719L51.451 87.7936L34.6068 90.9649L28.2539 74.9392Z" fill="#111F59"/>
<path d="M45.4281 104.337C45.4 104.337 45.3755 104.33 45.351 104.313L21.4285 88.1143C21.3549 88.065 21.3339 87.9593 21.3759 87.8783C21.418 87.7972 21.5126 87.769 21.5827 87.8184L45.5051 104.017C45.5787 104.066 45.5998 104.172 45.5577 104.253C45.5297 104.306 45.4806 104.337 45.4281 104.337Z" fill="white"/>
<path d="M53.6274 85.9226L46.861 109.147L17.1357 89.8903L46.3739 108.178L53.6274 85.9226Z" fill="#111F59"/>
<path d="M54.4408 37.715C56.1753 40.1463 56.5432 43.7828 53.6734 48.9133C50.8 54.0437 46.2167 58.3004 43.1611 68.0152C40.1055 77.73 36.1914 89.3017 37.1445 92.2475C38.0977 95.1933 38.2413 101.635 37.8594 102.072C37.4774 102.509 37.1901 102.618 37.1901 102.618C37.1901 102.618 37.6631 103.71 36.9974 103.981C36.4612 104.2 36.0513 104.207 35.6588 104.091C35.4731 104.034 35.2769 104.031 35.0911 104.091C34.958 104.133 34.8003 104.168 34.6601 104.168C34.4078 104.168 33.7 103.47 33.4407 103.062C33.3391 102.9 33.2199 102.759 33.0693 102.664C32.7434 102.456 32.2248 102.1 32.011 101.857C31.9655 101.804 31.9164 101.73 31.8674 101.642C31.4153 100.824 31.4153 99.7847 31.8078 98.9284C32.6172 97.149 34.0679 93.8156 34.1345 92.5788C34.2291 90.8592 36.1178 73.0399 36.1178 73.0399C36.1178 73.0399 44.7835 42.5847 48.221 38.6558C51.6585 34.7269 53.5227 36.4324 54.4408 37.7185V37.715Z" fill="#FFCECE"/>
<path d="M57.4184 42.4367C56.4373 36.9574 53.7216 34.9771 50.9919 35.2625C44.7862 35.5761 29.6099 67.4408 26.6875 73.6425L28.2083 74.5622C30.924 67.8918 45.4344 35.8369 51.4299 36.228C57.7408 36.4535 57.2958 48.0852 56.2235 55.203C55.1162 62.6733 50.2105 77.5185 47.4843 85.1438L49.0997 85.8203C54.2998 69.3964 59.2581 53.1276 57.4184 42.4403V42.4367Z" fill="black"/>
<path d="M23.8353 81.5108C23.229 81.1408 22.9978 80.2775 23.3237 79.5833L26.6035 72.5747L28.8041 73.9172L25.5242 80.9258C25.1984 81.62 24.445 81.8808 23.8353 81.5108Z" fill="black"/>
<path d="M45.4804 93.643C44.8427 93.347 44.5343 92.5189 44.7901 91.7895L47.3937 84.418L49.7064 85.4856L47.1028 92.8572C46.8435 93.5866 46.1182 93.939 45.4804 93.6465V93.643Z" fill="black"/>
<path d="M35.5813 102.6C35.6829 102.272 35.2239 102.16 35.1889 102.494C35.1398 102.956 35.1363 103.559 35.2624 104.052C35.2975 104.048 35.329 104.045 35.3641 104.045C35.336 103.566 35.4517 103.019 35.5813 102.6Z" fill="#2846A6"/>
<path d="M33.3003 101.152C33.2652 101.518 33.2162 102.149 33.2021 102.762C33.2617 102.815 33.3143 102.878 33.3633 102.942C33.486 102.103 33.6997 101.236 33.7032 101.198C33.7313 100.894 33.3283 100.845 33.3003 101.148V101.152Z" fill="#2846A6"/>
<path d="M32.1961 99.8551C32.0944 100.338 31.9683 101.018 31.8877 101.673C31.9297 101.747 31.9718 101.807 32.0103 101.853C32.0103 101.853 32.0103 101.857 32.0138 101.86C32.2031 101.113 32.4624 100.338 32.5815 99.9961C32.6866 99.6895 32.2626 99.5415 32.1961 99.8586V99.8551Z" fill="#2846A6"/>
</svg>
