<svg width="58" height="217" viewBox="0 0 58 217" fill="none" xmlns="http://www.w3.org/2000/svg">
<path d="M17.0802 78.7979C17.6493 81.6185 18.2986 87.1019 15.8863 88.6646L14.9961 87.2316C15.8933 86.9863 16.2668 84.7299 16.3681 83.7943C16.5112 82.2281 16.4693 80.5744 16.2913 78.9696L17.0837 78.7944L17.0802 78.7979Z" fill="#206001"/>
<path d="M15.33 80.2416C15.33 80.2416 13.0294 70.1893 12.0833 63.0661C11.1373 55.9429 11.7796 53.4482 13.7067 52.0431C15.6337 50.6381 17.8994 50.7608 17.8994 50.7608L21.146 80.2451H15.33V80.2416Z" fill="#206001"/>
<path d="M30.7123 19.6961C30.7123 19.6961 31.1871 19.4648 33.5016 20.078C35.8162 20.6912 42.6236 18.9042 43.4021 16.5076C44.1806 14.1111 42.4211 13.4278 42.4211 13.4278C42.4211 13.4278 45.3361 13.0564 46.1146 14.2022C46.1146 14.2022 46.2613 16.4095 45.1686 17.4992C44.0759 18.5854 43.5627 18.8237 43.5627 18.8237C43.5627 18.8237 45.2279 18.4452 46.2927 16.6058C46.2927 16.6058 46.8687 17.7165 46.6872 18.9708C46.6872 18.9708 46.1251 20.8594 44.802 21.5741C44.802 21.5741 46.1216 22.2924 47.2527 21.1537C47.2527 21.1537 47.9893 22.8635 47.4482 22.9511C47.0572 23.0142 44.3237 23.1333 44.3237 23.1333L47.2352 23.347C47.2352 23.347 47.7798 25.5755 46.5894 25.7647C45.399 25.9539 43.0914 24.731 43.0914 24.731C43.0914 24.731 45.9191 26.504 46.4917 26.6161C46.4917 26.6161 46.4114 29.3595 42.5922 30.5754C37.7048 32.1275 31.9726 22.4606 30.9916 21.7493C30.0141 21.0345 30.7123 19.6996 30.7123 19.6996V19.6961Z" fill="#18287D"/>
<path d="M57.9212 32.4744C57.5721 29.6994 52.6427 16.5252 49.232 10.9296C49.2425 10.9296 48.7468 3.41748 47.9997 2.95498C47.2317 2.47847 47.8112 4.40555 47.7868 5.14835C47.7623 5.89116 47.6925 7.35924 47.4377 6.06284C47.1828 4.76644 45.5665 0.596931 45.0358 0.397215C44.1002 0.0433319 46.4462 4.86455 46.4602 6.56388C46.4602 6.56388 44.7216 2.70972 44.1561 1.08045C44.1561 1.08045 43.7442 -0.25449 43.1612 0.0433319C42.5782 0.341154 43.5836 1.73566 43.8175 2.6957C44.0514 3.65574 45.165 6.15044 45.3186 6.4903C45.4687 6.83017 44.8368 6.14343 44.2678 4.86805C43.6988 3.59267 42.7876 1.55346 42.3582 1.98093C41.9323 2.40839 43.615 5.3761 44.2469 6.79163C44.8787 8.20716 45.0882 8.63813 44.6379 8.46644C44.1875 8.29476 43.7581 7.8778 43.2833 7.18055C42.8086 6.4833 41.9742 7.08595 42.6375 8.13708C43.3043 9.18822 45.1964 10.5757 45.8981 11.1959C46.0133 11.2975 47.2456 12.5238 47.3259 12.6395C47.4027 12.7726 47.4935 12.9443 47.5947 13.151C49.033 16.1292 52.6009 26.5285 50.8379 31.8087C48.8445 37.7826 43.999 46.7453 38.3017 50.4804C34.4581 52.9996 33.3619 54.1594 33.0547 54.6464C36.2874 57.7858 43.3078 58.1887 46.3415 54.4151C50.6354 49.0754 58.3261 35.789 57.9072 32.4709L57.9212 32.4744Z" fill="#FFC8C7"/>
<path d="M20.2714 48.5463C20.2714 48.5463 12.832 51.055 12.832 53.7004C12.832 56.3457 17.6357 72.372 17.6357 81.6711C17.6357 90.9702 15.1466 96.4746 17.9568 99.2952C20.7671 102.116 43.8671 104.05 44.7748 96.7199C45.6859 89.3899 43.4726 56.4333 43.4726 51.7067C43.4726 46.9801 30.8177 45.7397 20.2749 48.5463H20.2714Z" fill="#2A8001"/>
<path d="M23.2355 39.7132C23.2355 39.7132 23.019 38.5009 22.0171 36.0447C21.0117 33.5886 18.0025 31.9313 18.8612 28.1086C19.72 24.286 22.5896 25.0919 23.5916 22.1031C24.597 19.1144 32.3016 20.3863 34.2741 22.7969C36.2465 25.2075 36.2814 31.0623 37.1402 34.3874C37.999 37.7125 33.9145 40.519 32.0503 40.519C30.1861 40.519 23.232 39.7132 23.232 39.7132H23.2355Z" fill="#18287D"/>
<path d="M44.6877 42.9016L34.082 49.9968L40.0761 63.9489L49.2854 52.954L44.6877 42.9016Z" fill="#F9B406"/>
<path d="M10.2207 125.002C10.2207 125.002 11.7044 127.648 12.832 129.025C13.9596 130.402 13.3382 132.185 12.832 132.385C12.3293 132.585 12.4584 130.199 12.4584 130.199L10.4825 129.284L10.2207 125.006V125.002Z" fill="#E24242"/>
<path d="M12.6784 58.7773C7.67578 67.8136 1.54557 84.1763 0.170112 93.3177C-1.20535 102.459 6.17465 117.221 7.42443 122.641C8.67421 128.065 5.60911 131.677 6.61102 134.088C7.61294 136.498 8.56948 135.279 9.41431 135.542C10.6222 135.92 12.1024 135.451 12.4969 134.964C12.8495 134.533 11.3029 125.801 11.3029 123.089C11.3029 120.377 6.04897 105.616 8.05281 95.6758C10.0532 85.7355 15.932 71.426 18.5573 73.0833C21.1825 74.7406 23.0537 91.9757 21.9435 93.3142C21.9435 93.3142 14.183 114.474 14.183 118.391C14.183 122.098 18.2675 159.298 18.8784 162.433C18.9133 162.602 18.8889 162.777 18.8121 162.927C18.5468 163.464 17.9289 164.942 17.9289 167.072C17.9289 169.679 22.3206 205.131 22.6592 207.874C22.6732 207.986 22.6627 208.095 22.6313 208.2C22.3869 208.995 21.3047 212.615 21.3047 214.219C21.3047 215.565 23.9997 216.133 25.4171 216.476C25.8046 216.571 26.227 216.441 26.1537 215.975C25.8186 213.915 25.061 209.167 25.061 208.344C25.061 207.744 26.6704 167.346 28.3635 129.337C28.381 128.965 28.6463 127.925 28.9535 127.949H29.8437C30.1195 127.974 30.3394 129.074 30.3569 129.407C32.4131 169.879 32.4794 167.731 32.0116 168.054C31.6171 168.327 30.9469 169.052 30.6885 170.913C30.322 173.554 30.0183 206.49 30.0008 208.2C30.0008 208.245 29.9973 208.291 29.9868 208.337C29.8891 208.859 29.2502 212.338 29.2502 213.242C29.2502 214.219 31.0551 213.48 32.3153 213.918C33.8584 214.454 37.9289 214.465 37.6077 214.454C38.1802 214.367 37.2656 213.144 36.728 212.902C34.3576 211.84 32.0745 210.393 32.3188 207.969C32.6889 204.265 39.4719 170.32 39.6918 169.213C39.6953 169.192 39.6988 169.175 39.7023 169.154L45.5009 119.551C45.5114 119.47 45.5079 119.389 45.4904 119.309L40.9067 95.3324C40.8928 95.2623 40.8893 95.1922 40.8962 95.1221L41.8912 81.8743C42.3276 76.0475 42.0413 70.1717 41.0394 64.4465C40.1387 59.2924 17.496 50.0844 12.6854 58.7773H12.6784Z" fill="#FFCECE"/>
<path d="M40.9022 95.3323C40.8883 95.2622 21.3456 95.1886 21.185 95.3848C21.185 95.3848 14.1855 114.477 14.1855 118.394C14.1855 120.094 15.0443 128.832 16.0323 138.103L27.9297 139.144C28.1321 134.613 28.2997 130.829 28.366 129.344C28.3835 128.972 28.757 128.145 29.0642 128.17L29.8462 128.093C30.122 128.117 30.3454 129.081 30.3629 129.417L30.8586 139.158L43.3425 138.019L45.4999 119.557C45.5104 119.477 45.5069 119.396 45.4929 119.316L40.9092 95.3393L40.9022 95.3323Z" fill="#FFC8C7"/>
<path d="M21.9436 93.3176L40.9591 94.2286L46.3457 119.018V136.215L30.1928 137.693L29.8472 128.79L28.9535 128.713L28.7441 137.693L12.832 136.302L13.3487 116.698L21.9436 93.3176Z" fill="#555699"/>
<path d="M21.9436 93.3176L40.9591 94.2286L46.3457 119.018V136.215L30.1928 137.693L29.8472 128.79L28.9535 128.713L28.7441 137.693L12.832 136.302L13.3487 116.698L21.9436 93.3176Z" fill="#555699"/>
<path d="M39.3727 118.216L29.8457 128.79L30.1913 137.693L39.3727 136.852V118.216Z" fill="#44477F"/>
<path d="M12.678 58.7773C10.1994 63.2552 7.44498 69.5305 5.12695 75.8338C7.61953 78.1463 10.2203 80.9458 11.7564 83.2163C11.7634 83.1953 11.7738 83.1707 11.7808 83.1497C14.1757 76.948 16.9615 72.0812 18.5569 73.0868C20.4874 74.3026 22.0095 83.931 22.2399 89.4846C23.8039 89.4215 25.3469 89.3724 25.9718 89.3724C29.9096 89.3724 36.2877 90.6829 41.1437 91.7445L41.8838 81.8743C42.3202 76.0475 42.0339 70.1717 41.032 64.4465C40.1313 59.2924 17.4886 50.0844 12.678 58.7773Z" fill="#FFC8C7"/>
<path d="M42.0817 89.6772L41.8828 81.8743C42.3191 76.0475 42.574 68.4547 41.5721 62.7295C40.6679 57.5755 37.7983 52.544 36.7091 51.2301C34.6808 48.788 32.2266 50.6099 28.4389 50.7886C28.4075 50.7886 17.4876 50.0844 12.677 58.7773C10.3938 62.9012 6.94821 68.3391 4.75586 74.1309C7.22749 76.3663 11.0257 79.6634 12.9318 82.582C15.2743 76.6571 17.0128 72.1162 18.5558 73.0903C20.3327 74.2115 20.6993 82.4454 21.0938 88.083C27.5207 87.4453 35.749 88.2266 42.0817 89.6842V89.6772Z" fill="#FCEE21"/>
<path d="M24.0801 40.7749C24.0801 41.9382 24.2197 52.3444 25.4171 56.1215C26.6146 59.8986 30.6571 57.6036 31.3309 56.6296C32.0012 55.6555 31.893 40.7749 31.893 40.7749H24.0801Z" fill="#FFCECE"/>
<path d="M24.2333 46.2093C24.8128 46.868 25.5249 47.4636 26.3942 47.9647C28.3003 49.0614 30.5276 48.5008 31.8751 47.1623C32.0252 43.8267 31.8891 40.7749 31.8891 40.7749H24.0762C24.0762 41.2794 24.1041 43.5219 24.2298 46.2093H24.2333Z" fill="#FFC8C7"/>
<path d="M25.098 24.5419C25.098 24.5419 22.375 25.8699 22.375 29.2931C22.375 32.7163 23.164 33.2418 22.8044 35.8732C22.4448 38.5045 22.0154 43.5079 26.8924 45.8765C31.7658 48.2451 34.995 40.8766 34.995 37.8914C34.995 34.9061 34.3492 35.26 34.995 32.012C35.6408 28.7675 31.696 20.2323 25.1015 24.5419H25.098Z" fill="#FFCECE"/>
<path d="M30.761 22.1838C30.761 22.1838 31.4068 26.483 28.1811 28.5887C24.9554 30.6945 20.6545 33.6762 20.2949 37.0118C19.9354 40.3475 21.5133 39.7133 21.5133 39.7133L21.227 41.311C21.227 41.311 20.3682 42.6284 19.4361 38.9424C18.504 35.2564 20.871 32.3623 20.871 32.3623C20.871 32.3623 22.3756 28.1262 23.2379 24.7591C24.0966 21.392 30.7645 22.1838 30.7645 22.1838H30.761Z" fill="#555699"/>
<path d="M36.6367 94.022L39.3737 118.216V136.852L40.0754 118.216L36.6367 94.022Z" fill="#6265A8"/>
<path d="M25.7454 93.5L20.2715 119.102V136.95L21.1861 118.976L25.7454 93.5Z" fill="#6265A8"/>
<path d="M27.8574 37.59C27.8574 37.59 28.8908 36.3567 29.3306 36.609C29.7705 36.8612 30.4687 38 30.4687 38C30.4687 38 29.5401 37.0189 29.1631 37.0189C28.786 37.0189 27.8574 37.5865 27.8574 37.5865V37.59Z" fill="#2846A6"/>
<path d="M26.0977 39.7588L32.2314 40.0741C32.2314 40.0741 29.8191 42.0888 28.5798 41.7454C27.3405 41.4021 26.1012 39.7588 26.1012 39.7588H26.0977Z" fill="white"/>
<path d="M25.1685 33.438C25.1685 33.438 26.0378 32.5656 26.7045 32.9755C27.3713 33.3855 27.6157 34.2369 27.6157 34.2369C27.6157 34.2369 26.3694 33.6833 25.1685 33.9811C23.9676 34.2789 25.1685 33.438 25.1685 33.438Z" fill="#22346D"/>
<path d="M32.7725 33.4764C32.7725 33.4764 31.9103 32.5969 31.24 32.9964C30.5697 33.3993 30.3184 34.2507 30.3184 34.2507C30.3184 34.2507 31.5681 33.7076 32.7656 34.0195C33.963 34.3313 32.769 33.4764 32.769 33.4764H32.7725Z" fill="#22346D"/>
<path d="M29.3342 207.927V209.353C29.3342 209.353 28.7931 212.51 29.3342 214.069L38.2608 214.612C38.2608 214.612 38.2712 214.034 37.5311 213.294C36.7945 212.555 33.7294 211.084 33.3559 210.302C32.9823 209.521 33.6596 207.552 32.7484 207.552C31.8373 207.552 31.7011 209.419 31.7011 209.419C31.7011 209.419 30.8424 208.326 30.4165 208.231C29.9906 208.133 29.3342 207.927 29.3342 207.927Z" fill="#C5C6FE"/>
<path d="M29.1348 213.084C29.1697 213.445 29.2325 213.785 29.3338 214.069L38.2603 214.612C38.2603 214.612 38.2638 214.37 38.0683 213.999C35.9073 214.02 30.7336 213.312 29.1348 213.084Z" fill="#ADB0EA"/>
<path d="M22.752 206.465C21.7187 207.009 23.2792 212.135 23.2792 212.135C25.0037 211.998 25.1189 207.597 25.1189 206.742C25.1189 205.887 23.7888 205.922 22.752 206.465Z" fill="#C5C6FE"/>
<path d="M25.4801 208.876L25.8187 207.653L25.0961 207.594C25.0123 209.156 23.7625 210.891 23.7625 210.891C23.7625 210.891 22.3452 208.964 22.408 207.37L21.7587 207.313V208.673L20.8301 214.913C20.8301 214.913 21.6435 216.749 25.4906 216.683C26.1993 216.669 26.7334 216.031 26.6112 215.33L25.4801 208.876Z" fill="#E3E4FF"/>
<path d="M25.4867 216.683C26.1953 216.669 26.7295 216.031 26.6073 215.33L26.5549 215.039C23.3292 216.125 21.6361 214.903 20.9379 214.163L20.8262 214.913C20.8262 214.913 21.6396 216.749 25.4867 216.683Z" fill="#B9BCFC"/>
<path d="M24.8187 209.629C24.0682 208.876 22.4344 209.444 22.4169 209.447C22.1691 209.538 22.0259 209.156 22.2808 209.065C24.138 208.393 25.4401 209.293 25.105 209.629C25.0666 209.668 24.899 209.71 24.8187 209.629Z" fill="#B9BCFC"/>
<path d="M24.9445 210.814C24.6826 210.386 23.2897 210.432 22.3855 210.604C22.1167 210.649 22.0504 210.253 22.3122 210.204C24.8258 209.738 25.6287 210.635 25.2237 210.884C25.1923 210.905 25.0038 210.912 24.9445 210.817V210.814Z" fill="#B9BCFC"/>
<path d="M18.707 50.7572C18.707 50.7572 22.5018 63.6126 21.8245 69.8248C21.1472 76.0335 19.2167 83.2303 19.2167 83.2303V87.7117C19.2167 87.7117 24.6383 76.4785 24.6383 69.2362C24.6383 59.4746 20.271 49.4958 20.271 49.4958L18.707 50.7607V50.7572Z" fill="#2A8001"/>
<path d="M33.0645 49.086C38.664 55.603 42.2668 72.7751 42.8672 77.5858L42.2702 63.9525C42.0852 61.556 39.7183 54.1279 35.1276 48.5464L33.0679 49.086H33.0645Z" fill="#2A8001"/>
<path d="M30.7617 22.1838C30.2765 22.3695 30.259 25.6946 31.7671 27.5376C33.2717 29.3805 35.4955 36.6789 35.4955 41.5387C35.4955 46.3985 33.4882 49.3416 33.4882 49.3416L34.7065 49.9968C34.7065 49.9968 36.7139 43.5569 36.7139 39.7132C36.7139 35.8696 35.1569 20.5195 30.7617 22.1838Z" fill="#555699"/>
</svg>
