<svg width="121" height="188" viewBox="0 0 121 188" fill="none" xmlns="http://www.w3.org/2000/svg">
<path d="M84.2623 132.597L73.0097 82.8215L55.123 95.1848L74.7896 136.607C74.7896 136.607 75.2152 138.26 75.2152 141.325C75.2152 143.121 78.9156 164.051 82.0533 175.031C83.4955 174.877 87.0271 174.12 88.4024 173.623C86.9813 159.768 84.2658 132.597 84.2658 132.597H84.2623Z" fill="#172866"/>
<path d="M73.7058 85.9176L72.2953 80.1073C63.5296 71.3794 51.3273 82.9371 48.2283 89.7807C45.1329 96.6208 50.7645 133.409 50.7645 133.409C50.7645 133.409 44.5666 139.714 42.3153 142.365C41.239 143.633 32.8356 157.821 28.4316 166.997C29.61 168.009 32.016 169.553 33.1416 170.569C40.7676 159.719 51.9745 147.191 57.191 137.616L73.7058 85.9141V85.9176Z" fill="#18287D"/>
<path d="M84.2629 132.597L79.7463 112.623L64.1777 114.262L74.7866 136.607C74.7866 136.607 75.2122 138.26 75.2122 141.325C75.2122 142.26 76.2183 148.396 77.6253 155.611H86.5739C85.392 143.878 84.2629 132.597 84.2629 132.597Z" fill="#0F1D5B"/>
<path d="M34.418 155.611H44.5168C49.4976 149.229 54.278 142.96 57.1905 137.616L64.6688 114.209L48.5198 115.908C49.5187 125.252 50.7675 133.409 50.7675 133.409C50.7675 133.409 44.5696 139.714 42.3183 142.365C41.643 143.16 38.0727 149.061 34.418 155.611Z" fill="#0F1D5B"/>
<path d="M67.9552 23.8878C67.9552 23.8878 66.0663 33.3511 66.8507 35.7152C67.6316 38.0793 58.8097 37.8306 58.3629 35.1058C57.9162 32.381 63.1608 19.5869 63.1608 19.5869L67.9588 23.8878H67.9552Z" fill="#FFCECE"/>
<path d="M68.9902 5.26934C68.9902 5.26934 73.3449 4.88408 74.0203 8.25683C74.6956 11.6296 72.1173 14.7116 72.761 15.997C73.4047 17.2824 74.8434 17.9863 75.2303 18.1579C75.6172 18.3261 74.8926 19.4363 74.263 19.6745C74.263 19.6745 73.9851 20.2874 74.1645 20.4695C74.3474 20.6516 74.7941 20.9738 74.6499 21.4081C74.5057 21.8424 73.7565 22.0595 73.7565 22.0595C73.7565 22.0595 74.4951 22.8196 74.1188 23.1908C73.7424 23.5656 72.958 23.7687 72.958 23.7687C72.958 23.7687 73.1514 25.4778 72.3283 25.9857C71.5052 26.49 69.0219 25.8246 66.8937 24.9245C64.7656 24.0244 59.229 21.8424 59.229 21.8424C59.229 21.8424 54.0583 1.86506 68.9902 5.26934Z" fill="#FFCECE"/>
<path d="M72.1136 21.1525C71.6985 21.5833 73.0845 21.937 73.7563 22.0561C73.2357 22.0106 72.0081 21.874 71.8815 21.3696C71.8392 21.1875 71.9624 20.8933 72.1066 20.9984C72.1523 21.0334 72.1593 21.0965 72.1242 21.1385C72.1242 21.1385 72.1207 21.1455 72.1171 21.149L72.1136 21.1525Z" fill="#2846A6"/>
<path d="M72.3495 15.4998C72.3495 15.4998 72.5359 16.1407 71.8711 16.4349L72.3495 15.4998Z" fill="#2846A6"/>
<path d="M70.459 15.146C71.3911 15.2896 73.0831 15.3947 73.7549 14.7397C73.3434 15.6363 71.4685 15.7414 70.459 15.146Z" fill="#0F1D5B"/>
<path d="M80.5229 105.919C84.3043 98.9638 83.4319 76.7029 76.2913 74.0201C76.2913 74.0201 79.9355 68.5425 77.4415 57.8884C77.4415 57.8884 73.2627 33.9989 69.01 31.901C64.7573 29.8031 56.0831 29.1692 56.0831 29.1692C56.0831 29.1692 46.1847 38.643 41.1898 50.8977C36.1949 63.1524 42.0024 71.2078 42.0024 71.2078C42.0024 71.2078 38.5095 78.0478 36.3603 83.1122C34.2146 88.1766 32.4136 100.081 36.3603 106.921C36.3743 106.946 36.3884 106.97 36.4025 106.991C34.5698 111.929 31.6714 120.531 30.9116 127.431C29.779 137.745 30.9116 150.515 30.9116 150.515L87.0303 149.387C87.0303 149.387 92.1061 120.076 80.5229 105.912V105.919Z" fill="#93278F"/>
<path d="M56.0798 29.1727C56.0798 29.1727 46.1814 38.6465 41.1865 50.9012C36.1916 63.1559 41.9991 71.2113 41.9991 71.2113C41.9991 71.2113 38.5062 78.0513 36.3569 83.1157C34.2113 88.1801 32.4103 100.085 36.3569 106.925C36.371 106.949 31.3726 120.048 30.9083 127.438C30.5987 132.373 30.342 137.826 30.4651 142.211C32.0515 127.144 43.2408 108.634 43.2408 108.634C35.2982 96.1829 49.5407 71.4739 49.5407 71.4739C41.4644 58.2421 56.0762 29.1692 56.0762 29.1692L56.0798 29.1727Z" fill="#6E1D6B"/>
<path d="M26.0021 161.635L36.1854 170.566L28.0704 178.19C28.0704 178.19 30.6805 181.57 28.4328 186.725C28.4328 186.725 15.6606 174.457 16.4555 174.457C17.2505 174.457 26.0021 161.631 26.0021 161.631V161.635Z" fill="#FF9739"/>
<path d="M80.0309 173.756L91.6493 171.571L92.8241 180.673C92.8241 180.673 96.3135 179.462 99.2014 183.699L84.0655 187.601L80.0273 173.756H80.0309Z" fill="#FB8603"/>
<path d="M57.0934 7.51774C57.0652 9.37398 57.3607 11.3808 58.3315 13.174L74.0197 8.25324C74.0197 8.25324 72.6127 0.84579 65.4299 0.0472568C60.9591 -0.450075 57.1567 3.04176 57.0898 7.51774H57.0934Z" fill="#ED1E79"/>
<path d="M69.328 35.0671C69.2788 34.906 69.1064 34.8149 68.9446 34.8674C68.7828 34.9165 68.6949 35.0881 68.7441 35.2492C68.8039 35.4418 74.7239 54.491 73.7601 74.8046C73.9782 74.7591 74.1857 74.7135 74.3792 74.6645C75.3078 54.3054 69.3913 35.2597 69.328 35.0671Z" fill="#6E1D6B"/>
<path d="M55.8615 20.5396C55.1967 23.1453 54.6726 26.8088 55.9354 29.5266C55.9354 29.5266 65.7633 35.1583 69.0347 35.1583C72.306 35.1583 71.9612 32.3074 72.816 29.8663C73.6708 27.4252 73.1713 26.6757 69.2 25.7476C66.6498 25.1522 62.1368 21.6919 59.3439 19.3908C58.1127 18.3751 56.2554 18.9986 55.8615 20.5396Z" fill="#A952A5"/>
<path d="M66.8505 13.1741C66.8505 13.1741 65.6089 23.7056 63.1466 26.1572C60.6843 28.6089 59.1542 28.4618 59.1542 28.4618L52.4075 27.0293L55.1231 24.1679L49.5443 26.1572L43.5469 24.5742L59.0838 17.3874L66.8505 13.1741Z" fill="#2846A6"/>
<path d="M58.5181 17.65L73.756 11.8326C73.756 11.8326 76.665 10.0534 74.6213 6.52653C72.5776 2.99968 60.72 7.06939 57.3115 10.4632C53.9031 13.8569 58.5181 17.65 58.5181 17.65Z" fill="#9E005D"/>
<path d="M70.3335 5.19564C70.1576 5.20615 69.9817 5.22366 69.7988 5.24117C71.3254 6.69114 73.2495 9.0342 73.6224 11.8816L73.7561 11.8291C73.7561 11.8291 73.8545 11.7695 74.0023 11.6504C73.5872 8.92913 71.8284 6.67013 70.3335 5.19214V5.19564Z" fill="#770046"/>
<path d="M67.8398 5.56331C69.2222 7.05181 71.4312 9.80815 71.7971 12.5785L72.1946 12.4279C71.8006 9.67156 69.7288 7.00628 68.3182 5.46875C68.1599 5.50027 68.0017 5.53179 67.8398 5.56682V5.56331Z" fill="#770046"/>
<path d="M66.2461 5.96266C67.2134 7.85042 69.046 11.7345 69.2747 13.5417L69.6581 13.3946C69.338 11.2687 67.3365 7.20249 66.6471 5.85059C66.5134 5.88561 66.3798 5.92413 66.2461 5.96266Z" fill="#770046"/>
<path d="M64.1891 6.62805C64.671 8.24613 65.8247 12.2003 66.3629 14.6519L66.7463 14.5048C66.1941 11.9971 65.0509 8.08852 64.5725 6.49146C64.4423 6.53699 64.3157 6.58252 64.1855 6.62805H64.1891Z" fill="#770046"/>
<path d="M61.8145 7.6088C61.9938 9.21287 62.4933 13.3456 63.1054 15.8988L63.4853 15.7517C62.8767 13.181 62.3702 8.90816 62.2049 7.43018C62.0712 7.48972 61.9411 7.54926 61.8145 7.6088Z" fill="#770046"/>
<path d="M59.4396 8.86255C59.2953 8.95011 59.1582 9.03767 59.0245 9.12522C58.9612 11.041 58.8979 14.8305 59.2426 17.3732L59.6295 17.2261C59.327 14.8095 59.3622 11.1146 59.4431 8.86605L59.4396 8.86255Z" fill="#770046"/>
<path d="M70.5155 108.739C70.92 108.662 70.7934 108.059 70.4029 108.14C54.6338 111.075 36.6592 106.746 36.4587 106.697C36.3743 106.683 36.2934 106.669 36.209 106.655C36.2582 106.746 36.3075 106.837 36.3602 106.924C36.3743 106.949 36.3884 106.973 36.4025 106.995C36.3673 107.089 36.3321 107.187 36.2969 107.285C36.3075 107.285 36.318 107.289 36.3321 107.292C45.2737 109.499 59.6956 110.756 70.5155 108.739Z" fill="#6E1D6B"/>
<path d="M76.1115 107.334C79.9737 94.4353 74.6693 76.6749 74.3281 75.5612C74.3316 75.4701 74.3386 75.3826 74.3421 75.2915C74.1452 75.337 73.9376 75.3826 73.7195 75.4211C73.7195 75.4736 73.7125 75.5297 73.709 75.5822V75.6382C79.6747 94.8556 75.4748 107.24 75.4713 107.324C84.1209 141.664 82.7737 148.217 82.9003 149.478L83.5124 149.468C84.2968 140.046 76.6602 109.537 76.1079 107.338L76.1115 107.334Z" fill="#6E1D6B"/>
<path d="M74.3738 74.6645C74.1804 74.7136 73.9729 74.7626 73.7548 74.8046C68.7915 75.7993 57.6058 75.2564 55.6922 75.1584C55.3264 75.0988 55.2279 75.7468 55.6606 75.7678C57.9962 75.8868 68.5207 76.4052 73.7231 75.421C73.9412 75.379 74.1487 75.337 74.3457 75.2915C75.4397 75.0323 76.2206 74.6926 76.5195 74.2443L76.6462 74.1742C76.5301 74.1182 76.4105 74.0656 76.2909 74.0236C76.2909 74.0236 76.3964 73.8625 76.5618 73.5403C76.3999 73.6313 76.2206 73.7259 76.0271 73.8205C75.8055 74.1707 75.2181 74.4509 74.3738 74.668V74.6645Z" fill="#6E1D6B"/>
<path d="M71.3155 26.3464C71.3084 26.371 71.3014 26.3955 71.2979 26.4235C71.2908 26.4935 70.4607 33.3896 68.818 35.0287C68.7793 35.0673 68.7442 35.1058 68.7266 35.1478C68.8251 35.1898 68.8989 35.2038 68.9904 35.2038C69.1663 35.2038 69.1733 35.1968 69.3457 35.1548C70.8617 33.0989 71.7903 27.4181 71.8923 26.5881C71.72 26.504 71.5265 26.427 71.312 26.3464H71.3155Z" fill="#6E1D6B"/>
<path d="M56.6299 91.2727L54.041 97.9902L62.4409 98.9393V90.7964L56.6299 91.2727Z" fill="#18287D"/>
<path d="M39.1265 42.9649C32.9427 57.7202 37.0054 64.2591 38.1908 69.5721C39.626 76.0094 43.8822 82.846 49.8163 91.2726C52.8765 95.619 65.216 94.3127 65.216 91.2726C65.216 87.301 56.0564 71.5264 55.6765 67.863C55.3599 64.8054 56.3519 49.896 58.3393 42.3064C59.4297 38.1386 59.3945 32.4929 56.3378 30.9308C51.1987 28.3041 42.6194 34.6433 39.13 42.9649H39.1265Z" fill="#A952A5"/>
<path d="M52.8126 95.0061L67.9556 97.8535L66.8511 100.974L51.8594 97.9901L52.8126 95.0061Z" fill="#6E1D6B"/>
<path d="M102.358 9.00272C102.358 9.8713 101.651 10.5753 100.779 10.5753C99.9062 10.5753 99.1992 9.8713 99.1992 9.00272C99.1992 8.13414 99.9062 7.43018 100.779 7.43018C101.651 7.43018 102.358 8.13414 102.358 9.00272Z" fill="white"/>
<path d="M11.7908 32.5735C11.7908 33.4526 11.0732 34.1671 10.1903 34.1671C9.30742 34.1671 8.58984 33.4526 8.58984 32.5735C8.58984 31.6945 9.30742 30.98 10.1903 30.98C11.0732 30.98 11.7908 31.6945 11.7908 32.5735Z" fill="white"/>
<path d="M92.4301 47.518C92.4301 48.6983 91.4698 49.6544 90.2844 49.6544C89.099 49.6544 88.1387 48.6983 88.1387 47.518C88.1387 46.3377 89.099 45.3816 90.2844 45.3816C91.4698 45.3816 92.4301 46.3377 92.4301 47.518Z" fill="white"/>
<path d="M120.374 39.6518C120.374 40.8216 119.421 41.7672 118.25 41.7672C117.078 41.7672 116.125 40.8216 116.125 39.6518C116.125 38.482 117.075 37.5364 118.25 37.5364C119.424 37.5364 120.374 38.482 120.374 39.6518Z" fill="white"/>
<path d="M29.3227 3.37457C29.3227 4.20463 28.6474 4.87708 27.8137 4.87708C26.9801 4.87708 26.3047 4.20463 26.3047 3.37457C26.3047 2.54452 26.9801 1.87207 27.8137 1.87207C28.6474 1.87207 29.3227 2.54452 29.3227 3.37457Z" fill="white"/>
<path d="M4.57983 57.468C4.57983 58.7254 3.55623 59.748 2.28991 59.748C1.0236 59.748 0 58.7289 0 57.468C0 56.2072 1.0236 55.188 2.28991 55.188C3.55623 55.188 4.57983 56.2072 4.57983 57.468Z" fill="white"/>
</svg>
