<?xml version="1.0" encoding="UTF-8"?>
<svg id="_Слой_2" data-name="Слой 2" xmlns="http://www.w3.org/2000/svg" xmlns:xlink="http://www.w3.org/1999/xlink" viewBox="0 0 251.61 323.25">
  <defs>
    <style>
      .cls-1 {
        fill: #bc9b58;
      }

      .cls-2 {
        fill: none;
      }

      .cls-3 {
        fill: #fbf3d3;
      }

      .cls-4 {
        fill: #600c12;
        stroke: #600c12;
        stroke-miterlimit: 10;
      }

      .cls-5 {
        fill: #876832;
      }

      .cls-6 {
        fill: #e0c281;
      }

      .cls-7 {
        fill: #475651;
      }

      .cls-8 {
        fill: #66756f;
      }

      .cls-9 {
        clip-path: url(#clippath);
      }
    </style>
    <clipPath id="clippath">
      <path class="cls-2" d="M120.16,85.1c-62.05,3.12-109.82,55.95-106.7,118,3.12,62.05,55.95,109.82,118,106.7,62.05-3.12,109.82-55.95,106.7-118-3.12-62.05-55.95-109.82-118-106.7ZM130.84,297.57c-55.29,2.78-102.37-39.79-105.15-95.09-2.78-55.29,39.79-102.37,95.09-105.15s102.37,39.79,105.15,95.09c2.78,55.29-39.79,102.37-95.09,105.15Z"/>
    </clipPath>
  </defs>
  <g id="_Слой_1-2" data-name="Слой 1">
    <g>
      <path class="cls-8" d="M125.36,62.23c-17.16,0-31.12-13.96-31.12-31.12S108.2,0,125.36,0s31.12,13.96,31.12,31.12-13.96,31.12-31.12,31.12ZM125.36,4.46c-14.7,0-26.66,11.96-26.66,26.66s11.96,26.66,26.66,26.66,26.66-11.96,26.66-26.66-11.96-26.66-26.66-26.66Z"/>
      <path class="cls-1" d="M127.48,87.22h-4.25v-35.05c0-1.17.95-2.13,2.13-2.13h0c1.17,0,2.13.95,2.13,2.13v35.05Z"/>
      <ellipse class="cls-7" cx="125.36" cy="71.08" rx="10.9" ry="5.87"/>
      <g>
        <g>
          <circle class="cls-6" cx="125.8" cy="197.45" r="125.8"/>
          <path class="cls-5" d="M189.89,92.45c2.9,1.89,5.73,3.89,8.48,6.01,2.73,2.1,5.38,4.31,7.93,6.62,2.55,2.31,5.02,4.71,7.39,7.21,2.38,2.51,4.67,5.12,6.85,7.81,2.17,2.68,4.23,5.44,6.18,8.28.24.35.48.7.72,1.06.15.23.53.01.37-.22-1.94-2.88-3.99-5.69-6.14-8.41-2.15-2.71-4.41-5.34-6.77-7.88-2.37-2.55-4.83-5-7.39-7.35-2.55-2.34-5.19-4.59-7.92-6.73-2.72-2.14-5.53-4.17-8.41-6.08-.35-.24-.71-.47-1.07-.7-.23-.15-.45.22-.22.37h0Z"/>
          <path class="cls-5" d="M5.33,219.94c.82,4.18,1.86,8.31,3.12,12.38,1.26,4.05,2.74,8.04,4.42,11.94,1.69,3.91,3.59,7.73,5.68,11.44,2.09,3.71,4.39,7.31,6.86,10.77,2.47,3.45,5.12,6.77,7.95,9.94.35.4.71.79,1.07,1.18.19.21.5-.1.31-.31-2.88-3.14-5.58-6.43-8.1-9.86-2.5-3.41-4.82-6.95-6.94-10.6-2.13-3.65-4.06-7.42-5.79-11.28-1.74-3.88-3.27-7.86-4.59-11.91-1.31-4.03-2.4-8.14-3.27-12.29-.11-.5-.21-1.01-.31-1.51-.05-.27-.47-.16-.42.12h0Z"/>
        </g>
        <path class="cls-5" d="M46.87,289.5c1.81,1.81,3.74,3.49,5.77,5.03,2.03,1.54,4.16,2.94,6.38,4.19,1.25.71,2.53,1.36,3.83,1.97.25.12.47-.26.22-.37-2.3-1.07-4.52-2.3-6.66-3.67-2.13-1.38-4.18-2.89-6.1-4.55-1.08-.93-2.13-1.9-3.14-2.9-.2-.2-.5.11-.31.31h0Z"/>
        <path class="cls-5" d="M74.78,85.79c3.7-1.72,7.48-3.25,11.34-4.57,3.82-1.31,7.71-2.43,11.65-3.34,3.97-.92,7.99-1.65,12.03-2.16,4.01-.51,8.04-.81,12.08-.91,4.04-.1,8.08.02,12.11.34.51.04,1.02.09,1.54.13.28.03.28-.41,0-.43-4.06-.38-8.14-.54-12.22-.5-4.08.05-8.15.31-12.2.77-4.03.46-8.04,1.13-12.01,2-3.98.87-7.92,1.95-11.79,3.23-3.85,1.27-7.64,2.75-11.34,4.41-.47.21-.94.43-1.4.64-.25.12-.03.49.22.37h0Z"/>
      </g>
      <circle class="cls-3" cx="125.8" cy="197.45" r="112.5"/>
      <g class="cls-9">
        <rect class="cls-1" x="125.33" y="56.06" width="9" height="266.18" transform="translate(-9.34 6.76) rotate(-2.88)"/>
        <rect class="cls-1" x="125.33" y="56.06" width="9" height="266.18" transform="translate(312.23 49.98) rotate(87.12)"/>
        <rect class="cls-1" x="125.33" y="56.06" width="9" height="266.18" transform="translate(160.4 -38.23) rotate(42.12)"/>
        <rect class="cls-1" x="125.33" y="56.06" width="9" height="266.18" transform="translate(351.93 131.65) rotate(109.95)"/>
        <rect class="cls-1" x="125.33" y="56.06" width="9" height="266.18" transform="translate(249.27 -6.73) rotate(65.84)"/>
        <rect class="cls-1" x="125.33" y="56.06" width="9" height="266.18" transform="translate(357.21 219.71) rotate(132.12)"/>
        <rect class="cls-1" x="125.33" y="56.06" width="9" height="266.18" transform="translate(187.33 411.25) rotate(-160.05)"/>
        <rect class="cls-1" x="125.33" y="56.06" width="9" height="266.18" transform="translate(-66.05 69.71) rotate(-24.16)"/>
      </g>
      <path class="cls-1" d="M125.8,298.07c-13.58,0-26.76-2.66-39.17-7.91-11.98-5.07-22.74-12.32-31.98-21.56-9.24-9.24-16.5-20-21.56-31.98-5.25-12.41-7.91-25.58-7.91-39.17s2.66-26.76,7.91-39.17c5.07-11.98,12.32-22.74,21.56-31.98,9.24-9.24,20-16.5,31.98-21.56,12.41-5.25,25.58-7.91,39.17-7.91s26.76,2.66,39.17,7.91c11.98,5.07,22.74,12.32,31.98,21.56,9.24,9.24,16.5,20,21.56,31.98,5.25,12.41,7.91,25.58,7.91,39.17s-2.66,26.76-7.91,39.17c-5.07,11.98-12.32,22.74-21.56,31.98-9.24,9.24-20,16.5-31.98,21.56-12.41,5.25-25.58,7.91-39.17,7.91ZM125.8,97.69c-55,0-99.75,44.75-99.75,99.75s44.75,99.75,99.75,99.75,99.75-44.75,99.75-99.75-44.75-99.75-99.75-99.75Z"/>
      <g>
        <polygon class="cls-6" points="104.58 222.57 87.47 235.97 100.68 218.68 104.58 222.57"/>
        <polygon class="cls-6" points="93.03 200.2 71.46 197.58 93.03 194.7 93.03 200.2"/>
        <polygon class="cls-6" points="128.56 230.22 125.94 251.8 123.05 230.22 128.56 230.22"/>
        <polygon class="cls-6" points="100.68 176.22 87.28 159.11 104.58 172.33 100.68 176.22"/>
        <g>
          <g>
            <g>
              <polygon class="cls-6" points="136.5 166.61 142.9 159.02 142.39 169.02 136.5 166.61"/>
              <polygon class="cls-6" points="109.62 169.02 108.79 159.13 115.5 166.57 109.62 169.02"/>
            </g>
            <g>
              <polygon class="cls-6" points="115.19 228.41 108.79 235.99 109.31 225.99 115.19 228.41"/>
              <polygon class="cls-6" points="142.07 225.99 142.9 235.88 136.2 228.44 142.07 225.99"/>
            </g>
          </g>
          <g>
            <g>
              <polygon class="cls-6" points="157.08 208.32 164.66 214.73 154.66 214.21 157.08 208.32"/>
              <polygon class="cls-6" points="154.66 181.45 164.55 180.61 157.11 187.32 154.66 181.45"/>
            </g>
            <g>
              <polygon class="cls-6" points="94.62 187.02 87.03 180.61 97.03 181.13 94.62 187.02"/>
              <polygon class="cls-6" points="97.03 213.89 87.14 214.73 94.58 208.02 97.03 213.89"/>
            </g>
          </g>
          <polygon class="cls-6" points="147.03 172.33 164.14 158.93 150.93 176.22 147.03 172.33"/>
          <polygon class="cls-6" points="158.58 194.7 180.15 197.32 158.58 200.2 158.58 194.7"/>
          <polygon class="cls-6" points="123.05 164.67 125.67 143.1 128.56 164.67 123.05 164.67"/>
          <polygon class="cls-6" points="150.93 218.68 164.33 235.79 147.03 222.57 150.93 218.68"/>
          <path class="cls-1" d="M125.8,230.67c-8.87,0-17.22-3.46-23.49-9.73-6.27-6.27-9.73-14.62-9.73-23.49s3.46-17.22,9.73-23.49c6.27-6.28,14.62-9.73,23.49-9.73s17.22,3.46,23.49,9.73c6.28,6.27,9.73,14.62,9.73,23.49s-3.46,17.22-9.73,23.49c-6.27,6.27-14.62,9.73-23.49,9.73ZM125.8,164.96c-8.32,0-16.65,3.17-22.98,9.5-12.67,12.67-12.67,33.29,0,45.96,6.34,6.34,14.66,9.5,22.98,9.5,8.32,0,16.64-3.17,22.98-9.5,6.14-6.14,9.52-14.3,9.52-22.98s-3.38-16.84-9.52-22.98c-6.34-6.34-14.66-9.5-22.98-9.5Z"/>
          <path class="cls-1" d="M125.8,226.25c-7.38,0-14.76-2.81-20.37-8.43-11.23-11.23-11.23-29.51,0-40.75,11.23-11.23,29.51-11.23,40.75,0,11.23,11.23,11.23,29.51,0,40.75-5.62,5.62-13,8.43-20.37,8.43ZM125.8,169.37c-7.19,0-14.39,2.74-19.86,8.21-10.95,10.95-10.95,28.77,0,39.73,10.95,10.95,28.77,10.95,39.73,0,10.95-10.95,10.95-28.77,0-39.73-5.48-5.48-12.67-8.21-19.86-8.21Z"/>
        </g>
      </g>
      <path class="cls-1" d="M125.8,311.34c-15.37,0-30.29-3.01-44.33-8.95-13.56-5.74-25.74-13.95-36.2-24.41s-18.67-22.64-24.41-36.2c-5.94-14.04-8.95-28.96-8.95-44.33s3.01-30.29,8.95-44.33c5.74-13.56,13.95-25.74,24.41-36.2,10.46-10.46,22.64-18.67,36.2-24.41,14.04-5.94,28.96-8.95,44.33-8.95s30.29,3.01,44.33,8.95c13.56,5.74,25.74,13.95,36.2,24.41,10.46,10.46,18.67,22.64,24.41,36.2,5.94,14.04,8.95,28.96,8.95,44.33s-3.01,30.29-8.95,44.33c-5.74,13.56-13.95,25.74-24.41,36.2-10.46,10.46-22.64,18.67-36.2,24.41-14.04,5.94-28.96,8.95-44.33,8.95ZM125.8,84.72c-62.16,0-112.73,50.57-112.73,112.73s50.57,112.73,112.73,112.73,112.73-50.57,112.73-112.73-50.57-112.73-112.73-112.73Z"/>
      <g>
        <g>
          <g>
            <path class="cls-1" d="M127.96,114.92c0,1.19-.97,2.16-2.16,2.16s-2.16-.97-2.16-2.16.97-2.16,2.16-2.16,2.16.97,2.16,2.16Z"/>
            <path class="cls-1" d="M127.96,279.98c0,1.19-.97,2.16-2.16,2.16s-2.16-.97-2.16-2.16.97-2.16,2.16-2.16,2.16.97,2.16,2.16Z"/>
          </g>
          <g>
            <path class="cls-1" d="M208.34,199.61c-1.19,0-2.16-.97-2.16-2.16s.97-2.16,2.16-2.16,2.16.97,2.16,2.16-.97,2.16-2.16,2.16Z"/>
            <circle class="cls-1" cx="43.27" cy="197.45" r="2.16"/>
          </g>
        </g>
        <g>
          <g>
            <path class="cls-1" d="M185.69,140.62c-.84.84-2.21.84-3.05,0-.84-.84-.84-2.21,0-3.05s2.21-.84,3.05,0,.84,2.21,0,3.05Z"/>
            <path class="cls-1" d="M68.97,257.33c-.84.84-2.21.84-3.05,0-.84-.84-.84-2.21,0-3.05.84-.84,2.21-.84,3.05,0s.84,2.21,0,3.05Z"/>
          </g>
          <g>
            <path class="cls-1" d="M182.64,257.33c-.84-.84-.84-2.21,0-3.05s2.21-.84,3.05,0,.84,2.21,0,3.05c-.84.84-2.21.84-3.05,0Z"/>
            <path class="cls-1" d="M65.92,140.62c-.84-.84-.84-2.21,0-3.05.84-.84,2.21-.84,3.05,0s.84,2.21,0,3.05c-.84.84-2.21.84-3.05,0Z"/>
          </g>
        </g>
      </g>
      <path class="cls-7" d="M125.8,295.31c-.3,0-.6,0-.89,0l.02-2.6c.43,0,.86,0,1.29,0v2.6c-.13,0-.27,0-.42,0ZM127.55,295.3l-.05-2.6c.43,0,.86-.02,1.28-.03l.08,2.6c-.44.01-.88.02-1.32.03ZM123.59,295.29c-.44,0-.88-.02-1.32-.04l.09-2.6c.43.02.86.03,1.29.04l-.06,2.6ZM130.19,295.22l-.11-2.6c.43-.02.86-.04,1.29-.07l.15,2.6c-.44.03-.88.05-1.32.07ZM120.95,295.19c-.44-.02-.88-.05-1.32-.07l.16-2.6c.43.03.86.05,1.28.07l-.13,2.6ZM132.83,295.06l-.18-2.6c.43-.03.86-.06,1.28-.1l.22,2.59c-.44.04-.88.07-1.32.1ZM118.31,295.03c-.44-.03-.88-.07-1.32-.11l.23-2.59c.43.04.85.07,1.28.11l-.2,2.59ZM135.46,294.84l-.25-2.59c.43-.04.85-.09,1.28-.13l.29,2.59c-.44.05-.88.09-1.31.14ZM115.68,294.79c-.44-.05-.88-.09-1.31-.14l.3-2.58c.43.05.85.1,1.28.14l-.27,2.59ZM138.09,294.55l-.32-2.58c.43-.05.85-.11,1.28-.17l.36,2.58c-.44.06-.87.12-1.31.17ZM113.05,294.49c-.44-.06-.87-.12-1.31-.18l.37-2.58c.42.06.85.12,1.27.17l-.34,2.58ZM140.7,294.18l-.39-2.57c.42-.06.85-.13,1.27-.2l.43,2.57c-.43.07-.87.14-1.31.21ZM110.44,294.11c-.44-.07-.87-.14-1.3-.21l.44-2.56c.42.07.85.14,1.27.21l-.41,2.57ZM143.31,293.75l-.46-2.56c.42-.08.84-.16,1.26-.24l.5,2.55c-.43.08-.87.17-1.3.24ZM107.83,293.66c-.43-.08-.87-.16-1.3-.25l.51-2.55c.42.08.84.17,1.26.24l-.48,2.56ZM145.91,293.24l-.53-2.55c.42-.09.84-.18,1.26-.27l.57,2.54c-.43.1-.86.19-1.29.28ZM105.24,293.15c-.43-.09-.86-.19-1.29-.29l.58-2.54c.42.1.84.19,1.26.28l-.54,2.54ZM148.49,292.67l-.6-2.53c.42-.1.83-.2,1.25-.31l.64,2.52c-.43.11-.85.21-1.28.31ZM102.66,292.56c-.43-.1-.86-.21-1.28-.32l.65-2.52c.41.11.83.21,1.25.31l-.61,2.53ZM151.05,292.02l-.67-2.51c.41-.11.83-.22,1.24-.34l.7,2.51c-.42.12-.85.24-1.27.35ZM100.1,291.9c-.43-.12-.85-.23-1.27-.36l.72-2.5c.41.12.83.23,1.24.35l-.68,2.51ZM153.6,291.31l-.74-2.5c.41-.12.82-.25,1.23-.37l.77,2.49c-.42.13-.84.26-1.26.38ZM97.56,291.17c-.42-.13-.85-.26-1.27-.39l.78-2.48c.41.13.82.26,1.23.38l-.75,2.49ZM156.12,290.52l-.81-2.47c.41-.13.82-.27,1.22-.41l.84,2.46c-.42.14-.83.28-1.25.42ZM95.03,290.37c-.42-.14-.84-.28-1.26-.43l.85-2.46c.41.14.81.28,1.22.41l-.82,2.47ZM158.62,289.67l-.87-2.45c.4-.14.81-.29,1.21-.44l.91,2.44c-.41.15-.83.3-1.24.45ZM92.52,289.5c-.42-.15-.83-.3-1.24-.46l.92-2.43c.4.15.81.3,1.21.45l-.88,2.45ZM161.1,288.75l-.94-2.43c.4-.15.8-.31,1.2-.47l.97,2.41c-.41.16-.82.33-1.23.49ZM90.04,288.57c-.41-.16-.82-.33-1.23-.49l.98-2.41c.4.16.8.32,1.2.48l-.95,2.42ZM163.55,287.77l-1-2.4c.39-.17.79-.33,1.18-.5l1.04,2.39c-.4.17-.81.35-1.21.52ZM87.58,287.57c-.41-.17-.81-.35-1.22-.53l1.05-2.38c.39.17.79.34,1.18.51l-1.02,2.4ZM165.96,286.72l-1.07-2.37c.39-.18.78-.35,1.17-.53l1.1,2.36c-.4.19-.8.37-1.2.55ZM85.16,286.5c-.4-.18-.8-.37-1.2-.56l1.11-2.35c.39.18.78.37,1.17.54l-1.08,2.37ZM168.35,285.6l-1.13-2.34c.38-.19.77-.37,1.15-.57l1.16,2.33c-.39.2-.79.39-1.18.58ZM82.76,285.36c-.4-.19-.79-.39-1.19-.59l1.18-2.32c.38.19.77.39,1.15.58l-1.15,2.34ZM170.71,284.42l-1.2-2.31c.38-.2.76-.4,1.14-.6l1.23,2.29c-.39.21-.78.41-1.17.61ZM80.4,284.16c-.39-.21-.78-.41-1.17-.62l1.24-2.29c.38.2.76.41,1.14.61l-1.21,2.3ZM173.03,283.18l-1.26-2.28c.37-.21.75-.42,1.12-.63l1.29,2.26c-.38.22-.76.43-1.15.64ZM78.07,282.9c-.39-.22-.77-.43-1.15-.65l1.3-2.25c.37.21.75.43,1.12.64l-1.27,2.27ZM175.32,281.88l-1.32-2.24c.37-.22.74-.44,1.1-.66l1.35,2.23c-.38.23-.75.45-1.13.68ZM75.78,281.57c-.38-.23-.76-.45-1.13-.69l1.36-2.22c.37.22.73.45,1.1.67l-1.33,2.23ZM177.58,280.51l-1.38-2.21c.36-.23.72-.46,1.08-.69l1.41,2.19c-.37.24-.74.47-1.11.71ZM73.52,280.19c-.37-.24-.74-.47-1.11-.72l1.42-2.18c.36.23.72.47,1.08.7l-1.39,2.2ZM179.8,279.08l-1.44-2.17c.36-.24.71-.48,1.07-.72l1.47,2.15c-.36.25-.73.49-1.1.74ZM71.3,278.74c-.37-.25-.73-.49-1.09-.75l1.48-2.14c.35.24.71.49,1.06.73l-1.45,2.16ZM181.97,277.6l-1.5-2.13c.35-.25.7-.49,1.05-.75l1.52,2.11c-.36.26-.71.51-1.07.77ZM69.13,277.24c-.36-.26-.72-.51-1.07-.77l1.54-2.1c.35.25.69.5,1.04.75l-1.51,2.12ZM184.11,276.05l-1.55-2.09c.34-.26.69-.51,1.03-.77l1.58,2.07c-.35.27-.7.53-1.05.79ZM66.99,275.67c-.35-.27-.7-.53-1.05-.8l1.59-2.06c.34.26.68.52,1.02.78l-1.57,2.08ZM186.21,274.45l-1.61-2.05c.34-.26.67-.53,1.01-.8l1.63,2.02c-.34.28-.69.55-1.03.82ZM64.9,274.05c-.34-.27-.69-.55-1.03-.83l1.65-2.01c.33.27.67.54,1,.81l-1.62,2.04ZM188.27,272.79l-1.66-2c.33-.27.66-.55.98-.83l1.69,1.98c-.33.29-.67.57-1.01.85ZM62.85,272.38c-.34-.28-.67-.57-1.01-.86l1.7-1.97c.32.28.65.56.98.84l-1.67,1.99ZM190.27,271.08l-1.71-1.96c.32-.28.64-.57.96-.85l1.74,1.93c-.33.29-.66.59-.99.88ZM60.85,270.65c-.33-.29-.66-.59-.98-.88l1.75-1.92c.32.29.64.58.96.86l-1.73,1.95ZM192.24,269.31l-1.77-1.91c.31-.29.63-.58.94-.88l1.79,1.89c-.32.3-.64.6-.96.9ZM58.9,268.87c-.32-.3-.64-.6-.96-.91l1.8-1.87c.31.3.62.59.93.89l-1.78,1.9ZM194.15,267.49l-1.82-1.86c.31-.3.61-.6.91-.9l1.84,1.84c-.31.31-.62.62-.94.93ZM57,267.04c-.31-.31-.62-.62-.93-.94l1.85-1.83c.3.31.6.61.91.91l-1.83,1.85ZM196.02,265.62l-1.87-1.81c.3-.31.6-.62.89-.93l1.89,1.79c-.3.32-.61.64-.91.95ZM55.14,265.15c-.3-.32-.61-.64-.91-.96l1.9-1.78c.29.31.59.63.88.93l-1.88,1.8ZM197.84,263.7l-1.91-1.76c.29-.32.58-.63.87-.95l1.94,1.74c-.29.33-.59.65-.89.98ZM53.34,263.22c-.3-.33-.59-.65-.88-.98l1.95-1.72c.28.32.57.64.86.96l-1.93,1.75ZM199.6,261.73l-1.96-1.71c.28-.32.56-.65.84-.98l1.98,1.68c-.29.34-.57.67-.86,1ZM51.59,261.24c-.29-.33-.57-.67-.85-1.01l1.99-1.67c.28.33.55.66.83.98l-1.97,1.7ZM201.31,259.71l-2.01-1.66c.27-.33.54-.66.81-1l2.03,1.63c-.28.34-.55.69-.84,1.03ZM49.9,259.22c-.28-.34-.55-.68-.83-1.03l2.04-1.62c.27.34.53.67.8,1l-2.02,1.64ZM202.97,257.65l-2.05-1.6c.26-.34.53-.68.79-1.02l2.07,1.57c-.27.35-.54.7-.81,1.05ZM48.26,257.15c-.27-.35-.53-.7-.8-1.05l2.08-1.56c.26.34.52.68.78,1.02l-2.06,1.59ZM204.57,255.54l-2.09-1.55c.26-.35.51-.69.76-1.04l2.11,1.52c-.26.36-.52.71-.78,1.07ZM46.67,255.04c-.26-.36-.52-.71-.77-1.07l2.12-1.5c.25.35.5.7.75,1.04l-2.1,1.53ZM206.11,253.39l-2.13-1.49c.25-.35.49-.71.73-1.06l2.15,1.46c-.25.37-.5.73-.75,1.09ZM45.15,252.88c-.25-.36-.5-.73-.74-1.09l2.16-1.45c.24.36.48.71.72,1.06l-2.14,1.48ZM207.59,251.2l-2.17-1.43c.24-.36.47-.72.7-1.08l2.19,1.4c-.24.37-.48.74-.72,1.11ZM43.68,250.69c-.24-.37-.48-.74-.71-1.11l2.2-1.39c.23.36.46.72.69,1.08l-2.18,1.42ZM209.02,248.97l-2.21-1.37c.23-.36.45-.73.67-1.1l2.23,1.34c-.23.38-.46.75-.69,1.13ZM42.27,248.46c-.23-.37-.46-.75-.68-1.13l2.24-1.33c.22.37.44.73.66,1.1l-2.22,1.36ZM210.39,246.7l-2.25-1.31c.22-.37.43-.74.64-1.12l2.26,1.28c-.22.38-.44.77-.66,1.15ZM40.93,246.19c-.22-.38-.44-.76-.65-1.15l2.27-1.27c.21.37.42.75.63,1.12l-2.26,1.3ZM211.69,244.4l-2.28-1.25c.21-.38.41-.76.61-1.14l2.3,1.22c-.21.39-.42.78-.63,1.17ZM39.64,243.89c-.21-.39-.41-.77-.62-1.16l2.31-1.2c.2.38.4.76.6,1.13l-2.29,1.24ZM212.93,242.06l-2.31-1.19c.2-.38.39-.77.58-1.15l2.33,1.16c-.2.4-.4.79-.6,1.18ZM38.42,241.56c-.2-.39-.39-.78-.59-1.18l2.34-1.14c.19.38.38.77.57,1.15l-2.32,1.17ZM214.11,239.68l-2.35-1.12c.19-.39.37-.78.55-1.17l2.36,1.09c-.19.4-.37.8-.56,1.2ZM37.27,239.19c-.19-.4-.37-.8-.55-1.19l2.37-1.08c.18.39.36.78.54,1.16l-2.35,1.11ZM215.22,237.28l-2.38-1.06c.18-.39.35-.79.52-1.18l2.39,1.03c-.17.41-.35.81-.53,1.21ZM36.17,236.79c-.18-.4-.35-.8-.52-1.21l2.4-1.01c.17.39.34.79.51,1.18l-2.38,1.05ZM216.27,234.84l-2.4-.99c.16-.4.33-.8.49-1.2l2.42.96c-.16.41-.33.82-.5,1.23ZM35.15,234.37c-.17-.41-.33-.82-.49-1.23l2.42-.95c.16.4.32.8.48,1.19l-2.41.98ZM217.25,232.38l-2.43-.93c.15-.4.3-.8.45-1.21l2.44.9c-.15.42-.31.83-.47,1.24ZM34.18,231.91c-.16-.41-.31-.83-.46-1.24l2.45-.88c.15.4.29.81.44,1.21l-2.44.92ZM218.16,229.89l-2.45-.86c.14-.41.28-.81.42-1.22l2.47.83c-.14.42-.28.84-.43,1.26ZM33.28,229.42c-.14-.42-.28-.83-.42-1.25l2.47-.82c.13.41.27.81.41,1.22l-2.46.85ZM219.01,227.37l-2.48-.79c.13-.41.26-.82.39-1.23l2.49.76c-.13.42-.26.85-.4,1.27ZM32.46,226.91c-.13-.42-.26-.84-.39-1.26l2.49-.75c.12.41.25.82.38,1.23l-2.48.78ZM219.78,224.84l-2.5-.73c.12-.41.24-.82.35-1.24l2.51.69c-.12.43-.24.85-.36,1.27ZM31.69,224.38c-.12-.42-.24-.85-.35-1.27l2.51-.68c.11.41.23.83.34,1.24l-2.5.71ZM220.49,222.29l-2.52-.66c.11-.41.21-.83.32-1.25l2.53.62c-.11.43-.21.86-.33,1.28ZM31,221.83c-.11-.43-.22-.85-.32-1.28l2.53-.61c.1.42.2.83.31,1.25l-2.52.65ZM221.12,219.72l-2.53-.59c.1-.42.19-.84.28-1.26l2.54.56c-.09.43-.19.86-.29,1.29ZM30.38,219.26c-.1-.43-.19-.86-.28-1.29l2.54-.54c.09.42.18.84.28,1.26l-2.54.58ZM221.68,217.14l-2.55-.52c.09-.42.17-.84.25-1.26l2.56.49c-.08.43-.17.87-.26,1.3ZM29.83,216.67c-.09-.43-.17-.86-.25-1.3l2.56-.47c.08.42.16.84.24,1.26l-2.55.51ZM222.18,214.54l-2.56-.45c.07-.42.15-.84.21-1.27l2.57.42c-.07.44-.14.87-.22,1.3ZM29.35,214.07c-.07-.43-.15-.87-.21-1.3l2.57-.4c.07.42.14.85.21,1.27l-2.56.44ZM222.6,211.93l-2.57-.38c.06-.42.12-.85.18-1.27l2.58.35c-.06.44-.12.87-.19,1.31ZM28.94,211.46c-.06-.44-.12-.87-.18-1.31l2.58-.33c.06.43.11.85.17,1.27l-2.58.37ZM222.95,209.31l-2.58-.31c.05-.43.1-.85.15-1.28l2.59.28c-.05.44-.1.88-.15,1.31ZM28.6,208.84c-.05-.44-.1-.87-.14-1.31l2.59-.27c.04.43.09.85.14,1.28l-2.58.3ZM223.24,206.69l-2.59-.24c.04-.43.08-.85.11-1.28l2.59.21c-.04.44-.07.88-.11,1.32ZM28.33,206.21c-.04-.44-.07-.88-.11-1.32l2.59-.2c.03.43.07.86.11,1.28l-2.59.23ZM223.45,204.05l-2.6-.17c.03-.43.05-.86.08-1.28l2.6.14c-.02.44-.05.88-.08,1.32ZM28.13,203.57c-.03-.44-.05-.88-.07-1.32l2.6-.13c.02.43.04.86.07,1.29l-2.6.16ZM223.59,201.41l-2.6-.1c.02-.43.03-.86.04-1.29l2.6.07c-.01.44-.03.88-.04,1.32ZM28,200.93c-.02-.44-.03-.88-.04-1.32l2.6-.06c0,.43.02.86.04,1.28l-2.6.09ZM223.66,198.77l-2.6-.03c0-.43,0-.86,0-1.29h2.6c0,.44,0,.88,0,1.32ZM27.95,198.3c0-.28,0-.56,0-.85,0-.16,0-.32,0-.47h2.6c0,.17,0,.32,0,.47,0,.28,0,.55,0,.83l-2.6.02ZM221.06,197.08c0-.43,0-.86-.01-1.29l2.6-.04c0,.44.01.88.01,1.32h-2.6ZM30.56,195.7l-2.6-.05c0-.44.02-.88.03-1.32l2.6.08c-.01.43-.02.86-.03,1.29ZM221.02,194.51c-.01-.43-.03-.86-.05-1.28l2.6-.11c.02.44.04.88.05,1.32l-2.6.08ZM30.64,193.13l-2.6-.12c.02-.44.04-.88.07-1.32l2.6.15c-.02.43-.05.86-.07,1.29ZM220.91,191.94c-.02-.43-.05-.86-.08-1.28l2.6-.18c.03.44.06.88.08,1.32l-2.6.15ZM30.79,190.56l-2.6-.19c.03-.44.07-.88.1-1.32l2.59.22c-.04.43-.07.85-.1,1.28ZM220.73,189.38c-.04-.43-.07-.86-.12-1.28l2.59-.25c.04.44.08.88.12,1.32l-2.59.22ZM31.01,188l-2.59-.26c.04-.44.09-.88.14-1.31l2.59.29c-.05.43-.09.85-.13,1.28ZM220.48,186.82c-.05-.43-.1-.85-.15-1.28l2.58-.32c.05.44.11.87.15,1.31l-2.59.29ZM31.29,185.44l-2.58-.32c.06-.44.11-.87.17-1.31l2.58.36c-.06.42-.12.85-.17,1.28ZM220.16,184.26c-.06-.43-.12-.85-.19-1.27l2.57-.39c.07.43.13.87.19,1.31l-2.58.36ZM31.65,182.89l-2.57-.39c.07-.44.14-.87.21-1.31l2.57.43c-.07.42-.14.85-.2,1.27ZM219.77,181.72c-.07-.42-.14-.85-.22-1.27l2.56-.46c.08.43.15.87.23,1.3l-2.57.43ZM32.07,180.35l-2.56-.46c.08-.43.16-.87.24-1.3l2.55.5c-.08.42-.16.84-.24,1.26ZM219.32,179.19c-.08-.42-.17-.84-.25-1.26l2.55-.53c.09.43.18.86.26,1.3l-2.55.5ZM32.57,177.83l-2.55-.53c.09-.43.18-.86.28-1.29l2.54.57c-.09.42-.18.84-.27,1.26ZM218.79,176.67c-.09-.42-.19-.84-.29-1.25l2.53-.6c.1.43.2.86.3,1.29l-2.54.57ZM33.13,175.32l-2.53-.6c.1-.43.21-.86.31-1.28l2.52.64c-.1.42-.21.83-.31,1.25ZM218.2,174.17c-.1-.42-.21-.83-.32-1.25l2.51-.67c.11.43.22.85.33,1.28l-2.52.63ZM33.76,172.82l-2.51-.67c.11-.43.23-.85.35-1.27l2.5.71c-.12.41-.23.83-.34,1.24ZM217.54,171.68c-.12-.41-.23-.83-.36-1.24l2.5-.74c.12.42.25.85.37,1.27l-2.51.7ZM34.46,170.35l-2.49-.74c.13-.42.25-.84.38-1.26l2.48.77c-.13.41-.25.82-.37,1.23ZM216.81,169.21c-.13-.41-.26-.82-.39-1.23l2.47-.8c.14.42.27.84.4,1.26l-2.49.77ZM35.22,167.88l-2.47-.81c.14-.42.28-.84.42-1.26l2.46.84c-.14.41-.28.82-.41,1.23ZM216.02,166.76c-.14-.41-.28-.81-.42-1.22l2.45-.87c.15.41.29.83.43,1.25l-2.46.84ZM36.06,165.44l-2.45-.87c.15-.42.3-.83.45-1.25l2.44.91c-.15.4-.3.81-.44,1.21ZM215.15,164.34c-.15-.4-.3-.8-.46-1.2l2.43-.94c.16.41.31.82.47,1.24l-2.44.9ZM36.96,163.02l-2.43-.94c.16-.41.32-.82.49-1.23l2.41.97c-.16.4-.32.8-.47,1.2ZM214.23,161.94c-.16-.4-.32-.79-.49-1.19l2.4-1c.17.4.34.81.5,1.22l-2.41.97ZM37.92,160.63l-2.4-1.01c.17-.41.34-.81.52-1.22l2.39,1.04c-.17.39-.34.79-.51,1.19ZM213.24,159.58c-.17-.39-.34-.78-.52-1.17l2.37-1.07c.18.4.36.8.53,1.2l-2.39,1.04ZM38.95,158.26l-2.37-1.07c.18-.4.37-.8.55-1.2l2.36,1.1c-.18.39-.36.78-.54,1.17ZM212.19,157.24c-.18-.39-.36-.77-.55-1.16l2.34-1.13c.19.4.38.79.56,1.19l-2.36,1.1ZM40.05,155.92l-2.34-1.14c.19-.4.39-.79.59-1.19l2.33,1.17c-.19.38-.38.77-.57,1.16ZM211.07,154.93c-.19-.38-.38-.76-.58-1.14l2.31-1.19c.2.39.4.78.6,1.17l-2.33,1.16ZM41.21,153.62l-2.31-1.2c.2-.39.41-.78.62-1.17l2.29,1.23c-.2.38-.4.76-.6,1.14ZM209.9,152.65c-.2-.38-.41-.75-.61-1.13l2.28-1.26c.21.38.42.77.63,1.16l-2.3,1.23ZM42.42,151.35l-2.28-1.26c.21-.39.43-.77.65-1.15l2.26,1.29c-.21.37-.42.75-.63,1.12ZM208.66,150.4c-.21-.37-.43-.74-.64-1.11l2.24-1.32c.22.38.44.76.66,1.14l-2.26,1.29ZM43.7,149.11l-2.24-1.32c.22-.38.45-.76.68-1.14l2.22,1.35c-.22.37-.44.74-.66,1.11ZM207.36,148.19c-.22-.37-.45-.73-.67-1.09l2.21-1.38c.23.37.46.75.69,1.12l-2.23,1.35ZM45.04,146.91l-2.2-1.38c.23-.37.47-.75.71-1.12l2.19,1.41c-.23.36-.46.72-.69,1.09ZM206,146.01c-.23-.36-.47-.72-.7-1.08l2.17-1.44c.24.37.48.73.72,1.1l-2.19,1.41ZM46.44,144.74l-2.17-1.44c.24-.37.49-.73.74-1.1l2.15,1.47c-.24.35-.48.71-.72,1.07ZM204.58,143.87c-.24-.35-.48-.71-.73-1.06l2.13-1.49c.25.36.5.72.75,1.09l-2.15,1.47ZM47.9,142.62l-2.13-1.5c.25-.36.51-.72.77-1.08l2.11,1.53c-.25.35-.5.7-.75,1.05ZM203.11,141.77c-.25-.35-.5-.69-.76-1.04l2.09-1.55c.26.35.52.71.78,1.07l-2.11,1.52ZM49.41,140.53l-2.09-1.56c.26-.35.53-.7.8-1.05l2.06,1.58c-.26.34-.52.68-.78,1.03ZM201.57,139.7c-.26-.34-.52-.68-.79-1.02l2.05-1.61c.27.35.54.69.81,1.04l-2.07,1.58ZM50.98,138.49l-2.04-1.61c.27-.35.55-.69.83-1.03l2.02,1.64c-.27.33-.54.67-.8,1.01ZM199.99,137.68c-.27-.33-.54-.67-.81-1l2-1.66c.28.34.56.68.84,1.02l-2.03,1.63ZM52.6,136.49l-2-1.67c.28-.34.57-.68.85-1.01l1.98,1.69c-.28.33-.56.65-.83.98ZM198.35,135.7c-.28-.33-.56-.65-.84-.97l1.96-1.71c.29.33.58.66.86,1l-1.98,1.69ZM54.27,134.54l-1.95-1.72c.29-.33.58-.66.88-.99l1.93,1.75c-.29.32-.57.64-.86.96ZM196.65,133.77c-.29-.32-.58-.64-.87-.95l1.91-1.77c.3.32.6.65.89.98l-1.93,1.74ZM56,132.63l-1.91-1.77c.3-.32.6-.64.91-.96l1.88,1.8c-.3.31-.59.62-.88.94ZM194.91,131.88c-.3-.31-.59-.62-.89-.93l1.86-1.82c.31.32.61.63.92.95l-1.89,1.79ZM57.78,130.77l-1.86-1.82c.31-.31.62-.63.93-.94l1.83,1.85c-.3.3-.61.61-.91.91ZM193.11,130.04c-.3-.3-.61-.6-.92-.9l1.81-1.87c.32.31.63.62.94.93l-1.84,1.84ZM59.6,128.95l-1.81-1.87c.32-.31.64-.61.96-.91l1.78,1.89c-.31.29-.62.59-.93.89ZM191.27,128.25c-.31-.29-.63-.59-.94-.88l1.76-1.91c.32.3.65.6.97.9l-1.79,1.89ZM61.48,127.19l-1.76-1.92c.32-.3.65-.59.98-.89l1.73,1.94c-.32.29-.64.57-.95.86ZM189.37,126.5c-.32-.29-.64-.57-.96-.85l1.71-1.96c.33.29.66.58.99.88l-1.74,1.94ZM63.4,125.48l-1.71-1.97c.33-.29.67-.57,1-.86l1.68,1.99c-.33.28-.65.56-.98.84ZM187.43,124.81c-.33-.28-.66-.55-.99-.83l1.66-2.01c.34.28.68.56,1.01.85l-1.68,1.98ZM65.36,123.82l-1.65-2.01c.34-.28.68-.56,1.03-.83l1.62,2.03c-.33.27-.67.54-1,.81ZM185.45,123.17c-.33-.27-.67-.54-1.01-.8l1.6-2.05c.35.27.69.55,1.04.82l-1.63,2.03ZM67.37,122.21l-1.6-2.05c.35-.27.7-.54,1.05-.8l1.57,2.08c-.34.26-.68.52-1.02.78ZM183.42,121.58c-.34-.26-.69-.52-1.03-.77l1.55-2.09c.35.26.71.53,1.06.79l-1.58,2.07ZM69.42,120.66l-1.54-2.1c.35-.26.71-.52,1.07-.77l1.51,2.12c-.35.25-.69.5-1.04.75ZM181.35,120.05c-.35-.25-.7-.5-1.05-.74l1.49-2.13c.36.25.72.51,1.08.77l-1.52,2.11ZM71.51,119.17l-1.48-2.14c.36-.25.72-.5,1.09-.75l1.46,2.16c-.35.24-.71.48-1.06.73ZM179.24,118.58c-.36-.24-.71-.48-1.07-.72l1.43-2.17c.37.24.74.49,1.1.74l-1.46,2.15ZM73.63,117.73l-1.43-2.18c.37-.24.74-.48,1.11-.72l1.4,2.19c-.36.23-.72.46-1.08.7ZM177.09,117.16c-.36-.23-.73-.46-1.09-.69l1.37-2.21c.37.23.75.47,1.12.71l-1.4,2.19ZM75.8,116.35l-1.37-2.21c.37-.23.75-.46,1.13-.69l1.34,2.23c-.37.22-.73.44-1.1.67ZM174.9,115.8c-.37-.22-.74-.44-1.11-.66l1.31-2.25c.38.22.76.45,1.14.68l-1.34,2.23ZM78,115.03l-1.31-2.25c.38-.22.76-.44,1.14-.65l1.28,2.27c-.37.21-.74.42-1.11.64ZM172.67,114.5c-.37-.21-.75-.42-1.13-.63l1.25-2.28c.39.21.77.43,1.16.64l-1.28,2.26ZM80.24,113.77l-1.25-2.28c.39-.21.77-.42,1.16-.62l1.22,2.3c-.38.2-.75.4-1.13.61ZM170.41,113.26c-.38-.2-.76-.4-1.14-.6l1.19-2.31c.39.2.78.41,1.17.61l-1.22,2.3ZM82.51,112.58l-1.18-2.32c.39-.2.78-.4,1.18-.59l1.15,2.33c-.38.19-.77.38-1.15.58ZM168.12,112.08c-.38-.19-.77-.38-1.16-.57l1.13-2.35c.4.19.8.39,1.19.58l-1.16,2.33ZM84.8,111.44l-1.12-2.35c.4-.19.79-.38,1.19-.56l1.09,2.36c-.39.18-.78.36-1.16.54ZM165.79,110.96c-.39-.18-.78-.36-1.17-.53l1.06-2.38c.4.18.81.36,1.21.55l-1.09,2.36ZM87.13,110.37l-1.06-2.38c.4-.18.8-.35,1.21-.53l1.02,2.39c-.39.17-.78.34-1.17.51ZM163.44,109.91c-.39-.17-.79-.34-1.19-.5l1-2.4c.41.17.82.34,1.22.52l-1.03,2.39ZM89.49,109.36l-.99-2.41c.41-.17.82-.33,1.23-.5l.96,2.42c-.4.16-.8.32-1.19.48ZM161.05,108.92c-.4-.16-.8-.32-1.2-.47l.93-2.43c.41.16.82.32,1.24.48l-.96,2.42ZM91.88,108.41l-.93-2.43c.41-.16.82-.31,1.24-.46l.89,2.44c-.4.15-.8.3-1.21.45ZM158.64,108c-.4-.15-.81-.29-1.22-.44l.86-2.45c.42.15.83.3,1.25.45l-.9,2.44ZM94.3,107.52l-.86-2.46c.42-.15.83-.29,1.25-.43l.83,2.47c-.41.14-.81.28-1.22.42ZM156.21,107.14c-.41-.14-.82-.27-1.23-.4l.8-2.48c.42.14.84.27,1.26.41l-.83,2.47ZM96.73,106.71l-.79-2.48c.42-.13.84-.27,1.26-.39l.76,2.49c-.41.13-.82.25-1.23.38ZM153.75,106.35c-.41-.13-.82-.25-1.23-.37l.73-2.5c.42.12.85.25,1.27.38l-.76,2.49ZM99.2,105.96l-.73-2.5c.42-.12.85-.24,1.27-.36l.69,2.51c-.41.11-.83.23-1.24.35ZM151.28,105.63c-.41-.11-.83-.23-1.24-.33l.66-2.52c.43.11.85.23,1.28.34l-.69,2.51ZM101.68,105.27l-.66-2.52c.43-.11.85-.22,1.28-.33l.62,2.53c-.42.1-.83.21-1.25.32ZM148.79,104.98c-.42-.1-.83-.2-1.25-.3l.59-2.53c.43.1.86.2,1.29.31l-.63,2.53ZM104.17,104.66l-.59-2.53c.43-.1.86-.2,1.29-.29l.55,2.54c-.42.09-.84.19-1.26.28ZM146.28,104.4c-.42-.09-.84-.18-1.26-.27l.52-2.55c.43.09.86.18,1.29.27l-.56,2.54ZM106.69,104.11l-.52-2.55c.43-.09.86-.17,1.3-.26l.48,2.56c-.42.08-.84.16-1.26.25ZM143.76,103.88c-.42-.08-.84-.16-1.27-.23l.45-2.56c.43.08.87.16,1.3.24l-.49,2.56ZM109.22,103.63l-.45-2.56c.43-.08.87-.15,1.3-.22l.42,2.57c-.42.07-.85.14-1.27.21ZM141.23,103.43c-.42-.07-.85-.13-1.27-.2l.38-2.57c.44.06.87.13,1.31.2l-.42,2.57ZM111.76,103.22l-.38-2.57c.44-.06.87-.13,1.31-.18l.35,2.58c-.43.06-.85.12-1.27.18ZM138.68,103.05c-.42-.06-.85-.11-1.28-.16l.31-2.58c.44.05.87.11,1.31.17l-.35,2.58ZM114.31,102.88l-.31-2.58c.44-.05.87-.1,1.31-.15l.28,2.59c-.43.05-.85.09-1.28.15ZM136.13,102.74c-.43-.05-.85-.09-1.28-.13l.24-2.59c.44.04.88.09,1.31.13l-.28,2.59ZM116.86,102.6l-.24-2.59c.44-.04.88-.08,1.32-.11l.21,2.59c-.43.03-.86.07-1.28.11ZM133.57,102.5c-.43-.03-.85-.07-1.28-.09l.17-2.6c.44.03.88.06,1.32.1l-.21,2.59ZM119.43,102.4l-.17-2.6c.44-.03.88-.06,1.32-.08l.14,2.6c-.43.02-.86.05-1.28.08ZM131,102.33c-.43-.02-.86-.04-1.29-.06l.11-2.6c.44.02.88.04,1.32.06l-.14,2.6ZM122,102.26l-.1-2.6c.44-.02.88-.03,1.32-.04l.07,2.6c-.43.01-.86.02-1.28.04ZM128.43,102.22c-.43-.01-.86-.02-1.29-.03l.04-2.6c.44,0,.88.02,1.32.03l-.07,2.6ZM124.57,102.2l-.03-2.6c.42,0,.85,0,1.27,0h.05v2.6h-.05c-.41,0-.83,0-1.24,0Z"/>
      <g>
        <path class="cls-1" d="M112.15,131.16c0-.3.02-.61.05-.91-4.47.9-8.83,2.25-13.06,4.04-8.16,3.45-15.49,8.4-21.79,14.69s-11.24,13.63-14.69,21.79c-1.82,4.31-3.19,8.76-4.09,13.31.3-.05.61-.09.92-.12,5.37-26.46,26.23-47.36,52.66-52.8Z"/>
        <path class="cls-1" d="M192.14,183.89c.3,0,.6.01.9.03-.9-4.5-2.25-8.89-4.06-13.16-3.45-8.16-8.4-15.49-14.69-21.79-6.3-6.3-13.63-11.24-21.79-14.69-4.15-1.75-8.42-3.08-12.79-3.98.02.3.04.6.04.91,26.28,5.52,47.01,26.34,52.38,52.68Z"/>
        <g>
          <path class="cls-1" d="M112.15,263.86s0-.07,0-.11c-26.26-5.41-47.02-26.08-52.55-52.3-.31-.03-.62-.07-.92-.11.9,4.37,2.23,8.65,3.98,12.8,3.45,8.16,8.4,15.49,14.69,21.79,6.3,6.3,13.63,11.24,21.79,14.69,4.22,1.79,8.58,3.13,13.03,4.03-.01-.26-.02-.52-.02-.79Z"/>
          <path class="cls-1" d="M192.1,211.5s-.04,0-.06,0c-5.53,26.11-26.16,46.7-52.28,52.19,0,.06,0,.11,0,.17,0,.25,0,.49-.02.73,4.36-.9,8.63-2.23,12.76-3.98,8.16-3.45,15.49-8.4,21.79-14.69,6.3-6.3,11.24-13.63,14.69-21.79,1.74-4.11,3.06-8.33,3.95-12.66-.28.02-.56.03-.84.03Z"/>
        </g>
      </g>
      <g>
        <path class="cls-4" d="M114.47,231.21l11.53-26.92-5.27-2.26-11.53,26.92c-6.34-1.27-12.94,2.02-15.59,8.2-2.48,5.8-.72,12.37,3.89,16.22l-6.52,25.4,13.49-22.29c6.1.87,12.29-2.4,14.83-8.33,2.65-6.18.48-13.23-4.82-16.94ZM102.14,252.73c-5.55-2.38-8.14-8.83-5.76-14.39,2.38-5.55,8.83-8.14,14.39-5.76,5.55,2.38,8.14,8.83,5.76,14.39-2.38,5.55-8.83,8.14-14.39,5.76Z"/>
        <path class="cls-7" d="M137.14,163.69l-10.36,25.75,5.27,2.26,10.36-25.75c6.34,1.27,12.94-2.02,15.59-8.2,2.48-5.8.72-12.37-3.89-16.22l6.52-25.4-13.49,22.29c-6.1-.87-12.29,2.4-14.83,8.33-2.65,6.18-.48,13.23,4.82,16.94ZM149.47,142.17c5.55,2.38,8.14,8.83,5.76,14.39s-8.83,8.14-14.39,5.76c-5.55-2.38-8.14-8.83-5.76-14.39,2.38-5.55,8.83-8.14,14.39-5.76Z"/>
      </g>
      <g>
        <path class="cls-1" d="M131.02,190.17c4.02,2.88,4.95,8.48,2.06,12.5s-8.48,4.95-12.5,2.06c-4.02-2.88-4.95-8.48-2.06-12.5,2.88-4.02,8.48-4.95,12.5-2.06Z"/>
        <path class="cls-7" d="M128.92,193.1c2.4,1.72,2.95,5.06,1.23,7.47s-5.06,2.95-7.47,1.23-2.95-5.06-1.23-7.47c1.72-2.4,5.06-2.95,7.47-1.23Z"/>
        <path class="cls-3" d="M128.13,204.61c-.36.11-.72.2-1.1.27-1.98.33-3.98-.14-5.61-1.31-1.63-1.17-2.71-2.91-3.04-4.89-.33-1.98.14-3.98,1.31-5.61,2.42-3.37,7.13-4.15,10.5-1.73h0c3.37,2.42,4.15,7.13,1.73,10.5-.95,1.32-2.27,2.28-3.79,2.78ZM123.7,190.98c-1.38.44-2.57,1.31-3.43,2.51-1.06,1.48-1.48,3.28-1.18,5.07s1.27,3.36,2.75,4.42c1.48,1.06,3.28,1.48,5.07,1.18,1.79-.3,3.36-1.27,4.42-2.75,2.19-3.05,1.48-7.31-1.57-9.49-1.48-1.06-3.28-1.48-5.07-1.18-.34.06-.67.14-.99.24Z"/>
        <path class="cls-3" d="M121.81,198.31c.29,1.68,2.01,2.96,3.72,2.67.12-.02.21-.1.21-.23,0-.11-.11-.23-.23-.21-1.45.25-3.01-.79-3.26-2.25-.02-.12-.1-.21-.23-.21-.11,0-.23.11-.21.23h0Z"/>
        <path class="cls-3" d="M126.76,193.69c1.4-.04,2.66,1.22,2.65,2.61,0,.28.43.26.43-.02,0-1.63-1.48-3.07-3.11-3.03-.28,0-.26.44.02.43h0Z"/>
        <path class="cls-3" d="M124.22,196.85c-.22.64.07,1.39.62,1.78.59.42,1.36.32,1.89-.14.54-.47.7-1.22.36-1.86-.33-.62-1.06-1-1.75-.84-.78.18-1.36,1.03-1.23,1.82.02.12.1.21.23.21.11,0,.23-.11.21-.23-.09-.53.2-1.08.69-1.31.49-.23,1.06-.02,1.37.4.31.42.3.95-.04,1.35-.32.38-.87.57-1.33.34-.51-.26-.78-.89-.59-1.42.04-.11-.06-.24-.17-.26-.13-.03-.22.05-.26.17h0Z"/>
      </g>
      <g>
        <path class="cls-7" d="M130.82,139.94l-9.09-12.07c-.18-.21-.35-.43-.51-.66-.16-.23-.33-.46-.51-.71h-.02l.07,9.5c0,.41,0,.81-.01,1.22,0,.41-.03.78-.06,1.12.28-.03.58-.05.92-.06.33,0,.62-.02.87-.04v1.34h-4.84v-1.07c.46,0,.8-.09,1.04-.27.24-.18.4-.42.49-.71.09-.29.13-.64.13-1.03v-11.92c0-.33,0-.61.02-.85-.26.02-.55.03-.87.05-.32.02-.6.03-.84.05v-1.34h3.22l8.6,11.31c.28.36.53.69.75,1,.22.31.44.6.65.88h.02l.02-10.04c0-.36,0-.7.02-1.04.02-.33.03-.62.05-.87-.29.02-.6.03-.93.05-.33.02-.61.03-.85.05v-1.34h4.84v1.07c-.52.02-.9.13-1.14.33-.24.2-.38.5-.44.88-.06.38-.09.88-.09,1.5l-.02,13.66h-1.49Z"/>
        <path class="cls-7" d="M129.59,260.19c-.08-.83-.29-1.58-.64-2.25-.34-.67-.81-1.2-1.42-1.6-.6-.4-1.35-.59-2.25-.57-.91,0-1.64.25-2.17.76-.54.5-.81,1.12-.81,1.83,0,.64.18,1.17.54,1.6.36.43.84.82,1.45,1.16.61.34,1.3.68,2.06,1.03.62.26,1.25.55,1.88.88.64.33,1.21.7,1.73,1.11.52.42.94.91,1.25,1.49.31.58.46,1.26.46,2.04,0,.91-.24,1.73-.71,2.44-.47.72-1.14,1.28-2.02,1.69-.87.41-1.93.61-3.16.61-.7,0-1.44-.11-2.21-.32-.77-.21-1.48-.51-2.11-.9l.12,1.03h-1.49l-.1-5.37h1.17c.13,1.42.64,2.49,1.53,3.21.89.72,1.95,1.09,3.19,1.09.62,0,1.18-.11,1.69-.34.5-.23.9-.55,1.2-.98.29-.42.44-.92.44-1.49,0-.67-.2-1.23-.6-1.69-.4-.46-.9-.85-1.51-1.17-.61-.33-1.25-.64-1.92-.93-.67-.29-1.32-.6-1.94-.93-.63-.33-1.19-.7-1.7-1.12-.51-.42-.9-.92-1.2-1.5-.29-.58-.44-1.26-.44-2.04,0-.46.08-.94.24-1.44.16-.5.44-.99.83-1.44.39-.46.92-.83,1.6-1.11.68-.28,1.53-.43,2.55-.43.62,0,1.31.09,2.09.27.77.18,1.48.5,2.11.95l-.1-1.03h1.47v5.47h-1.12Z"/>
      </g>
      <g>
        <path class="cls-7" d="M69.76,203.08l-13.07,4.35c-.73.24-1.33.44-1.78.57-.46.14-.85.23-1.17.28.02.26.02.51.02.73s0,.46.02.68h-1.34v-6.35h1.07c.03.83.21,1.36.54,1.58.33.22.94.21,1.86-.04,1.03-.28,1.98-.56,2.86-.85.88-.29,1.81-.59,2.78-.88.67-.2,1.29-.39,1.87-.6.58-.2,1.25-.41,2.02-.62v-.02c-.26-.08-.57-.17-.93-.28-.36-.11-.73-.22-1.11-.33-.38-.11-.73-.22-1.05-.32-.32-.1-.56-.17-.72-.22-1.24-.39-2.45-.78-3.64-1.16-1.19-.38-2.26-.73-3.22-1.04-.96-.31-1.74-.55-2.35-.71v-1.27c.6-.16,1.31-.38,2.11-.65.81-.27,1.64-.54,2.49-.82.86-.28,1.68-.55,2.47-.81.79-.26,1.48-.48,2.06-.66.67-.21,1.34-.43,2.02-.65.68-.22,1.37-.42,2.09-.6v-.05c-.49-.15-1.01-.31-1.55-.48-.55-.17-1.1-.34-1.67-.5-.94-.33-1.76-.6-2.44-.82-.68-.22-1.28-.4-1.78-.55-.5-.15-.96-.28-1.37-.4-.41-.12-.81-.25-1.2-.38-.31-.1-.64-.21-.99-.34-.35-.13-.66-.29-.94-.49.02.31.03.64.04.99,0,.35.02.66.04.94h-1.34v-5.13h1.07c.05.49.16.89.34,1.21.18.32.49.6.94.84.45.24,1.11.52,1.99.83,2.2.72,4.37,1.42,6.52,2.11,2.15.69,4.3,1.4,6.45,2.14v1.22l-9.99,3.42c-.49.18-.97.34-1.45.48-.48.14-.95.27-1.4.4.46.11.91.24,1.36.37.45.13.9.27,1.36.42l10.14,3.25v1.2Z"/>
        <path class="cls-7" d="M188.28,199.48c.7,0,1.21-.1,1.51-.31.31-.2.5-.51.57-.92.07-.41.09-.91.06-1.51l-.05-1.42h-5.08c-.44,0-.83,0-1.16-.01-.33,0-.61-.03-.82-.06l.05,4.2c.02.64.13,1.21.35,1.71.22.5.6.9,1.14,1.2.54.29,1.27.44,2.2.44v1.07l-4.96-.15v-12.7h1.07c.03.54.15.92.34,1.16.2.24.49.39.88.45.39.06.89.1,1.49.1h10.16c.36,0,.7,0,1.04.02.33.02.62.03.87.05-.02-.28-.03-.58-.05-.9-.02-.33-.03-.62-.05-.88h1.34v11.92l-4.42.12v-1.07c.93,0,1.64-.15,2.13-.45.49-.3.81-.69.98-1.17.16-.48.24-1,.22-1.55l-.05-1.71c0-.5-.09-.89-.26-1.15-.17-.26-.45-.43-.83-.51-.38-.08-.9-.12-1.55-.12h-3.84v4.03l2.1-.15v1.34h-5.4v-1.08Z"/>
      </g>
    </g>
  </g>
</svg>