<svg width="101" height="95" viewBox="0 0 101 95" fill="none" xmlns="http://www.w3.org/2000/svg">
<path d="M88.6459 36.9806C88.5982 36.9806 88.5505 36.9925 88.5029 36.9925C89.4208 34.8552 89.9394 32.5024 89.9394 30.0299C89.9394 20.3252 82.1071 12.4586 72.445 12.4586C69.0296 12.4586 65.8526 13.4584 63.1644 15.1526C59.5225 6.26221 50.82 0 40.6572 0C27.2161 0 16.3201 10.9439 16.3201 24.4442C16.3201 25.4619 16.4035 26.4617 16.5228 27.4496C16.4572 27.4496 16.3857 27.4376 16.3201 27.4376C7.30769 27.4376 0 34.7774 0 43.8295C0 52.8815 7.30769 60.2214 16.3201 60.2214H88.6519C95.0416 60.2214 100.227 55.0188 100.227 48.601C100.227 42.1831 95.0476 36.9746 88.6519 36.9746L88.6459 36.9806Z" fill="white"/>
<path d="M45.2133 51.001L38 72.8373H47.9448L41.5003 95.001L65 63.7098H52.8658L57.4573 51.001H45.2133Z" fill="#AEAEAE"/>
<g clip-path="url(#clip0_8035_749)">
<path d="M26.2016 66H25.7985C25.5679 66 25.3809 66.187 25.3809 66.4177V79.5823C25.3809 79.813 25.5679 80 25.7985 80H26.2016C26.4323 80 26.6193 79.813 26.6193 79.5823V66.4177C26.6193 66.187 26.4323 66 26.2016 66Z" fill="white"/>
<path d="M28.4355 67.0178C28.5987 67.181 28.5987 67.4455 28.4355 67.6087L26.0116 70.0345L26.0025 70.0235L25.9915 70.0345L23.5658 67.6087C23.4026 67.4455 23.4026 67.181 23.5658 67.0178L23.8503 66.7333C24.0135 66.57 24.278 66.57 24.4412 66.7333L25.7061 67.9981C25.8693 68.1614 26.1338 68.1614 26.297 67.9981L27.5601 66.7342C27.7233 66.5709 27.9877 66.5709 28.151 66.7342L28.4346 67.0178H28.4355Z" fill="white"/>
<path d="M23.5658 78.9832C23.4026 78.82 23.4026 78.5555 23.5658 78.3923L25.9897 75.9666L25.9988 75.9775L26.0098 75.9666L28.4355 78.3923C28.5987 78.5555 28.5987 78.82 28.4355 78.9832L28.151 79.2678C27.9877 79.431 27.7233 79.431 27.5601 79.2678L26.2952 78.0029C26.132 77.8397 25.8675 77.8397 25.7043 78.0029L24.4412 79.2668C24.278 79.4301 24.0135 79.4301 23.8503 79.2668L23.5667 78.9832H23.5658Z" fill="white"/>
<path d="M33 73.2016V72.7985C33 72.5679 32.813 72.3809 32.5823 72.3809H19.4177C19.187 72.3809 19 72.5679 19 72.7985V73.2016C19 73.4323 19.187 73.6193 19.4177 73.6193H32.5823C32.813 73.6193 33 73.4323 33 73.2016Z" fill="white"/>
<path d="M31.9835 75.4348C31.8202 75.598 31.5558 75.598 31.3925 75.4348L28.9668 73.0109L28.9777 73.0017L28.9668 72.9908L31.3925 70.5651C31.5558 70.4018 31.8202 70.4018 31.9835 70.5651L32.268 70.8496C32.4312 71.0128 32.4312 71.2773 32.268 71.4405L31.0031 72.7054C30.8399 72.8686 30.8399 73.1331 31.0031 73.2963L32.2671 74.5593C32.4303 74.7226 32.4303 74.987 32.2671 75.1503L31.9835 75.4339V75.4348Z" fill="white"/>
<path d="M20.0183 70.5651C20.1815 70.4018 20.446 70.4018 20.6092 70.5651L23.035 72.989L23.024 72.9981L23.035 73.009L20.6092 75.4348C20.446 75.598 20.1815 75.598 20.0183 75.4348L19.7338 75.1503C19.5705 74.987 19.5705 74.7226 19.7338 74.5593L20.9986 73.2945C21.1618 73.1312 21.1618 72.8668 20.9986 72.7035L19.7347 71.4405C19.5714 71.2773 19.5714 71.0128 19.7347 70.8496L20.0183 70.566V70.5651Z" fill="white"/>
<path d="M22.6576 76.344C22.4943 76.1798 22.4943 75.9154 22.6576 75.7521L28.7529 69.6559C28.9162 69.4926 29.1806 69.4926 29.3439 69.6559C29.5071 69.82 29.5071 70.0845 29.3439 70.2477L23.2485 76.344C23.0853 76.5072 22.8208 76.5072 22.6576 76.344Z" fill="white"/>
<path d="M30.0221 71.1697C30.0221 71.4004 29.8351 71.5874 29.6044 71.5874H27.4231V71.5783H27.4121V69.3969C27.4121 69.1662 27.5991 68.9792 27.8307 68.9792C28.0614 68.9792 28.2484 69.1662 28.2484 69.3969V70.3344C28.2484 70.5651 28.4353 70.752 28.666 70.752H29.6017C29.8324 70.752 30.0193 70.939 30.0193 71.1697H30.0221Z" fill="white"/>
<path d="M21.9805 74.8303C21.9805 74.5995 22.1674 74.4126 22.3981 74.4126H24.5795V74.4217H24.5904V76.6031C24.5904 76.8338 24.4035 77.0207 24.1718 77.0207C23.9411 77.0207 23.7542 76.8338 23.7542 76.6031V75.6656C23.7542 75.4349 23.5672 75.2479 23.3365 75.2479H22.4009C22.1702 75.2479 21.9832 75.061 21.9832 74.8303H21.9805Z" fill="white"/>
<path d="M22.6556 69.6568C22.8189 69.4927 23.0833 69.4927 23.2466 69.6568L29.3428 75.7531C29.5061 75.9163 29.5061 76.1808 29.3428 76.344C29.1796 76.5082 28.9151 76.5082 28.7519 76.344L22.6556 70.2477C22.4924 70.0845 22.4924 69.82 22.6556 69.6568Z" fill="white"/>
<path d="M27.8317 77.0206C27.601 77.0206 27.4141 76.8337 27.4141 76.6029V74.4216H27.4232V74.4106H29.6045C29.8352 74.4106 30.0222 74.5976 30.0222 74.8292C30.0222 75.0609 29.8352 75.2478 29.6045 75.2478H28.6671C28.4363 75.2478 28.2494 75.4347 28.2494 75.6655V76.6011C28.2494 76.8318 28.0624 77.0188 27.8317 77.0188V77.0206Z" fill="white"/>
<path d="M24.1709 68.9792C24.4017 68.9792 24.5886 69.1662 24.5886 69.3969V71.5783H24.5795V71.5892H22.3981C22.1674 71.5892 21.9805 71.4023 21.9805 71.1706C21.9805 70.939 22.1674 70.752 22.3981 70.752H23.3356C23.5663 70.752 23.7533 70.5651 23.7533 70.3344V69.3987C23.7533 69.168 23.9402 68.9811 24.1709 68.9811V68.9792Z" fill="white"/>
</g>
<path d="M74.3171 65H73.6837C73.3212 65 73.0273 65.2938 73.0273 65.6563V86.3437C73.0273 86.7062 73.3212 87 73.6837 87H74.3171C74.6796 87 74.9734 86.7062 74.9734 86.3437V65.6563C74.9734 65.2938 74.6796 65 74.3171 65Z" fill="white"/>
<path d="M77.8253 66.5992C78.0818 66.8557 78.0818 67.2713 77.8253 67.5278L74.0163 71.3397L74.0019 71.3225L73.9847 71.3397L70.1729 67.5278C69.9163 67.2713 69.9163 66.8557 70.1729 66.5992L70.62 66.1521C70.8765 65.8956 71.2921 65.8956 71.5486 66.1521L73.5362 68.1397C73.7927 68.3962 74.2083 68.3962 74.4648 68.1397L76.4496 66.1535C76.7061 65.897 77.1217 65.897 77.3782 66.1535L77.8238 66.5992H77.8253Z" fill="white"/>
<path d="M70.1729 85.4019C69.9163 85.1454 69.9163 84.7298 70.1729 84.4733L73.9819 80.6614L73.9962 80.6786L74.0134 80.6614L77.8253 84.4733C78.0818 84.7298 78.0818 85.1454 77.8253 85.4019L77.3782 85.849C77.1217 86.1055 76.7061 86.1055 76.4496 85.849L74.4619 83.8613C74.2054 83.6048 73.7898 83.6048 73.5333 83.8613L71.5486 85.8475C71.2921 86.1041 70.8765 86.1041 70.62 85.8475L70.1743 85.4019H70.1729Z" fill="white"/>
<path d="M85 76.3166V75.6832C85 75.3207 84.7062 75.0269 84.3437 75.0269H63.6563C63.2938 75.0269 63 75.3207 63 75.6832V76.3166C63 76.6791 63.2938 76.9729 63.6563 76.9729H84.3437C84.7062 76.9729 85 76.6791 85 76.3166Z" fill="white"/>
<path d="M83.4046 79.8263C83.148 80.0828 82.7325 80.0828 82.4759 79.8263L78.6641 76.0172L78.6813 76.0029L78.6641 75.9857L82.4759 72.1738C82.7325 71.9173 83.148 71.9173 83.4046 72.1738L83.8517 72.6209C84.1082 72.8775 84.1082 73.293 83.8517 73.5495L81.864 75.5372C81.6075 75.7937 81.6075 76.2093 81.864 76.4658L83.8502 78.4505C84.1067 78.707 84.1067 79.1226 83.8502 79.3791L83.4046 79.8248V79.8263Z" fill="white"/>
<path d="M64.6004 72.1738C64.8569 71.9173 65.2725 71.9173 65.529 72.1738L69.3409 75.9828L69.3237 75.9972L69.3409 76.0144L65.529 79.8263C65.2725 80.0828 64.8569 80.0828 64.6004 79.8263L64.1533 79.3791C63.8968 79.1226 63.8968 78.707 64.1533 78.4505L66.1409 76.4629C66.3975 76.2064 66.3975 75.7908 66.1409 75.5343L64.1548 73.5495C63.8982 73.293 63.8982 72.8775 64.1548 72.6209L64.6004 72.1753V72.1738Z" fill="white"/>
<path d="M68.7471 81.2548C68.4906 80.9968 68.4906 80.5812 68.7471 80.3247L78.3255 70.7449C78.582 70.4884 78.9976 70.4884 79.2541 70.7449C79.5106 71.0028 79.5106 71.4184 79.2541 71.6749L69.6757 81.2548C69.4192 81.5113 69.0036 81.5113 68.7471 81.2548Z" fill="white"/>
<path d="M80.3201 73.1238C80.3201 73.4864 80.0263 73.7801 79.6638 73.7801H76.2359V73.7658H76.2188V70.338C76.2188 69.9754 76.5125 69.6816 76.8765 69.6816C77.2391 69.6816 77.5328 69.9754 77.5328 70.338V71.8111C77.5328 72.1737 77.8266 72.4675 78.1892 72.4675H79.6595C80.022 72.4675 80.3158 72.7612 80.3158 73.1238H80.3201Z" fill="white"/>
<path d="M67.6836 78.8761C67.6836 78.5135 67.9774 78.2197 68.3399 78.2197H71.7678V78.2341H71.7849V81.6619C71.7849 82.0244 71.4912 82.3182 71.1272 82.3182C70.7646 82.3182 70.4709 82.0244 70.4709 81.6619V80.1887C70.4709 79.8262 70.1771 79.5324 69.8145 79.5324H68.3442C67.9817 79.5324 67.6879 79.2386 67.6879 78.8761H67.6836Z" fill="white"/>
<path d="M68.7451 70.7464C69.0016 70.4885 69.4172 70.4885 69.6737 70.7464L79.2536 80.3263C79.5101 80.5828 79.5101 80.9984 79.2536 81.2549C78.9971 81.5129 78.5815 81.5129 78.325 81.2549L68.7451 71.675C68.4886 71.4185 68.4886 71.003 68.7451 70.7464Z" fill="white"/>
<path d="M76.879 82.3182C76.5164 82.3182 76.2227 82.0244 76.2227 81.6618V78.234H76.237V78.2168H79.6648C80.0274 78.2168 80.3211 78.5106 80.3211 78.8746C80.3211 79.2386 80.0274 79.5323 79.6648 79.5323H78.1917C77.8291 79.5323 77.5353 79.8261 77.5353 80.1887V81.659C77.5353 82.0215 77.2415 82.3153 76.879 82.3153V82.3182Z" fill="white"/>
<path d="M71.1258 69.6816C71.4883 69.6816 71.7821 69.9754 71.7821 70.338V73.7658H71.7678V73.783H68.3399C67.9774 73.783 67.6836 73.4892 67.6836 73.1252C67.6836 72.7612 67.9774 72.4675 68.3399 72.4675H69.8131C70.1756 72.4675 70.4694 72.1737 70.4694 71.8111V70.3408C70.4694 69.9783 70.7632 69.6845 71.1258 69.6845V69.6816Z" fill="white"/>
<defs>
<clipPath id="clip0_8035_749">
<rect width="14" height="14" fill="white" transform="translate(19 66)"/>
</clipPath>
</defs>
</svg>
