<svg width="154" height="185" viewBox="0 0 154 185" fill="none" xmlns="http://www.w3.org/2000/svg">
<path d="M113.853 169.517C113.853 169.517 111.569 169.381 109.148 168.191C106.727 167.001 104.922 166.833 103.592 165.506C102.262 164.179 99.6368 162.207 98.3066 162.207C98.3066 162.207 102.191 164.688 102.705 165.86C103.219 167.033 108.107 168.514 108.705 169.107C109.303 169.7 112.182 171.318 112.182 171.318L113.853 169.517Z" fill="#552E5D"/>
<path d="M146.866 161.059C146.866 161.059 148.144 162.309 148.144 163.481C148.144 164.653 146.585 166.159 145.381 164.397C144.181 162.639 146.863 161.056 146.863 161.056L146.866 161.059Z" fill="#552E5D"/>
<path d="M117.231 177.133C117.231 177.133 115.697 178.832 115.697 179.411C115.697 179.99 116.573 181.316 117.47 181.994C118.09 182.464 118.41 183.661 118.287 183.661H115.475C115.475 183.661 115.014 182.369 115.014 181.657C115.014 180.944 111.809 178.256 111.809 178.256L113.786 175.978L117.228 177.133H117.231Z" fill="#552E5D"/>
<path d="M140.118 179.446C140.118 179.446 139.319 181.144 139.541 181.316C139.762 181.488 140.36 181.878 140.558 182.534C140.748 183.173 140.558 183.282 140.558 183.282H137.925C137.338 183.25 136.933 182.815 137.088 182.373C137.391 181.513 137.806 180.243 137.806 179.79C137.806 179.077 140.125 179.446 140.125 179.446H140.118Z" fill="#552E5D"/>
<path d="M74.6055 183.412C71.5934 182.218 67.0505 180.186 66.5016 178.625C66.4734 178.54 66.1391 175.371 65.6606 170.686C64.2847 171.188 62.4408 170.163 60.998 170.318C62.1311 174.29 63.4225 178.744 63.4225 178.744L62.8877 182.566C62.7997 183.187 63.317 183.457 63.9398 183.387C65.3051 183.236 67.7578 183.152 69.9677 183.605C71.516 183.924 75.1263 183.619 74.609 183.415L74.6055 183.412Z" fill="#FFC8C7"/>
<path d="M65.6624 93.2444C65.6624 93.2444 69.1004 95.8099 71.2469 95.8099C73.3934 95.8099 73.6749 99.4563 73.6749 99.4563C73.6749 99.4563 70.902 103.155 68.3122 103.155C65.7223 103.155 62.3477 95.0974 62.3477 95.0974L65.6589 93.2444H65.6624Z" fill="#FFC8C7"/>
<path d="M69.6629 95.3711C69.6629 95.3711 67.1047 96.6276 67.5129 97.5997C67.9211 98.5683 72.8756 97.0311 72.8756 96.6275C72.8756 96.224 70.5708 94.8623 69.6629 95.3711Z" fill="#E24242"/>
<path d="M40.1076 39.2818C36.5852 52.4952 40.9275 66.7825 43.6229 73.5384C45.8645 79.1537 54.1972 89.8051 63.6805 98.0596L68.3149 93.0409C62.748 86.9519 56.7483 79.8485 54.6968 75.4371C52.955 71.6959 54.4576 56.3627 55.3162 48.9155C55.7877 44.8303 54.7074 40.4575 52.1316 37.0532C47.7999 31.3291 42.0958 31.8275 40.1076 39.2818Z" fill="#FF9739"/>
<path d="M128.946 166.762C91.9097 166.762 81.5747 148.204 78.1016 109.322C77.3767 101.264 75.0754 96.5188 67.5731 97.9296C67.3866 97.9647 67.2037 98.0173 67.0277 98.084C69.9202 100.337 68.9772 129.544 65.6624 129.544C65.2577 129.544 65.2577 128.908 65.6624 128.908C65.7222 128.908 65.9369 128.859 66.236 128.203C68.7801 122.623 68.6112 98.0524 66.4999 98.5508C63.9241 99.2281 66.5456 110.269 67.0805 112.638C66.9996 112.638 60.9295 112.842 61.3166 112.828C61.5207 107.918 62.8121 98.1823 67.4605 97.3049C75.3252 95.8274 77.9468 100.779 78.7104 109.262C80.234 126.301 83.1582 146.147 96.3927 157.286C111.049 169.626 140.319 165.464 140.614 165.418C140.998 165.344 141.114 165.987 140.702 166.046C140.583 166.064 135.702 166.759 128.949 166.759L128.946 166.762ZM64.9516 99.93C62.601 103.475 62.0555 110.529 61.957 112.164C62.8438 112.129 65.2155 112.031 66.2852 112.006C65.8594 110.262 64.2795 103.359 64.9516 99.93Z" fill="#552E5D"/>
<path d="M72.6422 101.183C72.6422 101.183 72.044 101.674 71.7555 101.966C71.4669 102.253 71.0271 102.261 70.5274 102.755C70.0277 103.254 68.3105 103.155 68.3105 103.155C69.2641 102.713 67.5962 98.2 68.3105 98.2C69.0248 98.2 70.1685 101.457 70.1685 101.457C70.1685 101.457 68.5498 96.6979 69.4014 96.3224C70.2529 95.9468 71.2417 99.8249 71.2417 99.8249C71.2417 99.8249 69.6054 95.7117 70.3902 95.7117C71.1749 95.7117 72.5367 99.1265 72.5367 99.1265C72.5367 99.1265 69.8658 93.4094 71.7168 95.259C73.5677 97.105 74.0005 99.1265 74.0005 99.1265C74.2046 100.232 72.6387 101.183 72.6387 101.183H72.6422Z" fill="#FFCECE"/>
<path d="M54.8471 62.6868C54.8471 62.6868 58.1126 53.5795 56.2687 49.2522C56.2687 49.2522 56.5185 42.528 57.0604 38.3972C57.9296 31.7888 54.1292 30.5499 50.9658 30.1709C50.0403 30.0585 49.1395 29.4654 48.0521 29.4444C43.5198 28.9355 30.6196 27.6615 28.832 29.4444L42.0841 34.3683C41.5035 37.0355 40.5464 40.9346 39.0368 45.869C36.0211 55.7379 37.2492 60.4301 37.2492 60.4301C37.2492 60.4301 35.1379 65.9366 33.8429 70.0182C32.548 74.0963 31.4571 83.6843 33.8429 89.1908C36.2287 94.6973 48.499 93.5812 51.9757 91.7563C55.4523 89.9313 59.7629 65.154 54.8471 62.6903V62.6868Z" fill="#603E6B"/>
<path d="M61.5234 129.575L50.2665 79.6975L32.373 92.0862L52.0471 133.594C52.0471 133.594 52.4729 135.247 52.4729 138.321C52.4729 140.121 56.1782 161.094 59.3135 172.097C60.7563 171.942 64.2892 171.184 65.6651 170.686C64.2435 156.802 61.5269 129.575 61.5269 129.575H61.5234Z" fill="#757AD8"/>
<path d="M3.45465 171.886L1.32221 172.595C-0.810226 173.304 0.164503 175.406 1.52631 176.765C2.40251 177.638 2.87052 180.674 3.06757 182.583C3.17666 183.629 3.83117 184.422 4.88683 184.422C4.88683 184.422 8.15587 184.236 8.15587 184.064C8.15587 183.043 6.36124 183.647 5.59061 182.878C4.81997 182.11 5.59061 175.196 5.59061 175.196C6.88555 172.816 8.53239 170.268 10.3868 167.622C9.26079 166.608 8.12068 165.59 6.94185 164.576C4.90795 168.822 3.45465 171.886 3.45465 171.886Z" fill="#FFCECE"/>
<path d="M50.9676 82.7966L49.5565 76.9743C40.7875 68.2285 28.5805 79.81 25.4839 86.6677C22.3873 93.5218 28.021 130.386 28.021 130.386C28.021 130.386 21.8208 136.703 19.5687 139.36C18.4919 140.63 10.0853 154.848 5.67969 164.043C6.85499 165.057 9.26542 166.604 10.3915 167.622C18.0204 156.75 29.2315 144.196 34.45 134.601L50.9711 82.7931L50.9676 82.7966Z" fill="#C0B4FE"/>
<path d="M43.0602 30.8589C38.7496 30.6448 41.628 29.4866 34.446 31.1186C34.446 31.1186 32.4895 62.6764 30.7125 66.4597C28.9354 70.2429 25.9726 70.0043 27.1584 71.187C28.2845 72.3101 26.525 72.3522 26.3456 73.6296C26.1239 75.2335 28.6997 76.7005 28.6997 77.3322C28.6997 77.9218 28.3478 82.1789 28.3478 82.1789C28.3478 82.1789 42.2438 88.1767 52.8708 84.5864C53.8561 61.2059 50.5906 59.065 51.2416 50.972C51.5196 47.5081 52.6984 31.3291 43.0637 30.8554L43.0602 30.8589Z" fill="#F9B406"/>
<path d="M2.83198 182.587C2.94107 183.633 3.83135 184.426 4.88701 184.426C4.88701 184.426 8.15604 184.24 8.15604 184.068C8.15604 183.047 6.36142 183.65 5.59078 182.882C5.52744 182.882 3.69059 180.558 3.41964 178.586C3.14164 176.578 1.74113 172.462 1.74113 172.458C1.68483 172.476 1.36461 172.585 1.32591 172.595C-0.806531 173.304 -0.0358976 175.61 1.32591 176.968C1.33998 176.982 1.35406 176.996 1.36813 177.01C2.29712 178.021 2.69475 181.229 2.8355 182.583L2.83198 182.587Z" fill="#542360"/>
<path d="M74.6058 183.411C73.5994 183.011 72.4205 182.52 71.2769 181.983C71.2628 181.983 67.8812 182.366 66.3505 182.092C65.3054 181.902 63.8662 181.53 63.0568 181.313L62.8809 182.562C62.7929 183.183 63.3102 183.717 63.933 183.65C65.2983 183.499 67.6067 183.369 69.8131 183.826C71.3614 184.145 75.1195 183.619 74.5987 183.415L74.6058 183.411Z" fill="#542360"/>
<path d="M46.2656 22.5658C46.2656 22.5658 44.6469 30.6939 45.3155 32.7295C45.9876 34.7615 38.4185 34.5474 38.0349 32.2065C37.6514 29.8657 42.1485 18.8738 42.1485 18.8738L46.2621 22.5693L46.2656 22.5658Z" fill="#FFCECE"/>
<path d="M47.1524 6.56589C47.1524 6.56589 50.8859 6.236 51.4665 9.13137C52.0471 12.0303 49.8337 14.6764 50.3862 15.782C50.9387 16.8875 52.1703 17.4946 52.5011 17.6385C52.8318 17.7824 52.209 18.7335 51.6706 18.9405C51.6706 18.9405 51.4313 19.467 51.5861 19.6249C51.741 19.7793 52.1245 20.0601 52.0014 20.4321C51.8782 20.8041 51.2343 20.9901 51.2343 20.9901C51.2343 20.9901 51.8677 21.6429 51.5439 21.9623C51.2237 22.2816 50.5481 22.4606 50.5481 22.4606C50.5481 22.4606 50.7135 23.9311 50.0097 24.3628C49.3024 24.798 47.1735 24.2259 45.3472 23.4538C43.5209 22.6817 38.7704 20.8041 38.7704 20.8041C38.7704 20.8041 34.3331 3.64245 47.1453 6.56589H47.1524Z" fill="#FFCECE"/>
<path d="M45.3147 7.68533C45.5469 7.91696 46.4442 8.63641 46.4442 10.4158C46.4442 12.1951 46.2366 12.4022 46.2366 12.4022H48.4781C48.4781 12.4022 48.9356 10.1666 48.728 9.54538C48.728 9.54538 49.02 11.3247 49.02 12.4022H54.4672C54.4672 12.4022 55.5757 5.6147 50.3044 1.80685C45.0331 -2.00101 38.8927 1.39272 38.8927 1.39272C38.8927 1.39272 34.744 0.978593 33.1253 4.16526C31.5066 7.35192 30.553 7.72393 28.2692 8.84348C25.9855 9.95951 25.0706 15.1185 25.3239 15.3712C25.5773 15.6239 20.1793 16.5399 18.7683 21.4673L18.4375 24.5136C18.4375 24.5136 25.4928 24.5697 27.6499 25.5243C29.807 26.4754 31.4679 25.9806 31.4679 25.9806C31.4679 25.9806 32.4426 22.4851 33.7094 21.2216C34.9762 19.9582 36.2395 19.5651 36.2395 19.5651C36.2395 19.5651 33.3364 24.0363 33.3364 25.9385L38.6499 26.1104C38.6499 26.1104 43.3406 23.373 43.879 19.6915C44.4173 16.0064 43.879 12.2407 43.879 12.2407C43.879 12.2407 44.8748 13.1497 44.8748 15.0554C44.8748 15.0554 45.2478 12.4899 44.917 10.2964C44.5863 8.10296 45.3217 7.68884 45.3217 7.68884L45.3147 7.68533Z" fill="#2846A6"/>
<path d="M49.8285 20.2145C49.4731 20.5865 50.6625 20.8883 51.2361 20.9901C50.7892 20.9515 49.737 20.8321 49.628 20.4005C49.5928 20.2425 49.6983 19.9899 49.8215 20.0811C49.8602 20.1092 49.8672 20.1653 49.8391 20.2039C49.8391 20.2039 49.8356 20.2075 49.832 20.211L49.8285 20.2145Z" fill="#2846A6"/>
<path d="M50.0332 15.3572C50.0332 15.3572 50.1951 15.9082 49.625 16.1609L50.0332 15.3572Z" fill="#2846A6"/>
<path d="M48.4121 15.0519C49.2109 15.1747 50.6642 15.266 51.2413 14.7009C50.8894 15.4695 49.2813 15.5643 48.4121 15.0519Z" fill="#0F1D5B"/>
<path d="M28.8372 29.4411C28.8372 29.4411 29.3474 35.9969 26.3317 45.8657C23.3161 55.7346 24.5442 60.4268 24.5442 60.4268C24.5442 60.4268 22.4328 65.9333 21.1379 70.0149C19.8429 74.093 18.7521 83.6811 21.1379 89.1875C23.5237 94.694 35.794 93.578 39.2706 91.753C42.7473 89.928 47.0579 65.1507 42.142 62.687C42.142 62.687 45.4076 53.5797 43.5637 49.2525C43.5637 49.2525 47.3078 41.342 44.3554 38.3974C42.8775 36.9234 40.826 31.8592 38.2607 30.1711C35.692 28.483 28.8372 29.4446 28.8372 29.4446V29.4411Z" fill="#93278F"/>
<path d="M139.914 159.35C139.914 159.35 139.351 167.152 136.694 167.917C134.034 168.682 113.227 168.58 111.538 169.752C109.849 170.925 106.988 173.83 106.731 175.719L106.474 177.607C106.474 177.607 103.916 177.487 103.916 178.217C103.916 178.947 105.654 184.542 105.654 184.542L108.617 184.763C108.888 184.784 109.082 184.499 108.955 184.257C108.652 183.682 108.023 182.861 106.882 182.861L106.421 179.751C106.421 179.751 109.029 180.671 110.408 180.007C111.788 179.344 113.477 177.61 115.215 177.354C116.953 177.098 133.263 181.639 136.177 181.383C139.091 181.127 143.13 178.221 144.358 176.996C145.587 175.771 145.484 162.667 146.607 162.003C147.733 161.34 150.295 161.687 151.565 161.084C152.476 160.652 152.434 159.35 152.434 159.35C152.434 159.35 153.201 158.178 152.944 157.462C152.688 156.746 151.463 157.104 151.463 157.104C151.463 157.104 147.68 157.104 146.962 156.392C146.245 155.679 145.481 154.963 143.588 155.472C141.695 155.981 139.907 157.409 139.907 159.347L139.914 159.35Z" fill="#EA5B0C"/>
<path d="M138.196 165.362L145.948 167.043L145.808 168.166L138.01 166.278L138.196 165.362Z" fill="#FFDA88"/>
<path d="M138.38 170.468C138.38 169.679 137.93 168.654 137.247 167.64C137.071 167.766 136.888 167.861 136.691 167.917C134.597 168.521 121.225 168.584 114.828 169.159C115.215 170.654 115.919 172.374 117.158 172.813C119.459 173.63 120.891 172.76 122.834 174.701C124.776 176.638 128.101 176.842 130.501 174.445C132.905 172.048 138.376 172.813 138.376 170.468H138.38Z" fill="#603E6B"/>
<path d="M152.406 159.227C152.501 160.284 151.709 160.505 150.636 160.529C149.946 160.494 149.035 160.764 148.176 161.028C148.046 161.07 147.982 160.877 148.113 160.835C150.565 160.045 152.49 160.982 152.406 159.227Z" fill="#552E5D"/>
<path d="M141.244 157.49C141.244 157.49 140.146 157.694 139.326 158.255C138.51 158.817 140.424 163.2 140.657 163.2C140.889 163.2 141.244 157.49 141.244 157.49Z" fill="#552E5D"/>
<path d="M140.782 167.127C140.782 167.127 142.827 167.075 142.676 165.088C142.521 163.098 140.184 161.056 140.184 160.077C140.184 159.097 141.243 157.49 141.243 157.49C141.243 157.49 140.072 157.49 139.125 158.202C138.175 158.915 138.189 159.568 137.791 159.961C137.394 160.357 136.616 160.571 136.335 161.975C136.053 163.379 139.121 166.667 140.782 167.127Z" fill="#FF681D"/>
<path d="M140.349 160.143C140.265 159.41 140.933 158.09 141.243 157.49C140.719 158.16 140.022 159.315 140.039 160.175C140.215 161.512 142.446 163.309 142.524 165.327C142.569 166.173 142.031 166.924 140.785 167.127C141.88 167.152 142.816 166.488 142.837 165.33C142.914 163.186 140.581 161.221 140.353 160.143H140.349Z" fill="#FF9739"/>
<path d="M145.74 157.402C145.74 157.774 145.529 158.076 145.268 158.076C145.008 158.076 144.797 157.774 144.797 157.402C144.797 157.03 145.008 156.725 145.268 156.725C145.529 156.725 145.74 157.027 145.74 157.402Z" fill="black"/>
<path d="M141.057 176.417C141.057 176.417 146.237 178.151 147.43 178.898C148.623 179.646 148.113 182.976 146.61 182.976C145.107 182.976 145.656 180.474 145.656 180.474L139.111 179.204L141.054 176.417H141.057Z" fill="#EA5B0C"/>
<path d="M153.007 157.381C152.751 156.669 151.396 157.108 151.269 157.104C151.185 157.104 150.583 157.929 151.445 158.954C151.656 159.203 151.931 159.276 152.24 159.322C152.269 159.326 152.423 159.364 152.437 159.35C152.744 159.045 153.208 157.95 153.004 157.381H153.007Z" fill="#552E5D"/>
<path d="M29.977 109.788C29.3753 108.213 27.8199 106.96 25.9725 104.054L24.3785 99.1265L21.873 101.369L23.3439 105.247C23.3439 105.247 22.1897 113.582 22.9076 114.26C23.643 114.955 23.4425 112.712 23.636 111.905C23.8295 111.094 24.2342 109.504 24.2237 110.982C24.2131 112.459 25.0576 117.387 25.596 117.727C26.5496 118.324 25.0436 112.519 25.413 110.652C25.413 110.652 26.4617 115.263 26.7185 117.176C26.7185 117.176 26.8734 118.734 27.5807 118.538C28.288 118.341 27.4927 116.59 27.454 115.488C27.4118 114.382 26.7432 111.403 26.6517 110.996C26.5602 110.589 27.1021 111.484 27.4434 113.007C27.7848 114.53 28.3302 116.972 28.8967 116.6C29.7377 116.046 26.6939 108.262 27.8411 108.981C28.2985 109.269 28.6786 109.824 29.0445 110.694C29.4105 111.564 30.4661 111.09 29.97 109.792L29.977 109.788Z" fill="#FFC8C7"/>
<path d="M24.297 39.9029C15.5279 50.414 13.4377 65.1962 13.0366 72.4539C12.7023 78.4903 17.9806 93.9007 23.1006 105.37C24.2547 104.015 25.972 101.716 27.2106 100.509C24.7298 92.6478 22.2842 83.6879 22.2842 78.8237C22.2842 74.7 30.1137 61.4199 34.0337 55.0255C36.1872 51.516 37.0494 47.0975 36.1485 42.9281C34.6319 35.9196 29.248 33.9788 24.3005 39.9064L24.297 39.9029Z" fill="#F9B406"/>
<path d="M35.3955 40.2575C34.7797 38.9624 33.8718 37.7481 32.6085 37.0427C36.7749 39.724 37.0916 47.6731 34.8711 52.6988C33.8929 55.001 23.47 70.7484 22.1082 77.4832C20.9857 81.7578 25.7784 96.3505 27.207 100.509C26.1127 96.5891 21.7563 81.5753 22.8155 77.6376C24.0999 71.4959 34.4067 55.6222 35.4518 52.9445C36.5567 50.2491 37.0353 43.6793 35.3955 40.261V40.2575Z" fill="#FFC648"/>
</svg>
