<svg width="66" height="66" viewBox="0 0 66 66" fill="none" xmlns="http://www.w3.org/2000/svg">
<g clip-path="url(#clip0_8017_496)">
<path d="M33.9512 0H32.051C30.9636 0 30.082 0.881549 30.082 1.96899V64.031C30.082 65.1185 30.9636 66 32.051 66H33.9512C35.0387 66 35.9202 65.1185 35.9202 64.031V1.96899C35.9202 0.881549 35.0387 0 33.9512 0Z" fill="white"/>
<path d="M44.4797 4.79787C45.2493 5.56742 45.2493 6.81416 44.4797 7.5837L33.0527 19.0193L33.0097 18.9678L32.9581 19.0193L21.5225 7.5837C20.7529 6.81416 20.7529 5.56742 21.5225 4.79787L22.8638 3.45655C23.6333 2.68701 24.8801 2.68701 25.6496 3.45655L31.6125 9.41942C32.382 10.189 33.6288 10.189 34.3983 9.41942L40.3526 3.46085C41.1221 2.69131 42.3689 2.69131 43.1384 3.46085L44.4754 4.79787H44.4797Z" fill="white"/>
<path d="M21.5225 61.2066C20.7529 60.437 20.7529 59.1903 21.5225 58.4207L32.9495 46.9851L32.9925 47.0367L33.0441 46.9851L44.4797 58.4207C45.2493 59.1903 45.2493 60.437 44.4797 61.2066L43.1384 62.5479C42.3689 63.3174 41.1221 63.3174 40.3526 62.5479L34.3897 56.585C33.6202 55.8155 32.3734 55.8155 31.6039 56.585L25.6496 62.5436C24.8801 63.3131 23.6333 63.3131 22.8638 62.5436L21.5268 61.2066H21.5225Z" fill="white"/>
<path d="M66 33.95V32.0498C66 30.9624 65.1185 30.0808 64.031 30.0808L1.96899 30.0808C0.881546 30.0808 0 30.9624 0 32.0498V33.95C0 35.0375 0.881546 35.919 1.96899 35.919H64.031C65.1185 35.919 66 35.0375 66 33.95Z" fill="white"/>
<path d="M61.2058 44.4785C60.4363 45.2481 59.1896 45.2481 58.42 44.4785L46.9844 33.0515L47.036 33.0085L46.9844 32.9569L58.42 21.5212C59.1896 20.7517 60.4363 20.7517 61.2058 21.5212L62.5472 22.8626C63.3167 23.6321 63.3167 24.8789 62.5472 25.6484L56.5843 31.6113C55.8148 32.3808 55.8148 33.6276 56.5843 34.3971L62.5429 40.3514C63.3124 41.1209 63.3124 42.3676 62.5429 43.1372L61.2058 44.4742V44.4785Z" fill="white"/>
<path d="M4.79739 21.5212C5.56693 20.7517 6.81367 20.7517 7.58321 21.5212L19.0189 32.9483L18.9673 32.9913L19.0189 33.0429L7.58321 44.4785C6.81367 45.2481 5.56693 45.2481 4.79739 44.4785L3.45606 43.1372C2.68652 42.3676 2.68652 41.1209 3.45606 40.3514L9.41893 34.3885C10.1885 33.619 10.1885 32.3722 9.41893 31.6027L3.46036 25.6484C2.69082 24.8789 2.69082 23.6321 3.46036 22.8626L4.79739 21.5255V21.5212Z" fill="white"/>
<path d="M17.2393 48.7648C16.4697 47.991 16.4697 46.7442 17.2393 45.9747L45.9745 17.2351C46.7441 16.4656 47.9908 16.4656 48.7604 17.2351C49.5299 18.009 49.5299 19.2557 48.7604 20.0252L20.0251 48.7648C19.2556 49.5344 18.0088 49.5344 17.2393 48.7648Z" fill="white"/>
<path d="M51.9545 24.3716C51.9545 25.4593 51.0731 26.3406 49.9855 26.3406H39.702V26.2976H39.6504V16.0142C39.6504 14.9265 40.5317 14.0452 41.6237 14.0452C42.7114 14.0452 43.5927 14.9265 43.5927 16.0142V20.4336C43.5927 21.5213 44.474 22.4026 45.5617 22.4026H49.9726C51.0602 22.4026 51.9416 23.284 51.9416 24.3716H51.9545Z" fill="white"/>
<path d="M14.0449 41.6282C14.0449 40.5405 14.9262 39.6592 16.0139 39.6592H26.2974V39.7022H26.349V49.9857C26.349 51.0733 25.4677 51.9546 24.3757 51.9546C23.288 51.9546 22.4067 51.0733 22.4067 49.9857V45.5662C22.4067 44.4785 21.5254 43.5972 20.4377 43.5972H16.0268C14.9391 43.5972 14.0578 42.7159 14.0578 41.6282H14.0449Z" fill="white"/>
<path d="M17.2354 17.2396C18.0049 16.4657 19.2516 16.4657 20.0212 17.2396L48.7608 45.9791C49.5303 46.7487 49.5303 47.9954 48.7608 48.765C47.9912 49.5388 46.7445 49.5388 45.9749 48.765L17.2354 20.0254C16.4658 19.2558 16.4658 18.0091 17.2354 17.2396Z" fill="white"/>
<path d="M41.6272 51.9547C40.5395 51.9547 39.6582 51.0734 39.6582 49.9857V39.7022H39.7012V39.6506H49.9847C51.0723 39.6506 51.9537 40.532 51.9537 41.6239C51.9537 42.7159 51.0723 43.5972 49.9847 43.5972H45.5652C44.4775 43.5972 43.5962 44.4785 43.5962 45.5662V49.9771C43.5962 51.0648 42.7149 51.9461 41.6272 51.9461V51.9547Z" fill="white"/>
<path d="M24.3714 14.0452C25.4591 14.0452 26.3404 14.9265 26.3404 16.0142V26.2976H26.2974V26.3492H16.0139C14.9262 26.3492 14.0449 25.4679 14.0449 24.3759C14.0449 23.284 14.9262 22.4026 16.0139 22.4026H20.4334C21.5211 22.4026 22.4024 21.5213 22.4024 20.4336V16.0228C22.4024 14.9351 23.2837 14.0538 24.3714 14.0538V14.0452Z" fill="white"/>
</g>
<defs>
<clipPath id="clip0_8017_496">
<rect width="66" height="66" fill="white"/>
</clipPath>
</defs>
</svg>
