<svg width="95" height="217" viewBox="0 0 95 217" fill="none" xmlns="http://www.w3.org/2000/svg">
<path d="M78.8412 160.471L67.5936 110.425L49.7148 122.855L69.3727 164.503C69.3727 164.503 69.7981 166.161 69.7981 169.246C69.7981 171.394 78.1661 200.812 80.2652 208.154C81.3657 207.947 82.4732 207.735 83.5772 207.535C82.5787 198.055 78.8447 160.471 78.8447 160.471H78.8412Z" fill="#FFC8C7"/>
<path d="M45.6861 164.267L68.2903 113.537L66.8804 107.695C58.1186 98.92 45.9217 110.541 42.8276 117.422C39.7335 124.299 38.6998 157.27 38.6998 157.27C38.6998 157.27 38.0388 158.918 35.7886 161.587C34.231 163.436 21.0602 202.231 20.8281 202.914C21.0883 204.569 21.911 205.929 22.8604 207.193C22.9131 206.626 22.9553 206.253 22.9553 206.253C29.5618 194.051 39.2097 176.24 45.6896 164.27L45.6861 164.267Z" fill="#FFCECE"/>
<path d="M63.0299 113.597L49.7148 122.855L69.3727 164.503C69.3727 164.503 69.7981 166.161 69.7981 169.246C69.7981 169.584 70.0056 170.605 70.3677 172.112C73.7149 172.384 76.9848 172.602 80.0683 172.746C79.3651 165.696 78.8447 160.471 78.8447 160.471L69.8192 120.32C66.2048 116.203 63.5819 113.597 63.0299 113.597Z" fill="#E24242"/>
<path d="M39.133 147.515C38.8306 153.15 38.7006 157.27 38.7006 157.27C38.7006 157.27 38.0396 158.918 35.7893 161.587C35.4307 162.013 34.4568 164.39 33.1699 167.813C35.9054 168.2 39.2772 168.665 43.0428 169.151C43.9675 167.443 44.8535 165.806 45.6868 164.267L50.8834 152.604L39.133 147.515Z" fill="#E24242"/>
<path d="M16.8806 17.7762C-11.6726 46.3736 4.638 77.3972 4.638 77.3972L67.3912 0.503706C67.3912 0.503706 38.5637 -3.94384 16.8806 17.7727V17.7762Z" fill="#FF3194"/>
<path d="M83.4308 19.5474C82.7944 18.6565 80.5301 14.6843 79.2503 11.6383C78.6491 10.2121 78.526 8.83876 78.41 8.35633C78.8987 8.2366 75.1788 6.79635 72.3414 4.74336C69.7923 2.89814 68.1644 0.404985 67.3909 0.503584C66.3994 -0.859202 51.787 0.788818 51.474 2.46501C51.474 2.46501 51.474 2.45797 51.4705 2.45445C50.6548 0.827554 37.1253 7.05693 36.7421 8.71199C35.2056 7.9901 23.4517 16.9697 23.4482 18.6917C21.8308 17.7972 12.1267 30.1891 12.8088 31.8336C12.6752 31.6329 3.95559 44.6233 4.52166 46.1657C3.4739 46.1235 1.79327 56.4975 1.68076 60.3781C1.67724 60.5366 1.67372 60.6845 1.67724 60.8183C1.67724 61.2444 4.61308 77.3654 4.63769 77.3936C5.86828 77.4852 14.2574 82.2567 15.0872 83.2532C16.6096 82.8764 26.7075 82.3729 28.2545 82.725C29.6363 81.894 40.7714 78.5275 42.227 78.6507C43.3205 77.464 53.0141 71.1114 54.4451 70.8156C55.3135 69.4634 64.4339 60.8183 65.4958 60.8007C65.8896 59.364 67.3417 56.7863 69.3669 54.0572C71.2901 51.4654 73.2344 49.4054 74.5002 48.5251C74.6268 47.0109 75.5022 44.2536 76.877 41.2463C78.2306 38.2848 79.7179 35.8515 80.7762 34.7387C80.4035 33.4323 80.5688 30.263 81.2649 26.643C81.8556 23.5583 82.6854 20.9207 83.4308 19.5439V19.5474Z" fill="#9E005D"/>
<path d="M80.5517 34.9923C80.629 34.9043 80.7029 34.8198 80.7767 34.7423C80.7591 34.6825 43.5003 41.5105 43.5003 41.5105C43.5003 41.5105 83.375 19.646 83.4313 19.5474C83.3961 19.5017 83.361 19.4418 83.3188 19.3784L43.4124 41.3168C43.4124 41.3168 78.4105 8.36343 78.4069 8.35287C78.5195 8.3247 78.4667 8.18736 78.2839 7.96552L43.3069 41.1619L67.6305 0.517731C67.5391 0.500124 67.4582 0.496602 67.3914 0.503645C67.3597 0.457867 43.2014 41.0351 43.2014 41.0351L51.7593 2.10237C51.5976 2.22209 51.4992 2.34182 51.4781 2.46507C51.4781 2.46507 51.4781 2.45803 51.4745 2.45451C51.4394 2.3876 43.0151 41.0985 43.0151 41.0985C43.0151 41.0985 36.7637 8.63106 36.7461 8.71205C36.6863 8.68388 36.616 8.6698 36.5316 8.6698L42.7303 41.19L23.5084 18.4523C23.4733 18.5438 23.4522 18.6213 23.4522 18.6917C23.3713 18.646 42.558 41.4013 42.558 41.4013L12.7777 31.6153C12.7777 31.6998 12.7882 31.7738 12.8128 31.8336C12.8023 31.8196 42.4596 41.6056 42.4596 41.6056L4.50107 45.9545C4.50107 46.039 4.5081 46.1094 4.52568 46.1623C4.43426 46.1587 42.558 41.8239 42.558 41.8239L1.68477 60.3747C1.68125 60.5331 1.67773 60.681 1.67773 60.8148L42.4104 42.1267C42.4104 42.1267 4.61358 77.362 4.63467 77.3901C4.69796 77.3937 4.78235 77.4113 4.88431 77.443L42.5545 42.1514C42.5545 42.1514 15.0525 83.211 15.0877 83.2498C15.1615 83.2322 15.26 83.211 15.376 83.1934L42.7725 42.1619C42.7725 42.1619 28.2023 82.7075 28.2585 82.7216C28.3253 82.6828 28.4168 82.6335 28.5258 82.5842L43.0046 42.2711L40.4273 78.929C40.568 78.8973 40.6981 78.8691 40.8246 78.841L43.1768 42.3239L53.8619 71.0375C53.9955 70.9741 54.1115 70.9248 54.2135 70.8861L43.2823 42.0493L65.883 59.7443C65.9323 59.6317 65.985 59.5119 66.0448 59.3922L43.5003 41.9471L73.8362 49.0393C73.9698 48.923 74.0999 48.8209 74.2264 48.7223L43.532 41.7358L80.5517 34.9853V34.9923Z" fill="#552E5D"/>
<path d="M65.2598 63.0262C65.2598 63.0262 67.1197 64.9665 74.4857 78.0908C84.1933 95.3845 70.8396 88.6304 70.8396 88.6304L65.2598 63.0227V63.0262Z" fill="#F9C606"/>
<path d="M62.6489 63.97C62.6489 63.97 72.7679 40.2286 67.1669 36.7107C58.2117 31.087 52.4139 37.327 51.7494 41.9013C51.0848 46.4721 59.7201 64.8926 59.7201 64.8926L62.6489 63.97Z" fill="#381A3F"/>
<path d="M72.7697 55.4763C72.7697 53.3282 71.9329 54.1135 71.3176 51.5217C70.7058 48.9264 72.5446 48.5567 71.1136 45.2114C69.6826 41.866 69.4224 37.8129 66.9542 37.4326L59.0081 35.8303C59.0081 35.8303 58.8464 35.8515 58.5721 35.9219C57.3732 36.2247 54.0506 37.4502 53.1329 41.8695C52.0078 47.2925 54.7186 55.3777 57.7564 56.2968C60.7942 57.2194 65.7412 59.5435 65.7412 61.5155C65.7412 63.4875 63.5965 62.3325 63.5965 62.3325C63.5965 62.3325 67.3129 64.5826 68.2938 61.7197C68.2938 61.7197 69.8866 61.8219 71.0117 61.8219C72.1368 61.8219 72.8892 59.2442 71.8907 58.2406C71.8907 58.2406 72.7697 57.6279 72.7697 55.4763Z" fill="#18287D"/>
<path d="M83.8173 209.689C83.7505 209.496 82.8012 192.417 81.4018 178.433C78.5785 178.532 73.6632 178.444 70.8398 178.824C74.057 190.871 79.6298 209.809 79.6298 209.809L79.1376 214.299C79.0497 214.922 80.6354 214.802 81.2612 214.732C82.6254 214.581 84.9319 214.45 87.1364 214.908C88.6834 215.229 92.4385 214.7 91.9181 214.496C88.9085 213.299 84.3693 211.26 83.8208 209.693L83.8173 209.689Z" fill="#9E005D"/>
<path d="M18.6909 203.64L16.3984 204.936C16.6762 205.753 19.0741 214.69 20.1289 214.69C20.1289 214.69 25.5013 214.627 25.5013 214.45C25.5013 213.426 23.6062 213.549 22.8362 212.778C22.0662 212.007 22.9522 206.246 22.9522 206.246C27.407 198.016 33.247 187.237 38.5632 177.416C36.2286 175.778 31.3765 173.373 28.743 172.338C24.3199 184.575 18.6873 203.636 18.6873 203.636L18.6909 203.64Z" fill="#9E005D"/>
<path d="M59.5159 60.8077C59.5159 60.8077 59.5264 60.8077 59.5299 60.8077C56.9808 60.6809 57.793 60.7197 56.2495 60.8394C53.6055 61.0472 51.3412 62.8219 50.3778 65.294L49.7133 79.4712C54.8677 98.0466 48.43 103.061 46.0426 108.051C44.8331 110.579 22.2676 162.714 22.2676 162.714C22.2676 162.714 62.0649 168.183 79.3354 166.387C77.5353 154.572 67.6518 89.6586 65.7427 75.5342C64.6562 67.4878 61.9138 63.1353 59.5194 60.8077H59.5159Z" fill="#F9B406"/>
<path d="M86.023 165.689C80.9213 140.209 72.8838 88.6516 70.841 78.0591C70.18 74.6328 69.424 61.2972 59.7973 60.8218C59.741 60.8218 59.6848 60.8148 59.6285 60.8148C59.6004 60.8148 59.5758 60.8148 59.5477 60.8113C59.5441 60.8113 59.5371 60.8113 59.5336 60.8113C59.5301 60.8113 59.523 60.8113 59.5195 60.8113C61.9139 63.1389 64.6564 67.4914 65.7428 75.5378C67.652 89.6622 77.5354 154.576 79.3356 166.39C79.4165 166.376 84.0927 166.193 86.023 165.693V165.689Z" fill="#FF9739"/>
<path d="M63.5967 53.0994C63.5967 53.0994 61.9793 61.255 62.6474 63.2939C63.3189 65.3328 55.756 65.118 55.3728 62.7692C54.9896 60.4204 59.483 49.3914 59.483 49.3914L63.5932 53.0994H63.5967Z" fill="#FFCECE"/>
<path d="M59.4869 49.3949C59.4869 49.3949 58.7134 51.2894 57.8379 53.6769C59.3849 54.3636 61.5789 55.339 62.6899 55.8637C62.82 55.9236 62.9501 55.9834 63.0837 56.0433C63.3474 54.3742 63.6006 53.0994 63.6006 53.0994L59.4904 49.3914L59.4869 49.3949Z" fill="#FFC8C7"/>
<path d="M64.4831 37.0981C64.4831 37.0981 68.2136 36.7671 68.7937 39.6723C69.3739 42.581 67.1623 45.2361 67.7143 46.3454C68.2663 47.4511 69.4969 48.0603 69.8309 48.2082C70.1614 48.3526 69.5391 49.3104 69.0012 49.5146C69.0012 49.5146 68.7621 50.0428 68.9168 50.2013C69.0715 50.3562 69.4547 50.638 69.3317 51.0112C69.2086 51.3845 68.5652 51.5711 68.5652 51.5711C68.5652 51.5711 69.1981 52.2261 68.8746 52.5466C68.5546 52.867 67.8796 53.0431 67.8796 53.0431C67.8796 53.0431 68.0448 54.5186 67.3416 54.9517C66.6384 55.3883 64.5078 54.8144 62.683 54.0396C60.8582 53.2649 56.1116 51.381 56.1116 51.381C56.1116 51.381 51.6779 34.1613 64.4796 37.0946L64.4831 37.0981Z" fill="#FFCECE"/>
<path d="M67.4571 50.9126C67.2427 51.3106 68.1357 51.5148 68.5647 51.5711C68.2377 51.5711 67.4606 51.5394 67.3341 51.1169C67.2919 50.9619 67.3376 50.7013 67.436 50.7823C67.4677 50.807 67.4782 50.8598 67.4607 50.9021V50.9091L67.4571 50.9126Z" fill="#2846A6"/>
<path d="M67.3629 45.8665C67.3629 45.8665 67.5247 46.4193 66.9551 46.6729L67.3629 45.8665Z" fill="#2846A6"/>
<path d="M65.7422 45.5636C66.5403 45.6868 67.9924 45.7784 68.569 45.2114C68.2174 45.9826 66.6106 46.0777 65.7422 45.5636Z" fill="#0F1D5B"/>
<path d="M56.4534 56.2969C56.4534 56.2969 61.9067 60.0824 63.5979 59.519L62.6486 63.97C62.6486 63.97 61.8469 65.692 56.7593 64.4313C51.6717 63.1707 56.4534 56.2969 56.4534 56.2969Z" fill="#595784"/>
<path d="M63.9062 36.929C63.9062 36.929 69.4158 37.2107 70.8081 39.8729C72.2004 42.5351 71.2828 44.4578 69.9256 44.8346C69.9256 44.8346 71.216 45.2114 72.1372 45.2114C73.0583 45.2114 73.6701 41.0491 72.3411 39.0524C71.0121 37.0558 70.0346 36.5945 63.9062 36.929Z" fill="#2846A6"/>
<path d="M66.0804 37.165C66.0804 37.165 61.1826 47.2644 59.8079 45.884C58.4331 44.5071 56.6611 45.5847 57.758 47.768C58.855 49.9512 60.4091 53.8847 57.758 55.0573C55.107 56.2299 49.8647 44.8487 52.4524 41.0209C55.0402 37.1932 59.4668 34.943 61.8542 35.4888C64.238 36.0346 66.0839 37.165 66.0839 37.165H66.0804Z" fill="#18287D"/>
<path d="M59.7222 64.8926C59.7222 64.8926 56.6317 53.1064 57.7568 45.2114C58.8819 37.3164 67.1691 36.7107 67.1691 36.7107C67.1691 36.7107 64.8485 33.5767 56.811 33.5767C48.7735 33.5767 44.5508 35.8268 44.5508 35.8268C44.5508 35.8268 49.2516 60.1563 54.1037 63.1706C54.1037 63.1706 56.3504 64.889 59.7222 64.889V64.8926Z" fill="#F9C606"/>
<path d="M56.8071 33.5768C48.7696 33.5768 44.5469 35.8269 44.5469 35.8269C44.5469 35.8269 45.9849 43.2712 48.091 50.4338C51.1604 36.9327 60.9208 35.3093 65.2665 35.2776C63.7125 34.4501 61.0579 33.5732 56.8071 33.5732V33.5768Z" fill="#FF9739"/>
<path d="M60.2086 46.9581C60.2086 46.9581 60.0609 44.9333 59.0061 44.553C57.9549 44.1727 56.3656 46.9405 58.2572 48.8315C60.1488 50.726 60.2086 46.9546 60.2086 46.9546V46.9581Z" fill="#FFCECE"/>
<path d="M69.7 76.478L69.25 85.2323C69.25 85.2323 72.6464 92.5181 75.3045 93.2364C77.9626 93.9548 80.9195 91.4511 78.0224 85.3555C75.1287 79.2635 69.7 76.478 69.7 76.478Z" fill="#FCEE21"/>
<path d="M71.6412 80.9185C71.6412 83.3694 70.7728 85.359 69.7004 85.359C68.628 85.359 68.6632 83.6441 67.7596 80.9185C66.9896 78.5909 68.628 76.478 69.7004 76.478C70.7728 76.478 71.6412 78.4676 71.6412 80.9185Z" fill="#381A3F"/>
<path d="M89.5063 105.213C86.4333 106.361 83.4729 104.315 81.4371 101.568C78.0759 97.0326 56.2698 61.8607 43.8021 41.0633C43.2466 40.1336 41.8437 40.9752 42.3992 41.9049C54.8809 62.727 76.3284 98.3461 79.7284 102.934C82.1474 106.199 86.9818 109.372 90.9654 107.255C94.7592 105.241 95.269 100.332 92.9906 97.427C92.4421 97.67 91.8937 97.9235 91.3416 98.0855C93.1981 100.128 92.5336 104.075 89.4993 105.213H89.5063Z" fill="#18287D"/>
<path d="M81.4371 101.565C74.1942 91.4757 57.212 63.579 50.3066 51.821C58.0523 64.2551 78.8001 97.5466 77.4676 95.3985C78.765 97.4691 80.0518 99.5503 81.4371 101.565Z" fill="#E3E4FF"/>
<path d="M56.1324 127.44L55.7104 127.398C52.641 127.091 50.3978 124.352 50.7037 121.277L51.5053 113.199L63.0413 114.344L62.2396 122.422C61.9337 125.496 59.1983 127.743 56.1288 127.436L56.1324 127.44Z" fill="#FF9739"/>
<path d="M65.2594 78.8092C65.2594 78.8092 65.7129 80.0029 67.3901 80.3445C69.0707 80.6861 69.1023 78.6049 69.1023 78.6049C69.1023 78.6049 66.9576 79.3902 66.6833 78.8761C66.4091 78.3655 65.5653 78.4993 65.2559 78.8092H65.2594Z" fill="#FFC8C7"/>
<path d="M69.9574 79.1507C69.9574 79.1507 70.8785 81.503 70.3652 82.6298C69.9433 83.563 69.0186 85.0843 68.4842 85.0843C67.9497 85.0843 67.8126 83.8764 67.563 83.5771C67.3907 83.3693 66.8422 83.2813 66.7754 82.8341C66.7121 82.3869 66.1109 81.8833 65.8718 81.6438C65.6327 81.4044 65.6819 80.4994 65.6819 80.4994C65.6819 80.4994 68.2873 78.7774 69.103 78.6084C69.9187 78.4394 69.9538 79.1542 69.9538 79.1542L69.9574 79.1507Z" fill="#FFCECE"/>
<path d="M60.2852 80.2178C60.2852 80.2178 64.1949 74.8828 64.3602 74.3757C64.3602 74.3757 65.8826 74.7807 65.8826 76.4745C65.8826 76.4745 66.1322 76.3794 66.5471 77.1576C66.962 77.9394 66.86 77.7281 67.1483 78.0098C67.4367 78.2915 67.9289 78.9254 67.5562 79.7881C67.1835 80.6509 61.6775 82.5736 61.6775 82.5736L60.2852 80.2107V80.2178Z" fill="#FFC8C7"/>
<path d="M55.3734 62.7728C53.6857 61.9875 50.5213 60.8536 44.5477 66.8365C36.0179 75.3795 30.9584 89.2468 35.2515 96.103C39.5445 102.959 60.6931 92.7259 64.1985 84.0069L60.9498 76.4781C60.9498 76.4781 49.9447 87.3804 47.0019 84.4365C44.0625 81.4926 54.6878 77.5803 57.3775 72.8722C60.0637 68.1641 57.0892 63.5651 55.3769 62.7693L55.3734 62.7728Z" fill="#FCEE21"/>
<path d="M91.9634 214.539H78.9473V216.039H91.9634V214.539Z" fill="#FF9739"/>
<path d="M19.057 215.679L15.084 205.929L16.399 204.936L20.0415 214.457L25.4983 214.331L25.4667 215.289L19.057 215.679Z" fill="#F9B406"/>
<path d="M59.4735 47.0849C59.5333 46.6306 59.4559 45.1657 58.4785 45.546C57.501 45.9263 58.4222 48.2082 58.7914 48.2082C59.1606 48.2082 59.4313 47.4088 59.4735 47.0813V47.0849Z" fill="#FFC8C7"/>
</svg>
