<svg width="102" height="93" viewBox="0 0 102 93" fill="none" xmlns="http://www.w3.org/2000/svg">
<circle cx="70" cy="32" r="32" fill="#FFCA00"/>
<path d="M88.6459 49.9806C88.5982 49.9806 88.5505 49.9925 88.5029 49.9925C89.4208 47.8552 89.9394 45.5024 89.9394 43.0299C89.9394 33.3252 82.1071 25.4586 72.445 25.4586C69.0296 25.4586 65.8526 26.4584 63.1644 28.1526C59.5225 19.2622 50.82 13 40.6572 13C27.2161 13 16.3201 23.9439 16.3201 37.4442C16.3201 38.4619 16.4035 39.4617 16.5228 40.4496C16.4572 40.4496 16.3857 40.4376 16.3201 40.4376C7.30769 40.4376 0 47.7774 0 56.8295C0 65.8815 7.30769 73.2214 16.3201 73.2214H88.6519C95.0416 73.2214 100.227 68.0188 100.227 61.601C100.227 55.1831 95.0476 49.9746 88.6519 49.9746L88.6459 49.9806Z" fill="white"/>
<path d="M34.4766 69.1364L31.9132 73.1768C31.4292 73.9398 30.4168 74.1662 29.6538 73.6822C28.8909 73.1981 28.6644 72.1858 29.1485 71.4228L31.7118 67.3824C32.1959 66.6194 33.2082 66.393 33.9712 66.877C34.7342 67.3611 34.9606 68.3734 34.4766 69.1364Z" fill="#AEAEAE"/>
<path d="M49.2695 71.3798L46.7062 75.4202C46.2221 76.1832 45.2098 76.4096 44.4468 75.9256C43.6838 75.4415 43.4574 74.4292 43.9415 73.6662L46.5048 69.6258C46.9889 68.8628 48.0012 68.6364 48.7642 69.1204C49.5271 69.6045 49.7536 70.6168 49.2695 71.3798Z" fill="#AEAEAE"/>
<path d="M64.373 87.4455L61.8097 91.4859C61.3257 92.2489 60.3133 92.4753 59.5503 91.9913C58.7874 91.5072 58.5609 90.4949 59.045 89.7319L61.6083 85.6915C62.0924 84.9285 63.1047 84.7021 63.8677 85.1861C64.6307 85.6702 64.8571 86.6825 64.373 87.4455Z" fill="#AEAEAE"/>
<path d="M44.6699 86.6557L42.1066 90.6961C41.6225 91.4591 40.6102 91.6855 39.8472 91.2015C39.0842 90.7174 38.8578 89.7051 39.3419 88.9421L41.9052 84.9017C42.3892 84.1387 43.4016 83.9123 44.1646 84.3963C44.9275 84.8804 45.154 85.8927 44.6699 86.6557Z" fill="#AEAEAE"/>
<path d="M65.6074 70.58L63.0441 74.6204C62.56 75.3834 61.5477 75.6098 60.7847 75.1258C60.0217 74.6417 59.7953 73.6294 60.2794 72.8664L62.8427 68.826C63.3267 68.063 64.3391 67.8366 65.1021 68.3206C65.865 68.8047 66.0915 69.817 65.6074 70.58Z" fill="#AEAEAE"/>
<path d="M57.0918 79.9565L54.5284 83.9969C54.0444 84.7599 53.032 84.9863 52.2691 84.5022C51.5061 84.0182 51.2797 83.0058 51.7637 82.2429L54.3271 78.2025C54.8111 77.4395 55.8235 77.2131 56.5864 77.6971C57.3494 78.1811 57.5758 79.1935 57.0918 79.9565Z" fill="#AEAEAE"/>
<path d="M34.0918 80.9565L31.5284 84.9969C31.0444 85.7599 30.032 85.9863 29.2691 85.5022C28.5061 85.0182 28.2797 84.0058 28.7637 83.2429L31.3271 79.2025C31.8111 78.4395 32.8235 78.2131 33.5864 78.6971C34.3494 79.1811 34.5758 80.1935 34.0918 80.9565Z" fill="#AEAEAE"/>
</svg>
