<svg width="24" height="24" viewBox="0 0 24 24" fill="none" xmlns="http://www.w3.org/2000/svg">
<path d="M-3.92855e-07 22.707C1.232e-06 23.2593 0.447716 23.707 1 23.707L10 23.707C10.5523 23.707 11 23.2593 11 22.707C11 22.1547 10.5523 21.707 10 21.707L2 21.707L2 13.707C2 13.1547 1.55228 12.707 1 12.707C0.447715 12.707 -3.31838e-07 13.1547 2.86134e-08 13.707L-3.92855e-07 22.707ZM23 0.707031L22.2929 -7.55191e-05L0.292893 21.9999L1 22.707L1.70711 23.4141L23.7071 1.41414L23 0.707031Z" fill="white"/>
</svg>
