<svg width="102" height="108" viewBox="0 0 102 108" fill="none" xmlns="http://www.w3.org/2000/svg">
<circle cx="70" cy="32" r="32" fill="#FFCA00"/>
<path d="M88.6459 49.9806C88.5982 49.9806 88.5505 49.9925 88.5029 49.9925C89.4208 47.8552 89.9394 45.5024 89.9394 43.0299C89.9394 33.3252 82.1071 25.4586 72.445 25.4586C69.0296 25.4586 65.8526 26.4584 63.1644 28.1526C59.5225 19.2622 50.82 13 40.6572 13C27.2161 13 16.3201 23.9439 16.3201 37.4442C16.3201 38.4619 16.4035 39.4617 16.5228 40.4496C16.4572 40.4496 16.3857 40.4376 16.3201 40.4376C7.30769 40.4376 0 47.7774 0 56.8295C0 65.8815 7.30769 73.2214 16.3201 73.2214H88.6519C95.0416 73.2214 100.227 68.0188 100.227 61.601C100.227 55.1831 95.0476 49.9746 88.6519 49.9746L88.6459 49.9806Z" fill="white"/>
<path d="M45.2133 64.001L38 85.8373H47.9448L41.5003 108.001L65 76.7098H52.8658L57.4573 64.001H45.2133Z" fill="#FFCA00"/>
<g clip-path="url(#clip0_8035_661)">
<path d="M26.2016 79H25.7985C25.5679 79 25.3809 79.187 25.3809 79.4177V92.5823C25.3809 92.813 25.5679 93 25.7985 93H26.2016C26.4323 93 26.6193 92.813 26.6193 92.5823V79.4177C26.6193 79.187 26.4323 79 26.2016 79Z" fill="white"/>
<path d="M28.4355 80.0178C28.5987 80.181 28.5987 80.4455 28.4355 80.6087L26.0116 83.0345L26.0025 83.0235L25.9915 83.0345L23.5658 80.6087C23.4026 80.4455 23.4026 80.181 23.5658 80.0178L23.8503 79.7333C24.0135 79.57 24.278 79.57 24.4412 79.7333L25.7061 80.9981C25.8693 81.1614 26.1338 81.1614 26.297 80.9981L27.5601 79.7342C27.7233 79.5709 27.9877 79.5709 28.151 79.7342L28.4346 80.0178H28.4355Z" fill="white"/>
<path d="M23.5658 91.9832C23.4026 91.82 23.4026 91.5555 23.5658 91.3923L25.9897 88.9666L25.9988 88.9775L26.0098 88.9666L28.4355 91.3923C28.5987 91.5555 28.5987 91.82 28.4355 91.9832L28.151 92.2678C27.9877 92.431 27.7233 92.431 27.5601 92.2678L26.2952 91.0029C26.132 90.8397 25.8675 90.8397 25.7043 91.0029L24.4412 92.2668C24.278 92.4301 24.0135 92.4301 23.8503 92.2668L23.5667 91.9832H23.5658Z" fill="white"/>
<path d="M33 86.2016V85.7985C33 85.5679 32.813 85.3809 32.5823 85.3809H19.4177C19.187 85.3809 19 85.5679 19 85.7985V86.2016C19 86.4323 19.187 86.6193 19.4177 86.6193H32.5823C32.813 86.6193 33 86.4323 33 86.2016Z" fill="white"/>
<path d="M31.9835 88.4348C31.8202 88.598 31.5558 88.598 31.3925 88.4348L28.9668 86.0109L28.9777 86.0017L28.9668 85.9908L31.3925 83.5651C31.5558 83.4018 31.8202 83.4018 31.9835 83.5651L32.268 83.8496C32.4312 84.0128 32.4312 84.2773 32.268 84.4405L31.0031 85.7054C30.8399 85.8686 30.8399 86.1331 31.0031 86.2963L32.2671 87.5593C32.4303 87.7226 32.4303 87.987 32.2671 88.1503L31.9835 88.4339V88.4348Z" fill="white"/>
<path d="M20.0183 83.5651C20.1815 83.4018 20.446 83.4018 20.6092 83.5651L23.035 85.989L23.024 85.9981L23.035 86.009L20.6092 88.4348C20.446 88.598 20.1815 88.598 20.0183 88.4348L19.7338 88.1503C19.5705 87.987 19.5705 87.7226 19.7338 87.5593L20.9986 86.2945C21.1618 86.1312 21.1618 85.8668 20.9986 85.7035L19.7347 84.4405C19.5714 84.2773 19.5714 84.0128 19.7347 83.8496L20.0183 83.566V83.5651Z" fill="white"/>
<path d="M22.6576 89.344C22.4943 89.1798 22.4943 88.9154 22.6576 88.7521L28.7529 82.6559C28.9162 82.4926 29.1806 82.4926 29.3439 82.6559C29.5071 82.82 29.5071 83.0845 29.3439 83.2477L23.2485 89.344C23.0853 89.5072 22.8208 89.5072 22.6576 89.344Z" fill="white"/>
<path d="M30.0221 84.1697C30.0221 84.4004 29.8351 84.5874 29.6044 84.5874H27.4231V84.5783H27.4121V82.3969C27.4121 82.1662 27.5991 81.9792 27.8307 81.9792C28.0614 81.9792 28.2484 82.1662 28.2484 82.3969V83.3344C28.2484 83.5651 28.4353 83.752 28.666 83.752H29.6017C29.8324 83.752 30.0193 83.939 30.0193 84.1697H30.0221Z" fill="white"/>
<path d="M21.9805 87.8303C21.9805 87.5995 22.1674 87.4126 22.3981 87.4126H24.5795V87.4217H24.5904V89.6031C24.5904 89.8338 24.4035 90.0207 24.1718 90.0207C23.9411 90.0207 23.7542 89.8338 23.7542 89.6031V88.6656C23.7542 88.4349 23.5672 88.2479 23.3365 88.2479H22.4009C22.1702 88.2479 21.9832 88.061 21.9832 87.8303H21.9805Z" fill="white"/>
<path d="M22.6556 82.6568C22.8189 82.4927 23.0833 82.4927 23.2466 82.6568L29.3428 88.7531C29.5061 88.9163 29.5061 89.1808 29.3428 89.344C29.1796 89.5082 28.9151 89.5082 28.7519 89.344L22.6556 83.2477C22.4924 83.0845 22.4924 82.82 22.6556 82.6568Z" fill="white"/>
<path d="M27.8317 90.0206C27.601 90.0206 27.4141 89.8337 27.4141 89.6029V87.4216H27.4232V87.4106H29.6045C29.8352 87.4106 30.0222 87.5976 30.0222 87.8292C30.0222 88.0609 29.8352 88.2478 29.6045 88.2478H28.6671C28.4363 88.2478 28.2494 88.4347 28.2494 88.6655V89.6011C28.2494 89.8318 28.0624 90.0188 27.8317 90.0188V90.0206Z" fill="white"/>
<path d="M24.1709 81.9792C24.4017 81.9792 24.5886 82.1662 24.5886 82.3969V84.5783H24.5795V84.5892H22.3981C22.1674 84.5892 21.9805 84.4023 21.9805 84.1706C21.9805 83.939 22.1674 83.752 22.3981 83.752H23.3356C23.5663 83.752 23.7533 83.5651 23.7533 83.3344V82.3987C23.7533 82.168 23.9402 81.9811 24.1709 81.9811V81.9792Z" fill="white"/>
</g>
<path d="M74.3171 78H73.6837C73.3212 78 73.0273 78.2938 73.0273 78.6563V99.3437C73.0273 99.7062 73.3212 100 73.6837 100H74.3171C74.6796 100 74.9734 99.7062 74.9734 99.3437V78.6563C74.9734 78.2938 74.6796 78 74.3171 78Z" fill="white"/>
<path d="M77.8253 79.5992C78.0818 79.8557 78.0818 80.2713 77.8253 80.5278L74.0163 84.3397L74.0019 84.3225L73.9847 84.3397L70.1729 80.5278C69.9163 80.2713 69.9163 79.8557 70.1729 79.5992L70.62 79.1521C70.8765 78.8956 71.2921 78.8956 71.5486 79.1521L73.5362 81.1397C73.7927 81.3962 74.2083 81.3962 74.4648 81.1397L76.4496 79.1535C76.7061 78.897 77.1217 78.897 77.3782 79.1535L77.8238 79.5992H77.8253Z" fill="white"/>
<path d="M70.1729 98.4019C69.9163 98.1454 69.9163 97.7298 70.1729 97.4733L73.9819 93.6614L73.9962 93.6786L74.0134 93.6614L77.8253 97.4733C78.0818 97.7298 78.0818 98.1454 77.8253 98.4019L77.3782 98.849C77.1217 99.1055 76.7061 99.1055 76.4496 98.849L74.4619 96.8613C74.2054 96.6048 73.7898 96.6048 73.5333 96.8613L71.5486 98.8475C71.2921 99.1041 70.8765 99.1041 70.62 98.8475L70.1743 98.4019H70.1729Z" fill="white"/>
<path d="M85 89.3166V88.6832C85 88.3207 84.7062 88.0269 84.3437 88.0269H63.6563C63.2938 88.0269 63 88.3207 63 88.6832V89.3166C63 89.6791 63.2938 89.9729 63.6563 89.9729H84.3437C84.7062 89.9729 85 89.6791 85 89.3166Z" fill="white"/>
<path d="M83.4046 92.8263C83.148 93.0828 82.7325 93.0828 82.4759 92.8263L78.6641 89.0172L78.6813 89.0029L78.6641 88.9857L82.4759 85.1738C82.7325 84.9173 83.148 84.9173 83.4046 85.1738L83.8517 85.6209C84.1082 85.8775 84.1082 86.293 83.8517 86.5495L81.864 88.5372C81.6075 88.7937 81.6075 89.2093 81.864 89.4658L83.8502 91.4505C84.1067 91.707 84.1067 92.1226 83.8502 92.3791L83.4046 92.8248V92.8263Z" fill="white"/>
<path d="M64.6004 85.1738C64.8569 84.9173 65.2725 84.9173 65.529 85.1738L69.3409 88.9828L69.3237 88.9972L69.3409 89.0144L65.529 92.8263C65.2725 93.0828 64.8569 93.0828 64.6004 92.8263L64.1533 92.3791C63.8968 92.1226 63.8968 91.707 64.1533 91.4505L66.1409 89.4629C66.3975 89.2064 66.3975 88.7908 66.1409 88.5343L64.1548 86.5495C63.8982 86.293 63.8982 85.8775 64.1548 85.6209L64.6004 85.1753V85.1738Z" fill="white"/>
<path d="M68.7471 94.2548C68.4906 93.9968 68.4906 93.5812 68.7471 93.3247L78.3255 83.7449C78.582 83.4884 78.9976 83.4884 79.2541 83.7449C79.5106 84.0028 79.5106 84.4184 79.2541 84.6749L69.6757 94.2548C69.4192 94.5113 69.0036 94.5113 68.7471 94.2548Z" fill="white"/>
<path d="M80.3201 86.1238C80.3201 86.4864 80.0263 86.7801 79.6638 86.7801H76.2359V86.7658H76.2188V83.338C76.2188 82.9754 76.5125 82.6816 76.8765 82.6816C77.2391 82.6816 77.5328 82.9754 77.5328 83.338V84.8111C77.5328 85.1737 77.8266 85.4675 78.1892 85.4675H79.6595C80.022 85.4675 80.3158 85.7612 80.3158 86.1238H80.3201Z" fill="white"/>
<path d="M67.6836 91.8761C67.6836 91.5135 67.9774 91.2197 68.3399 91.2197H71.7678V91.2341H71.7849V94.6619C71.7849 95.0244 71.4912 95.3182 71.1272 95.3182C70.7646 95.3182 70.4709 95.0244 70.4709 94.6619V93.1887C70.4709 92.8262 70.1771 92.5324 69.8145 92.5324H68.3442C67.9817 92.5324 67.6879 92.2386 67.6879 91.8761H67.6836Z" fill="white"/>
<path d="M68.7451 83.7464C69.0016 83.4885 69.4172 83.4885 69.6737 83.7464L79.2536 93.3263C79.5101 93.5828 79.5101 93.9984 79.2536 94.2549C78.9971 94.5129 78.5815 94.5129 78.325 94.2549L68.7451 84.675C68.4886 84.4185 68.4886 84.003 68.7451 83.7464Z" fill="white"/>
<path d="M76.879 95.3182C76.5164 95.3182 76.2227 95.0244 76.2227 94.6618V91.234H76.237V91.2168H79.6648C80.0274 91.2168 80.3211 91.5106 80.3211 91.8746C80.3211 92.2386 80.0274 92.5323 79.6648 92.5323H78.1917C77.8291 92.5323 77.5353 92.8261 77.5353 93.1887V94.659C77.5353 95.0215 77.2415 95.3153 76.879 95.3153V95.3182Z" fill="white"/>
<path d="M71.1258 82.6816C71.4883 82.6816 71.7821 82.9754 71.7821 83.338V86.7658H71.7678V86.783H68.3399C67.9774 86.783 67.6836 86.4892 67.6836 86.1252C67.6836 85.7612 67.9774 85.4675 68.3399 85.4675H69.8131C70.1756 85.4675 70.4694 85.1737 70.4694 84.8111V83.3408C70.4694 82.9783 70.7632 82.6845 71.1258 82.6845V82.6816Z" fill="white"/>
<defs>
<clipPath id="clip0_8035_661">
<rect width="14" height="14" fill="white" transform="translate(19 79)"/>
</clipPath>
</defs>
</svg>
