<svg width="102" height="103" viewBox="0 0 102 103" fill="none" xmlns="http://www.w3.org/2000/svg">
<circle cx="70" cy="32" r="32" fill="#AEAEAE"/>
<path d="M88.6459 49.9806C88.5982 49.9806 88.5505 49.9925 88.5029 49.9925C89.4208 47.8552 89.9394 45.5024 89.9394 43.0299C89.9394 33.3252 82.1071 25.4586 72.445 25.4586C69.0296 25.4586 65.8526 26.4584 63.1644 28.1526C59.5225 19.2622 50.82 13 40.6572 13C27.2161 13 16.3201 23.9439 16.3201 37.4442C16.3201 38.4619 16.4035 39.4617 16.5228 40.4496C16.4572 40.4496 16.3857 40.4376 16.3201 40.4376C7.30769 40.4376 0 47.7774 0 56.8295C0 65.8815 7.30769 73.2214 16.3201 73.2214H88.6519C95.0416 73.2214 100.227 68.0188 100.227 61.601C100.227 55.1831 95.0476 49.9746 88.6519 49.9746L88.6459 49.9806Z" fill="white"/>
<g clip-path="url(#clip0_8035_447)">
<path d="M62.4032 75H61.5971C61.1357 75 60.7617 75.374 60.7617 75.8353V102.165C60.7617 102.626 61.1357 103 61.5971 103H62.4032C62.8645 103 63.2385 102.626 63.2385 102.165V75.8353C63.2385 75.374 62.8645 75 62.4032 75Z" fill="white"/>
<path d="M66.8691 77.0353C67.1955 77.3618 67.1955 77.8907 66.8691 78.2172L62.0212 83.0687L62.003 83.0468L61.9811 83.0687L57.1296 78.2172C56.8031 77.8907 56.8031 77.3618 57.1296 77.0353L57.6987 76.4663C58.0251 76.1398 58.5541 76.1398 58.8805 76.4663L61.4102 78.996C61.7367 79.3225 62.2656 79.3225 62.5921 78.996L65.1182 76.4681C65.4446 76.1416 65.9735 76.1416 66.3 76.4681L66.8672 77.0353H66.8691Z" fill="white"/>
<path d="M57.1296 100.966C56.8031 100.64 56.8031 100.111 57.1296 99.7843L61.9775 94.9329L61.9957 94.9547L62.0176 94.9329L66.8691 99.7843C67.1955 100.111 67.1955 100.64 66.8691 100.966L66.3 101.535C65.9735 101.862 65.4446 101.862 65.1182 101.535L62.5885 99.0056C62.262 98.6791 61.7331 98.6791 61.4066 99.0056L58.8805 101.533C58.5541 101.86 58.0251 101.86 57.6987 101.533L57.1314 100.966H57.1296Z" fill="white"/>
<path d="M76 89.403V88.5968C76 88.1355 75.626 87.7615 75.1647 87.7615H48.8353C48.374 87.7615 48 88.1355 48 88.5968V89.403C48 89.8643 48.374 90.2383 48.8353 90.2383H75.1647C75.626 90.2383 76 89.8643 76 89.403Z" fill="white"/>
<path d="M73.9669 93.8698C73.6405 94.1963 73.1116 94.1963 72.7851 93.8698L67.9336 89.022L67.9555 89.0037L67.9336 88.9818L72.7851 84.1304C73.1116 83.8039 73.6405 83.8039 73.9669 84.1304L74.536 84.6994C74.8625 85.0259 74.8625 85.5548 74.536 85.8813L72.0063 88.411C71.6798 88.7374 71.6798 89.2664 72.0063 89.5928L74.5342 92.1189C74.8606 92.4454 74.8606 92.9743 74.5342 93.3008L73.9669 93.868V93.8698Z" fill="white"/>
<path d="M50.0366 84.1304C50.363 83.8039 50.8919 83.8039 51.2184 84.1304L56.0699 88.9782L56.048 88.9964L56.0699 89.0183L51.2184 93.8698C50.8919 94.1963 50.363 94.1963 50.0366 93.8698L49.4675 93.3008C49.141 92.9743 49.141 92.4454 49.4675 92.1189L51.9972 89.5892C52.3237 89.2627 52.3237 88.7338 51.9972 88.4073L49.4693 85.8813C49.1429 85.5548 49.1429 85.0259 49.4693 84.6994L50.0366 84.1322V84.1304Z" fill="white"/>
<path d="M55.3132 95.6882C54.9867 95.3599 54.9867 94.831 55.3132 94.5045L67.5039 82.312C67.8304 81.9855 68.3593 81.9855 68.6858 82.312C69.0123 82.6403 69.0123 83.1692 68.6858 83.4957L56.4951 95.6882C56.1686 96.0147 55.6397 96.0147 55.3132 95.6882Z" fill="white"/>
<path d="M70.0422 85.3394C70.0422 85.8009 69.6683 86.1748 69.2068 86.1748H64.8442V86.1565H64.8223V81.7938C64.8223 81.3324 65.1962 80.9585 65.6594 80.9585C66.1209 80.9585 66.4948 81.3324 66.4948 81.7938V83.6688C66.4948 84.1302 66.8686 84.5041 67.3301 84.5041H69.2014C69.6628 84.5041 70.0367 84.878 70.0367 85.3394H70.0422Z" fill="white"/>
<path d="M53.959 92.6605C53.959 92.1991 54.3329 91.8252 54.7943 91.8252H59.157V91.8434H59.1789V96.2061C59.1789 96.6676 58.805 97.0415 58.3417 97.0415C57.8803 97.0415 57.5064 96.6676 57.5064 96.2061V94.3312C57.5064 93.8697 57.1325 93.4959 56.6711 93.4959H54.7998C54.3383 93.4959 53.9645 93.122 53.9645 92.6605H53.959Z" fill="white"/>
<path d="M55.3113 82.3136C55.6377 81.9853 56.1667 81.9853 56.4931 82.3136L68.6857 94.5062C69.0121 94.8326 69.0121 95.3615 68.6857 95.688C68.3592 96.0163 67.8303 96.0163 67.5038 95.688L55.3113 83.4955C54.9848 83.169 54.9848 82.6401 55.3113 82.3136Z" fill="white"/>
<path d="M65.6615 97.0414C65.2001 97.0414 64.8262 96.6675 64.8262 96.2061V91.8434H64.8444V91.8215H69.2071C69.6685 91.8215 70.0424 92.1954 70.0424 92.6587C70.0424 93.1219 69.6685 93.4958 69.2071 93.4958H67.3322C66.8707 93.4958 66.4968 93.8697 66.4968 94.3312V96.2025C66.4968 96.6639 66.1229 97.0378 65.6615 97.0378V97.0414Z" fill="white"/>
<path d="M58.3399 80.9585C58.8014 80.9585 59.1752 81.3324 59.1752 81.7938V86.1565H59.157V86.1784H54.7943C54.3329 86.1784 53.959 85.8045 53.959 85.3412C53.959 84.878 54.3329 84.5041 54.7943 84.5041H56.6693C57.1307 84.5041 57.5046 84.1302 57.5046 83.6688V81.7975C57.5046 81.336 57.8785 80.9621 58.3399 80.9621V80.9585Z" fill="white"/>
</g>
<g clip-path="url(#clip1_8035_447)">
<path d="M33.7447 75H33.2552C32.9751 75 32.748 75.2271 32.748 75.5072V91.4928C32.748 91.7729 32.9751 92 33.2552 92H33.7447C34.0248 92 34.2518 91.7729 34.2518 91.4928V75.5072C34.2518 75.2271 34.0248 75 33.7447 75Z" fill="white"/>
<path d="M36.4564 76.2359C36.6546 76.4341 36.6546 76.7552 36.4564 76.9534L33.5131 79.899L33.502 79.8857L33.4887 79.899L30.5432 76.9534C30.345 76.7552 30.345 76.4341 30.5432 76.2359L30.8887 75.8904C31.0869 75.6921 31.408 75.6921 31.6062 75.8904L33.1421 77.4263C33.3404 77.6245 33.6615 77.6245 33.8597 77.4263L35.3934 75.8915C35.5916 75.6933 35.9127 75.6933 36.1109 75.8915L36.4553 76.2359H36.4564Z" fill="white"/>
<path d="M30.5432 90.7654C30.345 90.5672 30.345 90.2461 30.5432 90.0478L33.4865 87.1023L33.4976 87.1156L33.5109 87.1023L36.4564 90.0478C36.6546 90.2461 36.6546 90.5672 36.4564 90.7654L36.1109 91.1109C35.9127 91.3091 35.5916 91.3091 35.3934 91.1109L33.8575 89.575C33.6593 89.3768 33.3381 89.3768 33.1399 89.575L31.6062 91.1098C31.408 91.308 31.0869 91.308 30.8887 91.1098L30.5443 90.7654H30.5432Z" fill="white"/>
<path d="M42 83.7447V83.2552C42 82.9751 41.7729 82.748 41.4928 82.748H25.5072C25.2271 82.748 25 82.9751 25 83.2552V83.7447C25 84.0248 25.2271 84.2518 25.5072 84.2518H41.4928C41.7729 84.2518 42 84.0248 42 83.7447Z" fill="white"/>
<path d="M40.7666 86.4567C40.5684 86.6549 40.2473 86.6549 40.0491 86.4567L37.1035 83.5133L37.1168 83.5023L37.1035 83.489L40.0491 80.5434C40.2473 80.3452 40.5684 80.3452 40.7666 80.5434L41.1121 80.8889C41.3103 81.0871 41.3103 81.4083 41.1121 81.6065L39.5762 83.1424C39.378 83.3406 39.378 83.6617 39.5762 83.8599L41.111 85.3936C41.3092 85.5918 41.3092 85.913 41.111 86.1112L40.7666 86.4556V86.4567Z" fill="white"/>
<path d="M26.2363 80.5434C26.4346 80.3452 26.7557 80.3452 26.9539 80.5434L29.8994 83.4868L29.8862 83.4978L29.8994 83.5111L26.9539 86.4567C26.7557 86.6549 26.4346 86.6549 26.2363 86.4567L25.8908 86.1112C25.6926 85.913 25.6926 85.5918 25.8908 85.3936L27.4267 83.8577C27.625 83.6595 27.625 83.3384 27.4267 83.1402L25.892 81.6065C25.6937 81.4083 25.6937 81.0871 25.892 80.8889L26.2363 80.5445V80.5434Z" fill="white"/>
<path d="M29.4416 87.5607C29.2434 87.3614 29.2434 87.0403 29.4416 86.8421L36.8431 79.4394C37.0414 79.2412 37.3625 79.2412 37.5607 79.4394C37.7589 79.6388 37.7589 79.9599 37.5607 80.1581L30.1592 87.5607C29.961 87.7589 29.6398 87.7589 29.4416 87.5607Z" fill="white"/>
<path d="M38.3821 81.2775C38.3821 81.5577 38.1551 81.7847 37.875 81.7847H35.2262V81.7736H35.2129V79.1248C35.2129 78.8447 35.4399 78.6177 35.7212 78.6177C36.0013 78.6177 36.2283 78.8447 36.2283 79.1248V80.2632C36.2283 80.5434 36.4553 80.7704 36.7355 80.7704H37.8716C38.1518 80.7704 38.3788 80.9974 38.3788 81.2775H38.3821Z" fill="white"/>
<path d="M28.6172 85.7225C28.6172 85.4423 28.8442 85.2153 29.1244 85.2153H31.7731V85.2264H31.7864V87.8752C31.7864 88.1553 31.5594 88.3823 31.2781 88.3823C30.998 88.3823 30.771 88.1553 30.771 87.8752V86.7368C30.771 86.4567 30.544 86.2297 30.2638 86.2297H29.1277C28.8475 86.2297 28.6205 86.0027 28.6205 85.7225H28.6172Z" fill="white"/>
<path d="M29.4397 79.4405C29.6379 79.2412 29.959 79.2412 30.1572 79.4405L37.5599 86.8431C37.7581 87.0413 37.7581 87.3625 37.5599 87.5607C37.3616 87.76 37.0405 87.76 36.8423 87.5607L29.4397 80.1581C29.2415 79.9599 29.2415 79.6387 29.4397 79.4405Z" fill="white"/>
<path d="M35.722 88.3824C35.4419 88.3824 35.2148 88.1554 35.2148 87.8752V85.2264H35.2259V85.2131H37.8747C38.1549 85.2131 38.3819 85.4401 38.3819 85.7214C38.3819 86.0027 38.1549 86.2297 37.8747 86.2297H36.7363C36.4562 86.2297 36.2292 86.4567 36.2292 86.7368V87.873C36.2292 88.1531 36.0022 88.3801 35.722 88.3801V88.3824Z" fill="white"/>
<path d="M31.277 78.6177C31.5572 78.6177 31.7842 78.8447 31.7842 79.1248V81.7736H31.7731V81.7869H29.1244C28.8442 81.7869 28.6172 81.5599 28.6172 81.2786C28.6172 80.9974 28.8442 80.7704 29.1244 80.7704H30.2627C30.5429 80.7704 30.7699 80.5434 30.7699 80.2632V79.1271C30.7699 78.8469 30.9969 78.6199 31.277 78.6199V78.6177Z" fill="white"/>
</g>
<defs>
<clipPath id="clip0_8035_447">
<rect width="28" height="28" fill="white" transform="translate(48 75)"/>
</clipPath>
<clipPath id="clip1_8035_447">
<rect width="17" height="17" fill="white" transform="translate(25 75)"/>
</clipPath>
</defs>
</svg>
