<svg width="142" height="225" viewBox="0 0 142 225" fill="none" xmlns="http://www.w3.org/2000/svg">
<path d="M1.87085 60.556C-0.150657 57.3968 -0.93876 52.2337 1.58458 48.8844C5.44382 43.7671 13.6747 42.073 19.9301 45.1089C20.1704 45.2286 19.9937 45.5879 19.7534 45.4752C13.6641 42.5168 5.6594 44.1545 1.90972 49.1274C-0.504067 52.3288 0.266366 57.2912 2.21365 60.3376C8.0025 69.3784 25.2772 70.685 35.9996 69.801C96.9239 64.7647 140.407 6.36087 141.934 7.79781C142.015 7.87177 142.023 8.00208 141.945 8.08308C113.35 38.6321 77.6772 66.7616 36.035 70.2025C25.0687 71.1111 7.71624 69.6777 1.87438 60.5525L1.87085 60.556Z" fill="#719DFF"/>
<path d="M15.6437 18.1979C15.7214 17.9725 16.0607 18.0958 15.9794 18.3177C9.4166 36.7478 22.726 50.9798 47.8428 39.8365C58.7738 34.9868 77.1158 24.9459 77.1158 12.186C77.1158 11.95 77.4727 11.95 77.4727 12.186C77.4727 25.1466 59 35.2756 47.9877 40.1605C22.8992 51.2898 8.85468 37.2655 15.6437 18.1979Z" fill="#719DFF"/>
<path d="M92.8772 52.3147C92.8772 52.3147 96.8389 54.7976 96.899 54.9139L93.5522 53.5896L93.0398 55.2308L96.899 54.9139L92.0078 56.2099L92.8772 52.3147Z" fill="#F9B406"/>
<path d="M51.0449 25.6328C51.0449 25.6328 49.55 19.3462 50.3239 17.9973C51.0979 16.6484 57.8516 11.119 57.8516 11.119C57.8516 11.119 65.1459 10.3864 67.1851 11.4923L51.0449 25.6328Z" fill="#FFC330"/>
<path d="M90.2553 32.2434C90.2553 32.2434 95.8957 32.4301 95.8957 41.1926C95.8957 49.9551 82.8937 70.1779 70.1604 63.1376C57.4235 56.0973 63.177 48.4231 63.177 48.4231C63.177 48.4231 62.3571 57.3264 67.9692 54.8012C67.9692 54.8012 65.3681 54.9738 65.3681 52.6705C65.3681 50.3672 68.517 49.138 68.517 49.138C68.517 49.138 65.1278 51.8675 67.7996 52.755C70.4714 53.6425 72.7297 48.4231 72.7297 48.4231C72.7297 48.4231 68.7927 50.9905 68.7927 47.8807C68.7927 47.8807 69.9377 49.7438 71.8037 47.8807C73.6733 46.0176 73.3093 44.8413 74.1327 42.5873C74.9561 40.3368 79.5399 34.7405 82.0067 33.1028C84.4699 31.4651 89.5343 31.5249 90.2588 32.2434H90.2553Z" fill="#1F3D7A"/>
<path d="M85.7735 104.812L75.5069 163.519C75.5069 163.519 74.2417 166.59 72.2132 172.362C70.1881 178.135 69.0431 211.663 69.0431 211.663L64.4629 220.123L67.1417 224.624C67.1417 224.624 68.8169 221.236 69.6686 219.637C70.5203 218.035 71.1176 212.755 71.1176 212.755C71.1176 212.755 83.031 169.904 83.8509 166.766C84.6744 163.628 95.8951 119.685 95.8951 119.685L85.7735 104.812Z" fill="#FFCECE"/>
<path d="M100.56 218.232C96.1176 213.805 100.56 175.599 100.56 175.599L102.596 117.238L102.613 116.688L88.6465 117.643C88.6465 117.643 94.9442 167.041 92.3431 172.912C89.7421 178.779 94.9442 215.524 94.9442 215.524C94.9442 215.524 93.8522 218.176 93.2055 220.673C92.5587 223.173 94.8064 222.856 98.5844 222.856C102.362 222.856 108.363 223.402 108.363 223.402C108.363 223.402 104.999 222.659 100.56 218.235V218.232Z" fill="#FFC8C7"/>
<path d="M90.7949 136.337C91.4134 142.243 92.0318 148.766 92.4524 154.679C95.2373 154.566 98.1847 154.609 101.284 154.862L101.931 136.337H90.7984H90.7949Z" fill="#E24242"/>
<path d="M91.643 136.337H80.2596L76.623 157.137C79.574 156.32 82.9986 155.591 86.8401 155.13C88.2926 149.449 90.0597 142.539 91.643 136.337Z" fill="#E24242"/>
<path d="M117.185 36.6986C116.832 33.9093 111.842 20.6669 108.389 15.0424C108.399 15.0424 107.897 7.49143 107.141 7.02654C106.364 6.54756 106.95 8.48461 106.926 9.23126C106.901 9.9779 106.83 11.4536 106.572 10.1505C106.314 8.84737 104.678 4.6563 104.141 4.45555C103.194 4.09984 105.569 8.94598 105.583 10.6541C105.583 10.6541 103.823 6.78001 103.25 5.14232C103.25 5.14232 102.833 3.79695 102.243 4.09984C101.653 4.3992 102.671 5.80092 102.907 6.76592C103.144 7.73092 104.272 10.2385 104.427 10.5801C104.583 10.9218 103.943 10.2315 103.363 8.9495C102.787 7.66753 101.865 5.61778 101.43 6.04745C100.999 6.47712 102.702 9.46018 103.342 10.883C103.982 12.3059 104.194 12.7391 103.738 12.5665C103.282 12.3975 102.847 11.9748 102.367 11.274C101.886 10.5731 101.041 11.1789 101.713 12.2354C102.388 13.292 104.303 14.6867 105.014 15.3101C105.127 15.4122 106.378 16.6449 106.459 16.7611C106.537 16.8949 106.629 17.0675 106.731 17.2753C108.187 20.2689 111.796 30.7219 110.014 36.0295C107.996 42.0343 103.088 51.0433 97.3235 54.7977C93.4324 57.33 92.3227 58.4957 92.0117 58.9853C95.2843 62.1409 99.5712 63.4651 103.837 63.3348C103.777 63.2679 103.72 63.201 103.66 63.1341C103.66 63.1341 102.391 62.5459 105.462 58.7528C109.809 53.3854 117.595 40.0303 117.171 36.6951L117.185 36.6986Z" fill="#FFC8C7"/>
<path d="M57.5858 75.929C53.1681 74.4463 45.9056 67.7019 42.8592 63.9299C42.4457 63.3734 42.0958 62.8628 42.0746 62.7677C41.7954 61.5561 41.6435 58.4005 40.972 56.9389C40.3005 55.4773 39.1342 56.0866 39.5583 57.0974C39.9824 58.1047 40.1415 58.8865 40.0319 59.5275C39.9188 60.172 39.6078 59.6508 38.5335 57.9955C37.4591 56.3402 35.4411 52.4449 34.7237 52.6809C34.0027 52.9169 35.5471 55.3012 36.5155 56.791C37.4803 58.2807 37.7913 59.4712 37.5333 59.0732C37.2753 58.6752 35.3881 55.7626 34.5364 54.8715C33.6847 53.9805 32.5573 52.3146 31.8752 52.8183C31.1896 53.3219 32.4301 54.1214 32.4301 54.1214C33.879 55.6499 36.883 60.4819 36.883 60.4819C35.116 59.3831 31.5889 53.5227 31.3592 54.861C31.2285 55.6182 34.5399 60.1967 35.7309 61.3272C36.9219 62.4577 35.3457 61.6019 34.5541 61.1582C33.7589 60.7144 32.1191 58.7985 32.1261 60.0135C32.1332 61.1969 37.5898 64.6237 39.6361 66.5925C39.6502 66.5748 39.6644 66.5572 39.682 66.5396C45.2518 72.8826 53.9244 81.6486 58.4481 82.5573C64.2652 83.7265 82.2714 69.6283 86.4629 67.649L82.7026 59.3092C77.458 61.3483 63.3393 77.8626 57.5928 75.9326L57.5858 75.929Z" fill="#FFCECE"/>
<path d="M103.674 63.1374L97.3374 54.801C97.3374 54.801 87.9403 57.2664 82.6992 59.3055C82.6992 59.3055 87.4597 74.9745 89.8699 81.9092C91.4744 86.5193 89.9971 91.045 87.9049 95.2361C92.471 96.1412 96.9982 97.1308 101.511 98.1135L101.72 96.9935C101.72 96.9935 106.773 73.5587 103.674 63.1374Z" fill="#FFCECE"/>
<path d="M81.3203 49.9725C81.4723 49.9725 85.7309 53.188 86.268 56.3683C86.8052 59.545 86.9925 62.8838 88.8091 63.1233C90.6256 63.3663 97.4323 59.8268 95.5769 56.5479C95.5769 56.5479 90.4312 54.153 90.205 47.877L81.3203 49.9725Z" fill="#FFCECE"/>
<path d="M90.2262 48.2539C90.2192 48.1307 90.2121 48.0074 90.205 47.8806L81.3203 49.9762C81.4122 49.9762 82.9849 51.1384 84.3455 52.7549C85.8263 52.283 87.3106 51.4871 88.65 50.2649C89.272 49.6979 89.7915 49.0147 90.2262 48.2539Z" fill="#FFC8C7"/>
<path d="M91.7576 33.7612C91.496 33.7612 85.7849 30.9295 83.1238 33.0004C80.4626 35.0713 81.5652 37.7656 81.1765 38.7306C80.8443 39.5547 78.7556 40.2203 77.4621 40.3964C77.1123 40.4457 76.8755 40.805 76.9709 41.1677C77.0239 41.3791 77.1123 41.5904 77.2465 41.7348C77.6212 42.1327 77.6353 42.7702 77.3773 42.7702C76.8154 42.7702 76.7836 43.0555 76.9886 43.7106C76.9886 43.7106 77.1476 44.4572 76.9002 45.0489C76.6458 45.6582 76.6811 45.8765 76.6811 45.8765C76.6811 45.8765 77.1335 46.4154 76.9214 46.6408C76.7094 46.8662 75.9955 47.4508 77.3102 48.849C78.6248 50.2472 85.4916 51.3355 90.3934 47.5389C95.2952 43.7423 94.03 33.7647 91.7576 33.7647V33.7612Z" fill="#FFCECE"/>
<path d="M80.5039 37.6599C80.9068 38.2516 81.3238 38.5897 81.7196 38.7799C82.2992 39.0898 82.7056 39.6533 82.847 40.164C81.7479 38.8644 81.4192 39.2025 80.8856 38.4911C80.6983 38.2481 80.5569 37.9628 80.5039 37.6599Z" fill="#172866"/>
<path d="M81.4309 38.8574C81.4309 38.8574 81.1659 38.9596 81.1128 39.428C81.074 39.7802 81.3744 39.9246 81.3744 39.9246L81.5475 38.956L81.4309 38.8574Z" fill="#18287D"/>
<path d="M83.5897 36.4166C83.049 36.0609 82.3952 36.1349 82.1973 36.1666C82.1831 36.1666 82.169 36.1701 82.1584 36.1736L82.0488 36.547C82.0488 36.547 82.7663 36.3779 83.3494 36.561C83.929 36.7477 84.4308 38.16 84.4308 38.16C84.4308 38.16 84.2329 36.8393 83.5862 36.4166H83.5897Z" fill="#172866"/>
<path d="M121.921 123.073C111.128 109.363 103.402 97.3599 102.261 95.5637C102.953 93.3977 105.897 83.9978 106.795 78.412C107.813 72.0656 103.434 60.8025 103.434 60.8025L83.7138 66.5326C87.6154 80.6555 88.605 93.7394 88.605 93.7394C52.2108 102.453 56.3988 156.246 57.0172 156.676C57.0172 156.676 95.7615 148.001 128.901 151.671C128.901 151.671 133.626 137.943 121.917 123.07L121.921 123.073Z" fill="#F9B406"/>
<path d="M97.1811 48.5462C97.796 48.018 98.2731 46.5071 98.2837 45.7252C98.5417 41.4038 94.587 36.8359 94.1523 36.1421L94.428 35.9026L95.6649 37.2832C98.6477 40.7029 101.334 46.3767 98.3261 49.7226L97.1811 48.5498V48.5462Z" fill="#2846A6"/>
<path d="M89.7715 55.9317C93.6837 55.2308 94.9489 49.5077 94.8889 45.4998L94.8358 43.6719L94.9737 43.6614C94.9666 43.7494 96.2954 55.178 89.8528 56.541L89.7715 55.9317Z" fill="#284690"/>
<path d="M49.5424 23.361C45.0577 28.5735 41.2232 34.5149 39.7989 41.0868C39.7389 41.365 39.6965 41.675 39.8484 41.9145C40.1417 42.3723 40.8415 42.2103 41.3327 41.9814C44.8739 40.312 47.8708 37.7093 50.9667 35.3144C55.5363 31.7749 60.4098 28.6228 64.7744 24.8402C69.0295 21.1493 72.4328 16.916 75.723 12.3868C77.84 9.47416 81.883 6.97008 83.074 3.48691C83.4804 2.29651 83.1446 0.753914 82.0102 0.208018C80.95 -0.299137 79.706 0.215062 78.6599 0.74687C70.178 5.0436 62.2652 10.5343 55.4444 17.1519C53.4512 19.0854 51.4403 21.1598 49.5424 23.361Z" fill="#FF9739"/>
<path d="M69.2197 12.6017C67.7849 11.0415 64.9647 14.0985 60.4022 18.2614C55.8396 22.4243 51.263 26.1118 52.6978 27.672C54.1327 29.2322 58.9921 27.1261 63.5546 22.9632C68.1171 18.8003 70.6546 14.1619 69.2197 12.6017Z" fill="#542360"/>
<path d="M82.6953 59.302L86.4556 66.4832L87.7208 66.0746L84.2079 58.6152L82.6953 59.302Z" fill="#F9B406"/>
<path d="M96.627 54.9878L101.228 62.1337L102.564 61.7252L97.3373 54.7976L96.627 54.9878Z" fill="#F9B406"/>
<path d="M85.7499 32.3278C85.7499 32.3278 88.9129 39.2801 90.2523 39.6956C91.5917 40.1112 93.4188 40.2239 91.8956 43.2633C90.3724 46.2992 83.6153 50.6805 82.4561 53.5156C81.3004 56.3507 78.0703 54.1848 78.0703 54.1848C78.0703 54.1848 77.8511 55.8401 80.7173 56.9319C83.5834 58.0237 85.559 55.5794 85.559 55.5794C85.559 55.5794 86.4849 57.3193 84.103 57.7701C84.103 57.7701 92.3374 57.5094 95.4545 49.3386C98.5716 41.1678 95.8998 37.9206 94.8289 35.332C93.5037 32.1271 90.376 30.838 85.7428 32.3243L85.7499 32.3278Z" fill="#2846A6"/>
<path d="M88.1309 41.298C88.1309 41.298 89.3607 38.153 91.0253 38.4629C92.6898 38.7728 92.6686 41.8932 91.7993 43.14C90.9299 44.3867 89.2547 43.9289 88.8165 43.4605C88.3782 42.9956 88.1309 41.298 88.1309 41.298Z" fill="#FFCECE"/>
<path d="M89.0566 40.9495C89.0566 40.9495 90.2017 38.6885 90.905 39.3928C91.6083 40.0972 91.9228 42.552 90.495 43.1014C89.0637 43.6508 89.0566 40.953 89.0566 40.953V40.9495Z" fill="#FFC8C7"/>
<path d="M78.0403 45.0947C78.27 44.1227 76.9836 43.7141 76.9836 43.7141C76.9836 43.7141 77.1427 44.4608 76.8953 45.0524C76.8705 45.1123 76.8493 45.1651 76.8281 45.218C77.2734 45.6371 77.8283 45.9857 78.0403 45.0982V45.0947Z" fill="#172866"/>
<path d="M95.6051 50.3142C95.6051 50.3142 96.8067 54.8223 96.8986 54.9138L96.6265 51.3356H98.3511L96.8986 54.9138L99.5916 50.6453L95.6016 50.3142H95.6051Z" fill="#F9B406"/>
<path d="M96.9987 55.6921C97.3949 55.6921 97.7161 55.372 97.7161 54.9772C97.7161 54.5823 97.3949 54.2622 96.9987 54.2622C96.6025 54.2622 96.2812 54.5823 96.2812 54.9772C96.2812 55.372 96.6025 55.6921 96.9987 55.6921Z" fill="#FCEE21"/>
<path d="M97.3086 54.9773C98.4148 55.7204 99.8284 55.893 101.104 55.1393L101.458 55.8789C99.8708 56.4495 98.3405 56.0057 97.3121 54.9773H97.3086Z" fill="#FCEE21"/>
<path d="M96.8999 55.0864C96.5889 59.7776 104.011 59.2528 104.742 55.4386L105.551 55.5795C104.353 60.0664 96.2355 60.0101 96.8999 55.0864Z" fill="#FCEE21"/>
<path d="M91.5024 94.1691C90.5235 92.5314 90.1913 90.5204 92.0078 88.7101C93.8243 86.8998 90.2902 86.118 89.7707 83.9344C89.2547 81.7508 92.6439 80.5498 94.4534 78.7501C96.2628 76.9469 90.633 74.5872 87.1413 71.1076C85.3708 69.3431 84.3918 67.6913 83.8582 66.4939L83.7168 66.5362C87.6184 80.659 88.608 93.7429 88.608 93.7429C88.4666 93.7781 88.3253 93.8098 88.1874 93.845C90.0782 94.5177 92.0643 95.1094 91.5024 94.1691Z" fill="#FF9739"/>
<path d="M109.166 112.085C115.647 124.211 120.507 137.436 121.327 151.044C121.8 151.072 122.274 151.101 122.747 151.132C121.104 132.202 111.421 112.346 100.281 97.7156C103.589 102.283 106.505 107.123 109.162 112.085H109.166Z" fill="#FCEE21"/>
<path d="M112.003 150.77C112.441 150.77 112.876 150.773 113.314 150.78C113.042 133.463 104.744 112.462 97.7148 98.9448C104.564 112.941 112.145 134.192 112.003 150.77Z" fill="#FCEE21"/>
</svg>
