<svg width="102" height="108" viewBox="0 0 102 108" fill="none" xmlns="http://www.w3.org/2000/svg">
<circle cx="70" cy="32" r="32" fill="#FFCA00"/>
<path d="M88.6459 49.9806C88.5982 49.9806 88.5505 49.9925 88.5029 49.9925C89.4208 47.8552 89.9394 45.5024 89.9394 43.0299C89.9394 33.3252 82.1071 25.4586 72.445 25.4586C69.0296 25.4586 65.8526 26.4584 63.1644 28.1526C59.5225 19.2622 50.82 13 40.6572 13C27.2161 13 16.3201 23.9439 16.3201 37.4442C16.3201 38.4619 16.4035 39.4617 16.5228 40.4496C16.4572 40.4496 16.3857 40.4376 16.3201 40.4376C7.30769 40.4376 0 47.7774 0 56.8295C0 65.8815 7.30769 73.2214 16.3201 73.2214H88.6519C95.0416 73.2214 100.227 68.0188 100.227 61.601C100.227 55.1831 95.0476 49.9746 88.6519 49.9746L88.6459 49.9806Z" fill="white"/>
<path d="M45.2133 64.001L38 85.8373H47.9448L41.5003 108.001L65 76.7098H52.8658L57.4573 64.001H45.2133Z" fill="#FFCA00"/>
</svg>
