<svg width="133" height="76" viewBox="0 0 133 76" fill="none" xmlns="http://www.w3.org/2000/svg">
<path d="M120.646 36.9806C120.598 36.9806 120.551 36.9925 120.503 36.9925C121.421 34.8552 121.939 32.5024 121.939 30.0299C121.939 20.3252 114.107 12.4586 104.445 12.4586C101.03 12.4586 97.8526 13.4584 95.1644 15.1526C91.5225 6.26221 82.82 0 72.6572 0C59.2161 0 48.3201 10.9439 48.3201 24.4442C48.3201 25.4619 48.4035 26.4617 48.5228 27.4496C48.4572 27.4496 48.3857 27.4376 48.3201 27.4376C39.3077 27.4376 32 34.7774 32 43.8295C32 52.8815 39.3077 60.2214 48.3201 60.2214H120.652C127.042 60.2214 132.227 55.0188 132.227 48.601C132.227 42.1831 127.048 36.9746 120.652 36.9746L120.646 36.9806Z" fill="#AEAEAE"/>
<path d="M88.6459 51.9806C88.5982 51.9806 88.5505 51.9925 88.5029 51.9925C89.4208 49.8552 89.9394 47.5024 89.9394 45.0299C89.9394 35.3252 82.1071 27.4586 72.445 27.4586C69.0296 27.4586 65.8526 28.4584 63.1644 30.1526C59.5225 21.2622 50.82 15 40.6572 15C27.2161 15 16.3201 25.9439 16.3201 39.4442C16.3201 40.4619 16.4035 41.4617 16.5228 42.4496C16.4572 42.4496 16.3857 42.4376 16.3201 42.4376C7.30769 42.4376 0 49.7774 0 58.8295C0 67.8815 7.30769 75.2214 16.3201 75.2214H88.6519C95.0416 75.2214 100.227 70.0188 100.227 63.601C100.227 57.1831 95.0476 51.9746 88.6519 51.9746L88.6459 51.9806Z" fill="white"/>
</svg>
