<svg width="109" height="110" viewBox="0 0 109 110" fill="none" xmlns="http://www.w3.org/2000/svg">
<ellipse cx="55.5" cy="54.9878" rx="25.5" ry="26" fill="#FFCA00"/>
<path d="M84.918 56.5072C84.918 55.6758 86.1038 54.999 87.5608 54.999H106.357C107.814 54.999 109 55.6758 109 56.5072C109 57.3386 107.814 58.0153 106.357 58.0153H87.5608C86.1038 58.0153 84.918 57.3386 84.918 56.5072Z" fill="#FFCA00"/>
<path d="M0 56.5072C0 55.6758 1.18587 54.999 2.6428 54.999H21.4388C22.8958 54.999 24.0816 55.6758 24.0816 56.5072C24.0816 57.3386 22.8958 58.0153 21.4388 58.0153H2.6428C1.18587 58.0153 0 57.3386 0 56.5072Z" fill="#FFCA00"/>
<path d="M78.2946 34.7687C77.7187 34.169 78.1053 32.8595 79.1561 31.8503L92.713 18.831C93.7638 17.8218 95.0878 17.4885 95.6637 18.0882C96.2396 18.6878 95.8531 19.9973 94.8022 21.0065L81.2454 34.0259C80.1946 35.035 78.8705 35.3683 78.2946 34.7687Z" fill="#FFCA00"/>
<path d="M17.0446 93.589C16.4687 92.9893 16.8553 91.6798 17.9061 90.6706L31.463 77.6513C32.5138 76.6421 33.8378 76.3088 34.4137 76.9085C34.9896 77.5081 34.6031 78.8177 33.5522 79.8268L19.9954 92.8462C18.9446 93.8553 17.6205 94.1887 17.0446 93.589Z" fill="#FFCA00"/>
<path d="M55.5784 24.098C54.747 24.0881 54.0844 22.8943 54.1017 21.4375L54.3251 2.64276C54.3424 1.18594 55.0332 0.00819856 55.8646 0.0180805C56.6959 0.0279625 57.3585 1.22179 57.3412 2.67861L57.1178 21.4733C57.1005 22.9301 56.4097 24.1079 55.5784 24.098Z" fill="#FFCA00"/>
<path d="M54.5666 108.997C53.7353 108.987 53.0727 107.793 53.09 106.336L53.3134 87.5417C53.3307 86.0849 54.0215 84.9071 54.8529 84.917C55.6842 84.9269 56.3468 86.1207 56.3295 87.5775L56.1061 106.372C56.0888 107.829 55.398 109.007 54.5666 108.997Z" fill="#FFCA00"/>
<path d="M76.8204 75.2992C76.2658 75.9187 76.698 77.2139 77.7834 78.1857L91.7871 90.7231C92.8726 91.6949 94.2075 91.9817 94.7621 91.3623C95.3167 90.7428 94.8846 89.4476 93.7991 88.4758L79.7954 75.9384C78.7099 74.9666 77.375 74.6798 76.8204 75.2992Z" fill="#FFCA00"/>
<path d="M13.5528 18.6562C12.9983 19.2756 13.4304 20.5708 14.5159 21.5426L28.5196 34.08C29.605 35.0518 30.9399 35.3386 31.4945 34.7192C32.0491 34.0998 31.617 32.8046 30.5315 31.8328L16.5278 19.2953C15.4423 18.3235 14.1074 18.0367 13.5528 18.6562Z" fill="#FFCA00"/>
</svg>
