<svg width="101" height="61" viewBox="0 0 101 61" fill="none" xmlns="http://www.w3.org/2000/svg">
<path d="M88.6459 36.9806C88.5982 36.9806 88.5505 36.9925 88.5029 36.9925C89.4208 34.8552 89.9394 32.5024 89.9394 30.0299C89.9394 20.3252 82.1071 12.4586 72.445 12.4586C69.0296 12.4586 65.8526 13.4584 63.1644 15.1526C59.5225 6.26221 50.82 0 40.6572 0C27.2161 0 16.3201 10.9439 16.3201 24.4442C16.3201 25.4619 16.4035 26.4617 16.5228 27.4496C16.4572 27.4496 16.3857 27.4376 16.3201 27.4376C7.30769 27.4376 0 34.7774 0 43.8295C0 52.8815 7.30769 60.2214 16.3201 60.2214H88.6519C95.0416 60.2214 100.227 55.0188 100.227 48.601C100.227 42.1831 95.0476 36.9746 88.6519 36.9746L88.6459 36.9806Z" fill="white"/>
</svg>
