<svg width="102" height="103" viewBox="0 0 102 103" fill="none" xmlns="http://www.w3.org/2000/svg">
<circle cx="70" cy="32" r="32" fill="#FFCA00"/>
<path d="M88.6459 49.9806C88.5982 49.9806 88.5505 49.9925 88.5029 49.9925C89.4208 47.8552 89.9394 45.5024 89.9394 43.0299C89.9394 33.3252 82.1071 25.4586 72.445 25.4586C69.0296 25.4586 65.8526 26.4584 63.1644 28.1526C59.5225 19.2622 50.82 13 40.6572 13C27.2161 13 16.3201 23.9439 16.3201 37.4442C16.3201 38.4619 16.4035 39.4617 16.5228 40.4496C16.4572 40.4496 16.3857 40.4376 16.3201 40.4376C7.30769 40.4376 0 47.7774 0 56.8295C0 65.8815 7.30769 73.2214 16.3201 73.2214H88.6519C95.0416 73.2214 100.227 68.0188 100.227 61.601C100.227 55.1831 95.0476 49.9746 88.6519 49.9746L88.6459 49.9806Z" fill="white"/>
<g clip-path="url(#clip0_8035_490)">
<path d="M74.8308 78H74.1686C73.7896 78 73.4824 78.3072 73.4824 78.6862V100.314C73.4824 100.693 73.7896 101 74.1686 101H74.8308C75.2097 101 75.5169 100.693 75.5169 100.314V78.6862C75.5169 78.3072 75.2097 78 74.8308 78Z" fill="white"/>
<path d="M78.5002 79.672C78.7684 79.9402 78.7684 80.3746 78.5002 80.6428L74.5181 84.6279L74.5031 84.61L74.4851 84.6279L70.5 80.6428C70.2318 80.3746 70.2318 79.9402 70.5 79.672L70.9674 79.2045C71.2356 78.9364 71.67 78.9364 71.9382 79.2045L74.0162 81.2825C74.2844 81.5507 74.7188 81.5507 74.987 81.2825L77.062 79.206C77.3301 78.9379 77.7646 78.9379 78.0328 79.206L78.4987 79.672H78.5002Z" fill="white"/>
<path d="M70.5 99.3295C70.2318 99.0613 70.2318 98.6269 70.5 98.3587L74.4821 94.3735L74.4971 94.3915L74.5151 94.3735L78.5002 98.3587C78.7684 98.6269 78.7684 99.0613 78.5002 99.3295L78.0328 99.7969C77.7646 100.065 77.3301 100.065 77.062 99.7969L74.984 97.719C74.7158 97.4508 74.2814 97.4508 74.0132 97.719L71.9382 99.7954C71.67 100.064 71.2356 100.064 70.9674 99.7954L70.5015 99.3295H70.5Z" fill="white"/>
<path d="M86 89.831V89.1688C86 88.7899 85.6928 88.4827 85.3138 88.4827H63.6862C63.3072 88.4827 63 88.7899 63 89.1688V89.831C63 90.21 63.3072 90.5172 63.6862 90.5172H85.3138C85.6928 90.5172 86 90.21 86 89.831Z" fill="white"/>
<path d="M84.331 93.5002C84.0628 93.7684 83.6283 93.7684 83.3601 93.5002L79.375 89.5181L79.393 89.5031L79.375 89.4851L83.3601 85.5C83.6283 85.2318 84.0628 85.2318 84.331 85.5L84.7984 85.9674C85.0666 86.2356 85.0666 86.67 84.7984 86.9382L82.7204 89.0162C82.4523 89.2844 82.4523 89.7188 82.7204 89.987L84.7969 92.062C85.0651 92.3301 85.0651 92.7646 84.7969 93.0328L84.331 93.4987V93.5002Z" fill="white"/>
<path d="M64.6725 85.5C64.9406 85.2318 65.3751 85.2318 65.6433 85.5L69.6284 89.4821L69.6105 89.4971L69.6284 89.5151L65.6433 93.5002C65.3751 93.7684 64.9406 93.7684 64.6725 93.5002L64.205 93.0328C63.9369 92.7646 63.9369 92.3301 64.205 92.062L66.283 89.984C66.5512 89.7158 66.5512 89.2814 66.283 89.0132L64.2065 86.9382C63.9384 86.67 63.9384 86.2356 64.2065 85.9674L64.6725 85.5015V85.5Z" fill="white"/>
<path d="M69.0078 94.9939C68.7396 94.7243 68.7396 94.2898 69.0078 94.0216L79.0216 84.0063C79.2898 83.7381 79.7242 83.7381 79.9924 84.0063C80.2606 84.276 80.2606 84.7104 79.9924 84.9786L69.9786 94.9939C69.7104 95.2621 69.2759 95.2621 69.0078 94.9939Z" fill="white"/>
<path d="M81.1061 86.4932C81.1061 86.8722 80.799 87.1793 80.42 87.1793H76.8363V87.1643H76.8184V83.5807C76.8184 83.2017 77.1255 82.8945 77.506 82.8945C77.8851 82.8945 78.1922 83.2017 78.1922 83.5807V85.1208C78.1922 85.4999 78.4993 85.807 78.8784 85.807H80.4155C80.7945 85.807 81.1016 86.1141 81.1016 86.4932H81.1061Z" fill="white"/>
<path d="M67.8945 92.5067C67.8945 92.1277 68.2017 91.8206 68.5807 91.8206H72.1643V91.8355H72.1823V95.4192C72.1823 95.7982 71.8752 96.1053 71.4946 96.1053C71.1156 96.1053 70.8085 95.7982 70.8085 95.4192V93.8791C70.8085 93.5 70.5014 93.1929 70.1223 93.1929H68.5852C68.2062 93.1929 67.899 92.8858 67.899 92.5067H67.8945Z" fill="white"/>
<path d="M69.0058 84.0077C69.274 83.738 69.7085 83.738 69.9766 84.0077L79.9919 94.023C80.2601 94.2912 80.2601 94.7256 79.9919 94.9938C79.7238 95.2635 79.2893 95.2635 79.0211 94.9938L69.0058 84.9785C68.7376 84.7103 68.7376 84.2758 69.0058 84.0077Z" fill="white"/>
<path d="M77.5065 96.1054C77.1274 96.1054 76.8203 95.7983 76.8203 95.4192V91.8356H76.8353V91.8176H80.4189C80.798 91.8176 81.1051 92.1248 81.1051 92.5053C81.1051 92.8858 80.798 93.193 80.4189 93.193H78.8788C78.4998 93.193 78.1926 93.5001 78.1926 93.8791V95.4162C78.1926 95.7953 77.8855 96.1024 77.5065 96.1024V96.1054Z" fill="white"/>
<path d="M71.4932 82.8945C71.8722 82.8945 72.1793 83.2017 72.1793 83.5807V87.1643H72.1643V87.1823H68.5807C68.2017 87.1823 67.8945 86.8752 67.8945 86.4946C67.8945 86.1141 68.2017 85.807 68.5807 85.807H70.1208C70.4999 85.807 70.807 85.4999 70.807 85.1208V83.5837C70.807 83.2047 71.1141 82.8975 71.4932 82.8975V82.8945Z" fill="white"/>
</g>
<path d="M35.8047 80.9362L33.2413 84.9766C32.7573 85.7396 31.7449 85.966 30.982 85.482C30.219 84.9979 29.9926 83.9856 30.4766 83.2226L33.04 79.1822C33.524 78.4192 34.5364 78.1928 35.2993 78.6768C36.0623 79.1609 36.2887 80.1732 35.8047 80.9362Z" fill="#AEAEAE"/>
<path d="M50.9082 97.0019L48.3449 101.042C47.8608 101.805 46.8485 102.032 46.0855 101.548C45.3225 101.064 45.0961 100.051 45.5801 99.2883L48.1435 95.2479C48.6275 94.4849 49.6399 94.2585 50.4028 94.7425C51.1658 95.2266 51.3923 96.2389 50.9082 97.0019Z" fill="#AEAEAE"/>
<path d="M31.2051 96.2121L28.6417 100.253C28.1577 101.015 27.1453 101.242 26.3824 100.758C25.6194 100.274 25.393 99.2615 25.877 98.4985L28.4404 94.4581C28.9244 93.6951 29.9368 93.4687 30.6997 93.9527C31.4627 94.4368 31.6891 95.4491 31.2051 96.2121Z" fill="#AEAEAE"/>
<path d="M52.1426 80.1364L49.5792 84.1768C49.0952 84.9398 48.0828 85.1662 47.3199 84.6822C46.5569 84.1981 46.3305 83.1858 46.8145 82.4228L49.3779 78.3824C49.8619 77.6194 50.8743 77.393 51.6372 77.877C52.4002 78.3611 52.6266 79.3734 52.1426 80.1364Z" fill="#AEAEAE"/>
<path d="M43.627 89.5129L41.0636 93.5533C40.5796 94.3163 39.5672 94.5427 38.8042 94.0586C38.0413 93.5746 37.8148 92.5622 38.2989 91.7993L40.8622 87.7588C41.3463 86.9959 42.3586 86.7694 43.1216 87.2535C43.8846 87.7375 44.111 88.7499 43.627 89.5129Z" fill="#AEAEAE"/>
<defs>
<clipPath id="clip0_8035_490">
<rect width="23" height="23" fill="white" transform="translate(63 78)"/>
</clipPath>
</defs>
</svg>
