<svg width="133" height="98" viewBox="0 0 133 98" fill="none" xmlns="http://www.w3.org/2000/svg">
<path d="M120.646 36.9806C120.598 36.9806 120.551 36.9925 120.503 36.9925C121.421 34.8552 121.939 32.5024 121.939 30.0299C121.939 20.3252 114.107 12.4586 104.445 12.4586C101.03 12.4586 97.8526 13.4584 95.1644 15.1526C91.5225 6.26221 82.82 0 72.6572 0C59.2161 0 48.3201 10.9439 48.3201 24.4442C48.3201 25.4619 48.4035 26.4617 48.5228 27.4496C48.4572 27.4496 48.3857 27.4376 48.3201 27.4376C39.3077 27.4376 32 34.7774 32 43.8295C32 52.8815 39.3077 60.2214 48.3201 60.2214H120.652C127.042 60.2214 132.227 55.0188 132.227 48.601C132.227 42.1831 127.048 36.9746 120.652 36.9746L120.646 36.9806Z" fill="#AEAEAE"/>
<path d="M88.6459 51.9806C88.5982 51.9806 88.5505 51.9925 88.5029 51.9925C89.4208 49.8552 89.9394 47.5024 89.9394 45.0299C89.9394 35.3252 82.1071 27.4586 72.445 27.4586C69.0296 27.4586 65.8526 28.4584 63.1644 30.1526C59.5225 21.2622 50.82 15 40.6572 15C27.2161 15 16.3201 25.9439 16.3201 39.4442C16.3201 40.4619 16.4035 41.4617 16.5228 42.4496C16.4572 42.4496 16.3857 42.4376 16.3201 42.4376C7.30769 42.4376 0 49.7774 0 58.8295C0 67.8815 7.30769 75.2214 16.3201 75.2214H88.6519C95.0416 75.2214 100.227 70.0188 100.227 63.601C100.227 57.1831 95.0476 51.9746 88.6519 51.9746L88.6459 51.9806Z" fill="white"/>
<path d="M30.5898 73.3163L28.0265 77.3568C27.5425 78.1197 26.5301 78.3462 25.7671 77.8621C25.0042 77.3781 24.7777 76.3657 25.2618 75.6027L27.8251 71.5623C28.3092 70.7993 29.3215 70.5729 30.0845 71.057C30.8475 71.541 31.0739 72.5534 30.5898 73.3163Z" fill="white"/>
<path d="M45.3828 75.5597L42.8195 79.6002C42.3354 80.3631 41.3231 80.5896 40.5601 80.1055C39.7971 79.6215 39.5707 78.6091 40.0547 77.8462L42.6181 73.8057C43.1021 73.0428 44.1145 72.8163 44.8775 73.3004C45.6404 73.7844 45.8669 74.7968 45.3828 75.5597Z" fill="white"/>
<path d="M60.4863 91.6254L57.923 95.6658C57.4389 96.4288 56.4266 96.6552 55.6636 96.1712C54.9006 95.6872 54.6742 94.6748 55.1583 93.9118L57.7216 89.8714C58.2057 89.1084 59.218 88.882 59.981 89.366C60.7439 89.8501 60.9704 90.8624 60.4863 91.6254Z" fill="white"/>
<path d="M40.7832 90.8356L38.2199 94.876C37.7358 95.639 36.7235 95.8654 35.9605 95.3814C35.1975 94.8974 34.9711 93.885 35.4551 93.122L38.0185 89.0816C38.5025 88.3186 39.5149 88.0922 40.2778 88.5762C41.0408 89.0603 41.2673 90.0726 40.7832 90.8356Z" fill="white"/>
<path d="M61.7207 74.7599L59.1574 78.8004C58.6733 79.5633 57.661 79.7898 56.898 79.3057C56.135 78.8217 55.9086 77.8093 56.3926 77.0463L58.956 73.0059C59.44 72.243 60.4524 72.0165 61.2153 72.5006C61.9783 72.9846 62.2048 73.997 61.7207 74.7599Z" fill="white"/>
<path d="M53.2051 84.1364L50.6417 88.1768C50.1577 88.9398 49.1453 89.1662 48.3824 88.6822C47.6194 88.1981 47.393 87.1858 47.877 86.4228L50.4404 82.3824C50.9244 81.6194 51.9368 81.393 52.6997 81.877C53.4627 82.3611 53.6891 83.3734 53.2051 84.1364Z" fill="white"/>
<path d="M30.2051 85.1364L27.6417 89.1768C27.1577 89.9398 26.1453 90.1662 25.3824 89.6822C24.6194 89.1981 24.393 88.1858 24.877 87.4228L27.4404 83.3824C27.9244 82.6194 28.9368 82.393 29.6997 82.877C30.4627 83.3611 30.6891 84.3734 30.2051 85.1364Z" fill="white"/>
</svg>
