<svg width="107" height="91" viewBox="0 0 107 91" fill="none" xmlns="http://www.w3.org/2000/svg">
<path d="M94.1507 7H4.84928C2.17282 7 0 5.43175 0 3.5C0 1.56825 2.17282 0 4.84928 0H94.1507C96.8272 0 99 1.56825 99 3.5C99 5.43175 96.8272 7 94.1507 7Z" fill="white"/>
<path d="M40.49 32.74H3.37C1.51 32.74 0 31.23 0 29.37C0 27.51 1.51 26 3.37 26H40.49C42.35 26 43.86 27.51 43.86 29.37C43.86 31.23 42.35 32.74 40.49 32.74Z" fill="white"/>
<path d="M45.49 90.74H8.37C6.51 90.74 5 89.23 5 87.37C5 85.51 6.51 84 8.37 84H45.49C47.35 84 48.86 85.51 48.86 87.37C48.86 89.23 47.35 90.74 45.49 90.74Z" fill="white"/>
<path d="M86.2809 33H63.7191C59.4587 33 56 31.4318 56 29.5C56 27.5683 59.4587 26 63.7191 26H86.2809C90.5413 26 94 27.5683 94 29.5C94 31.4318 90.5413 33 86.2809 33Z" fill="white"/>
<path d="M19.1248 59H4.87524C2.18446 59 0 57.4318 0 55.5C0 53.5683 2.18446 52 4.87524 52H19.1248C21.8156 52 24 53.5683 24 55.5C24 57.4318 21.8156 59 19.1248 59Z" fill="white"/>
<path d="M90.8746 91H67.1254C62.6408 91 59 89.4318 59 87.5C59 85.5683 62.6408 84 67.1254 84H90.8746C95.3593 84 99 85.5683 99 87.5C99 89.4318 95.3593 91 90.8746 91Z" fill="white"/>
<path d="M103.05 48.74H41.37C39.51 48.74 38 47.23 38 45.37C38 43.51 39.51 42 41.37 42H103.05C104.91 42 106.42 43.51 106.42 45.37C106.42 47.23 104.91 48.74 103.05 48.74Z" fill="white"/>
<path d="M103.05 69.74H41.37C39.51 69.74 38 68.23 38 66.37C38 64.51 39.51 63 41.37 63H103.05C104.91 63 106.42 64.51 106.42 66.37C106.42 68.23 104.91 69.74 103.05 69.74Z" fill="white"/>
</svg>
