<?xml version="1.0" encoding="UTF-8"?>
<svg id="_Слой_2" data-name="Слой 2" xmlns="http://www.w3.org/2000/svg" viewBox="0 0 168.14 143.08">
  <defs>
    <style>
      .cls-1 {
        fill: #fff;
      }

      .cls-2 {
        fill: #ffdc7b;
      }
    </style>
  </defs>
  <g id="_Слой_1-2" data-name="Слой 1">
    <g>
      <path class="cls-2" d="M131.21,62.16c4.7,0,9.12-1.2,12.99-3.31-6.39,6.89-15.53,11.19-25.65,11.19-19.34,0-35.02-15.68-35.02-35.02S99.2,0,118.54,0c10.13,0,19.26,4.3,25.65,11.19-3.86-2.11-8.29-3.31-12.99-3.31-14.99,0-27.14,12.15-27.14,27.14s12.15,27.14,27.14,27.14Z"/>
      <path class="cls-1" d="M148.72,104.25c-.08,0-.16.02-.24.02,1.54-3.57,2.41-7.5,2.41-11.63,0-16.21-13.14-29.35-29.35-29.35-5.73,0-11.06,1.67-15.57,4.5-6.11-14.85-20.71-25.31-37.76-25.31-22.55,0-40.83,18.28-40.83,40.83,0,1.7.14,3.37.34,5.02-.11,0-.23-.02-.34-.02-15.12,0-27.38,12.26-27.38,27.38s12.26,27.38,27.38,27.38h121.35c10.72,0,19.42-8.69,19.42-19.41s-8.69-19.42-19.42-19.42Z"/>
    </g>
  </g>
</svg>