<?xml version="1.0" encoding="UTF-8"?>
<svg id="_Слой_2" data-name="Слой 2" xmlns="http://www.w3.org/2000/svg" viewBox="0 0 168.14 176.82">
  <defs>
    <style>
      .cls-1 {
        fill: #ffdc7b;
      }

      .cls-2 {
        fill: #b9d7ff;
      }
    </style>
  </defs>
  <g id="_Слой_1-2" data-name="Слой 1">
    <g>
      <path class="cls-2" d="M148.72,61.76c-.08,0-.16.02-.24.02,1.54-3.57,2.41-7.5,2.41-11.63,0-16.21-13.14-29.35-29.35-29.35-5.73,0-11.06,1.67-15.57,4.5C99.86,10.46,85.26,0,68.21,0,45.66,0,27.38,18.28,27.38,40.83c0,1.7.14,3.37.34,5.02-.11,0-.23-.02-.34-.02-15.12,0-27.38,12.26-27.38,27.38s12.26,27.38,27.38,27.38h121.35c10.72,0,19.42-8.69,19.42-19.41s-8.69-19.42-19.42-19.42Z"/>
      <polygon class="cls-1" points="74.91 112.32 64.4 144.33 78.89 144.33 69.5 176.82 103.74 130.95 86.06 130.95 92.75 112.32 74.91 112.32"/>
    </g>
  </g>
</svg>