<svg id="ediEGoZyrkn1" xmlns="http://www.w3.org/2000/svg" xmlns:xlink="http://www.w3.org/1999/xlink" viewBox="0 0 300 300" shape-rendering="geometricPrecision" text-rendering="geometricPrecision" project-id="bc009b06166f4efbb3f8c2561e6d67cc" export-id="984e1cf7498e463f9c40c322cf1d019d" cached="false"><g id="ediEGoZyrkn2" transform="matrix(0.492473 0 0 0.539048 174.639393 12.476829)"><ellipse rx="83.214794" ry="43.013564" transform="matrix(0.807689 0 0 1.207448 149.399458 148.309328)" fill="#f1f1f1" stroke-width="0"/><ellipse rx="1.244665" ry="5.156492" transform="matrix(29.285731 0 0 6.332225 216.611132 158.670834)" fill="#f1f1f1" stroke-width="0"/><ellipse rx="1.244665" ry="5.156492" transform="matrix(31.054163 0 0 5.749273 80.764759 126.018766)" fill="#f1f1f1" stroke-width="0"/><ellipse rx="1.244665" ry="5.156492" transform="matrix(20.482724 0 0 3.994945 85.743421 158.670834)" fill="#f1f1f1" stroke-width="0"/></g><g id="ediEGoZyrkn7" transform="matrix(0.737749 0 0 0.712297 50.318301 34.578594)"><ellipse rx="49.786629" ry="48.719773" transform="translate(199.786629 106.330016)" fill="#ffd900" stroke-width="0"/><line x1="0" y1="-72.724039" x2="0" y2="72.724039" transform="matrix(-1 0 0 0.922426 199.786625 107.170696)" fill="none" stroke="#ffd900" stroke-width="3"/><line x1="0" y1="-72.724039" x2="0" y2="72.724039" transform="matrix(0.701913 -0.712263 0.712263 0.701913 199.732102 105.361448)" fill="none" stroke="#ffd900" stroke-width="3"/><line x1="0" y1="-72.724039" x2="0" y2="72.724039" transform="matrix(0.68376 0.729707 -0.729707 0.68376 199.994822 105.361447)" fill="none" stroke="#ffd900" stroke-width="3"/><line x1="0" y1="-72.724039" x2="0" y2="72.724039" transform="matrix(-0.01432 -0.999897 0.99298 -0.014221 199.786633 106.330012)" fill="none" stroke="#ffd900" stroke-width="3"/></g><g id="ediEGoZyrkn13" transform="matrix(0.715045 0 0 0.80655 99.841127 51.900716)"><ellipse rx="83.214794" ry="43.013564" transform="matrix(0.807689 0 0 1.207448 149.399458 148.309328)" fill="#f1f1f1" stroke-width="0"/><ellipse rx="1.244665" ry="5.156492" transform="matrix(29.285731 0 0 6.332225 216.611132 158.670834)" fill="#f1f1f1" stroke-width="0"/><ellipse rx="1.244665" ry="5.156492" transform="matrix(31.054163 0 0 5.749273 80.764759 126.018766)" fill="#f1f1f1" stroke-width="0"/><ellipse rx="1.244665" ry="5.156492" transform="matrix(20.482724 0 0 3.994945 85.743421 158.670834)" fill="#f1f1f1" stroke-width="0"/></g><g id="ediEGoZyrkn18" transform="matrix(0.597467 0 0 0.627925 70.078114 118.134454)"><ellipse rx="83.214794" ry="43.013564" transform="matrix(0.807689 0 0 1.207448 149.399458 148.309328)" fill="#f1f1f1" stroke-width="0"/><ellipse rx="1.244665" ry="5.156492" transform="matrix(29.285731 0 0 6.332225 216.611132 158.670834)" fill="#f1f1f1" stroke-width="0"/><ellipse rx="1.244665" ry="5.156492" transform="matrix(31.054163 0 0 5.749273 80.764759 126.018766)" fill="#f1f1f1" stroke-width="0"/><ellipse rx="1.244665" ry="5.156492" transform="matrix(20.482724 0 0 3.994945 85.743421 158.670834)" fill="#f1f1f1" stroke-width="0"/></g>
<script><![CDATA[]]></script>
</svg>
